<svg width="398" height="453" viewBox="0 0 398 453" fill="none" xmlns="http://www.w3.org/2000/svg">
<path d="M408.192 326.954V446.351C380.836 450.626 351.77 453 321.66 453C164.269 453 36.7031 389.835 36.7031 311.852C36.7031 256.76 100.628 208.982 193.714 185.806C161.419 201.953 141.377 224.18 141.377 248.686C141.377 297.984 222.02 337.973 321.565 337.973C352.91 337.973 382.451 333.983 408.097 327.049L408.192 326.954Z" fill="#272727"/>
<path d="M-39 113.046V-6.35101C-11.6441 -10.6254 17.4215 -13 47.5319 -13C204.923 -13 332.489 50.1654 332.489 128.149C332.489 183.24 268.563 231.018 175.478 254.195C207.773 238.047 227.815 215.82 227.815 191.314C227.815 142.017 147.172 102.028 47.6269 102.028C16.2816 102.028 -13.2589 106.017 -38.905 112.951L-39 113.046Z" fill="#272727"/>
</svg>
