<svg width="128" height="33" viewBox="0 0 128 33" fill="none" xmlns="http://www.w3.org/2000/svg">
<path d="M25.4019 25.7733V32.5552C23.848 32.798 22.1971 32.9329 20.4867 32.9329C11.5467 32.9329 4.30078 29.345 4.30078 24.9154C4.30078 21.7862 7.93183 19.0723 13.2192 17.7559C11.3848 18.6731 10.2464 19.9356 10.2464 21.3276C10.2464 24.1277 14.827 26.3992 20.4813 26.3992C22.2618 26.3992 23.9397 26.1726 25.3965 25.7787L25.4019 25.7733Z" fill="#272727"/>
<path d="M0 13.6235V6.84154C1.55385 6.59875 3.20482 6.46387 4.91513 6.46387C13.8552 6.46387 21.1011 10.0518 21.1011 14.4813C21.1011 17.6106 17.47 20.3244 12.1826 21.6409C14.017 20.7237 15.1554 19.4612 15.1554 18.0692C15.1554 15.269 10.5748 12.9976 4.92053 12.9976C3.14008 12.9976 1.46213 13.2242 0.00539532 13.6181L0 13.6235Z" fill="#272727"/>
<path d="M53.1104 10.7904C52.695 10.5153 52.2364 10.375 51.7454 10.375H35.9047V15.3657H46.1342L36.3903 26.2157C36.072 26.5717 35.867 26.998 35.7914 27.4728C35.7105 27.9691 35.7752 28.4547 35.991 28.8971C36.1907 29.3395 36.4982 29.6956 36.9083 29.9708C37.3237 30.246 37.7823 30.3862 38.2733 30.3862H54.0869V25.3956H43.8736L53.5798 14.5672C53.9197 14.2111 54.1355 13.7794 54.211 13.2777C54.2866 12.7975 54.2272 12.3227 54.0276 11.8641C53.828 11.4217 53.5204 11.0656 53.1104 10.7904Z" fill="#272727"/>
<path d="M56.8774 10.5746C56.5699 10.6987 56.2947 10.8929 56.0735 11.1249C55.8469 11.3515 55.6743 11.6213 55.5502 11.9234C55.4261 12.2309 55.3613 12.5547 55.3613 12.8946V24.883C55.3613 25.8811 55.5502 26.739 55.9278 27.4511C56.2947 28.1417 56.7587 28.7136 57.309 29.1614C57.8594 29.6039 58.4636 29.9168 59.1057 30.111C59.7315 30.2945 60.3142 30.3862 60.8538 30.3862H73.6784V25.3955H60.8807C60.6811 25.3955 60.5246 25.3631 60.4545 25.2984C60.3628 25.2067 60.3574 25.0017 60.3574 24.8884V22.8921H72.1839V17.8798H60.3574V15.3764H73.6784V10.3857H57.8702C57.5195 10.3857 57.1903 10.4505 56.8882 10.5746V10.5638L56.8774 10.5746Z" fill="#272727"/>
<path d="M93.383 20.5402C93.0593 20.0762 92.687 19.6662 92.2607 19.337C91.8507 19.0133 91.4191 18.7382 90.9659 18.5223C90.5181 18.3119 90.0595 18.1501 89.5955 18.0476C89.1476 17.9504 88.7052 17.8911 88.2466 17.8803H80.5961C80.008 17.8803 79.7922 17.6537 79.722 17.5836C79.5224 17.3731 79.4253 17.0656 79.4253 16.6448C79.4253 16.2239 79.5224 15.911 79.7328 15.6898C79.8569 15.5549 80.0727 15.3823 80.5961 15.3823H92.7463V10.3916H80.5961C79.981 10.3916 79.3066 10.4995 78.6106 10.7153C77.8876 10.9419 77.2132 11.3034 76.5981 11.7944C75.9723 12.2908 75.4597 12.949 75.0497 13.7313C74.6342 14.5298 74.4238 15.5118 74.4238 16.6394C74.4238 17.767 74.6342 18.7436 75.0497 19.5475C75.4597 20.3352 75.9723 20.9934 76.5981 21.4952C77.2078 21.9861 77.8876 22.3422 78.5998 22.5688C79.2958 22.7846 79.9648 22.8926 80.5853 22.8926H88.2358C88.4355 22.8926 88.6081 22.9249 88.7592 22.9843C88.8995 23.0436 89.0074 23.1192 89.0991 23.2163C89.1962 23.3242 89.2717 23.4483 89.3311 23.5993C89.3904 23.7558 89.4228 23.95 89.4228 24.1551C89.4228 24.5705 89.3257 24.878 89.1153 25.0938C89.0505 25.1694 88.8347 25.3906 88.2358 25.3906H74.5803V30.3813H88.2358C88.6513 30.3813 89.0937 30.3327 89.5523 30.241C90.0163 30.1439 90.4749 29.9928 90.9227 29.7824C91.3705 29.572 91.8021 29.3184 92.2176 28.9947C92.6492 28.6601 93.0323 28.2555 93.356 27.7807C93.6743 27.3167 93.9279 26.7772 94.1221 26.1783C94.311 25.5686 94.4135 24.8996 94.4135 24.1551C94.4135 23.4105 94.3218 22.7415 94.1329 22.1426C93.9495 21.5437 93.6851 21.0042 93.3668 20.5402H93.383Z" fill="#272727"/>
<path d="M93.9102 15.3656H101.253V30.3808H106.244V15.3656H113.571V10.3857H93.9156V15.3656H93.9102Z" fill="#272727"/>
<path d="M123.191 4.49969V0H118.551V4.49969H114.035V9.15585H118.551V13.6555H123.191V9.15585H127.691V4.49969H123.191Z" fill="#272727"/>
</svg>
