<svg width="344" height="60" viewBox="0 0 344 60" fill="none" xmlns="http://www.w3.org/2000/svg">
<g filter="url(#filter0_d_2357_62)">
<rect x="4" width="336" height="52.3417" rx="21.1055" fill="url(#paint0_linear_2357_62)"/>
</g>
<path d="M53.4493 21.5019C54.2834 21.5019 55.004 21.6592 55.6113 21.9738C56.2259 22.2811 56.6942 22.7237 57.0161 23.3018C57.3454 23.8798 57.51 24.5602 57.51 25.3431C57.51 26.126 57.3454 26.8064 57.0161 27.3844C56.6942 27.9551 56.2259 28.3941 55.6113 28.7014C55.004 29.0014 54.2834 29.1514 53.4493 29.1514H51.0677V21.5019H53.4493ZM53.4493 28.3283C54.437 28.3283 55.1906 28.0685 55.7101 27.549C56.2296 27.0222 56.4893 26.2869 56.4893 25.3431C56.4893 24.3919 56.2259 23.6493 55.6991 23.1152C55.1796 22.5811 54.4297 22.314 53.4493 22.314H52.0664V28.3283H53.4493ZM61.4503 29.2501C60.8869 29.2501 60.3748 29.1221 59.9138 28.866C59.4602 28.6099 59.1017 28.2478 58.8383 27.7795C58.5822 27.3039 58.4542 26.7552 58.4542 26.1333C58.4542 25.5187 58.5859 24.9773 58.8493 24.509C59.12 24.0334 59.4858 23.6712 59.9467 23.4225C60.4077 23.1664 60.9235 23.0384 61.4942 23.0384C62.0649 23.0384 62.5807 23.1664 63.0417 23.4225C63.5026 23.6712 63.8648 24.0298 64.1282 24.498C64.3989 24.9663 64.5342 25.5114 64.5342 26.1333C64.5342 26.7552 64.3952 27.3039 64.1172 27.7795C63.8465 28.2478 63.477 28.6099 63.0087 28.866C62.5405 29.1221 62.021 29.2501 61.4503 29.2501ZM61.4503 28.3722C61.8088 28.3722 62.1454 28.288 62.46 28.1197C62.7746 27.9514 63.027 27.699 63.2173 27.3625C63.4148 27.0259 63.5136 26.6162 63.5136 26.1333C63.5136 25.6504 63.4185 25.2407 63.2282 24.9041C63.038 24.5675 62.7892 24.3188 62.4819 24.1578C62.1746 23.9895 61.8417 23.9054 61.4832 23.9054C61.1174 23.9054 60.7808 23.9895 60.4735 24.1578C60.1736 24.3188 59.9321 24.5675 59.7492 24.9041C59.5663 25.2407 59.4748 25.6504 59.4748 26.1333C59.4748 26.6235 59.5626 27.0369 59.7382 27.3734C59.9211 27.71 60.1626 27.9624 60.4626 28.1307C60.7625 28.2917 61.0918 28.3722 61.4503 28.3722ZM73.859 23.1371L71.9823 29.1514H70.9507L69.502 24.3773L68.0533 29.1514H67.0217L65.134 23.1371H66.1547L67.5375 28.1856L69.0301 23.1371H70.0507L71.5104 28.1966L72.8713 23.1371H73.859ZM77.7805 23.0274C78.5121 23.0274 79.1048 23.2505 79.5584 23.6969C80.012 24.1358 80.2389 24.7724 80.2389 25.6065V29.1514H79.2511V25.7492C79.2511 25.1492 79.1011 24.6919 78.8011 24.3773C78.5012 24.0554 78.0914 23.8944 77.572 23.8944C77.0452 23.8944 76.6245 24.059 76.3098 24.3883C76.0026 24.7175 75.8489 25.1968 75.8489 25.826V29.1514H74.8502V23.1371H75.8489V23.9932C76.0464 23.6859 76.3135 23.4481 76.6501 23.2798C76.9939 23.1115 77.3708 23.0274 77.7805 23.0274ZM82.869 21.03V29.1514H81.8703V21.03H82.869ZM87.1941 29.2501C86.6307 29.2501 86.1186 29.1221 85.6576 28.866C85.204 28.6099 84.8455 28.2478 84.5821 27.7795C84.326 27.3039 84.198 26.7552 84.198 26.1333C84.198 25.5187 84.3297 24.9773 84.593 24.509C84.8638 24.0334 85.2296 23.6712 85.6905 23.4225C86.1515 23.1664 86.6673 23.0384 87.238 23.0384C87.8087 23.0384 88.3245 23.1664 88.7854 23.4225C89.2464 23.6712 89.6086 24.0298 89.872 24.498C90.1427 24.9663 90.278 25.5114 90.278 26.1333C90.278 26.7552 90.139 27.3039 89.861 27.7795C89.5903 28.2478 89.2208 28.6099 88.7525 28.866C88.2843 29.1221 87.7648 29.2501 87.1941 29.2501ZM87.1941 28.3722C87.5526 28.3722 87.8892 28.288 88.2038 28.1197C88.5184 27.9514 88.7708 27.699 88.961 27.3625C89.1586 27.0259 89.2574 26.6162 89.2574 26.1333C89.2574 25.6504 89.1623 25.2407 88.972 24.9041C88.7818 24.5675 88.533 24.3188 88.2257 24.1578C87.9184 23.9895 87.5855 23.9054 87.227 23.9054C86.8612 23.9054 86.5246 23.9895 86.2173 24.1578C85.9173 24.3188 85.6759 24.5675 85.493 24.9041C85.3101 25.2407 85.2186 25.6504 85.2186 26.1333C85.2186 26.6235 85.3064 27.0369 85.482 27.3734C85.6649 27.71 85.9064 27.9624 86.2064 28.1307C86.5063 28.2917 86.8356 28.3722 87.1941 28.3722ZM91.218 26.1223C91.218 25.5077 91.3424 24.9699 91.5912 24.509C91.8399 24.0407 92.1801 23.6786 92.6118 23.4225C93.0508 23.1664 93.5374 23.0384 94.0715 23.0384C94.5983 23.0384 95.0556 23.1518 95.4433 23.3786C95.8311 23.6054 96.1201 23.8907 96.3104 24.2346V23.1371H97.32V29.1514H96.3104V28.0319C96.1128 28.3831 95.8165 28.6758 95.4214 28.9099C95.0336 29.1367 94.58 29.2501 94.0605 29.2501C93.5264 29.2501 93.0435 29.1184 92.6118 28.855C92.1801 28.5916 91.8399 28.2222 91.5912 27.7466C91.3424 27.271 91.218 26.7296 91.218 26.1223ZM96.3104 26.1333C96.3104 25.6796 96.2189 25.2846 96.036 24.948C95.8531 24.6114 95.6043 24.3553 95.2897 24.1797C94.9824 23.9968 94.6422 23.9054 94.269 23.9054C93.8959 23.9054 93.5557 23.9932 93.2484 24.1688C92.9411 24.3444 92.696 24.6005 92.513 24.937C92.3301 25.2736 92.2387 25.6687 92.2387 26.1223C92.2387 26.5832 92.3301 26.9857 92.513 27.3295C92.696 27.6661 92.9411 27.9258 93.2484 28.1088C93.5557 28.2844 93.8959 28.3722 94.269 28.3722C94.6422 28.3722 94.9824 28.2844 95.2897 28.1088C95.6043 27.9258 95.8531 27.6661 96.036 27.3295C96.2189 26.9857 96.3104 26.5869 96.3104 26.1333ZM98.6346 26.1223C98.6346 25.5077 98.759 24.9699 99.0078 24.509C99.2565 24.0407 99.5968 23.6786 100.028 23.4225C100.467 23.1664 100.958 23.0384 101.499 23.0384C101.967 23.0384 102.403 23.1481 102.805 23.3676C103.207 23.5798 103.515 23.8615 103.727 24.2127V21.03H104.737V29.1514H103.727V28.021C103.529 28.3795 103.237 28.6758 102.849 28.9099C102.461 29.1367 102.008 29.2501 101.488 29.2501C100.954 29.2501 100.467 29.1184 100.028 28.855C99.5968 28.5916 99.2565 28.2222 99.0078 27.7466C98.759 27.271 98.6346 26.7296 98.6346 26.1223ZM103.727 26.1333C103.727 25.6796 103.636 25.2846 103.453 24.948C103.27 24.6114 103.021 24.3553 102.706 24.1797C102.399 23.9968 102.059 23.9054 101.686 23.9054C101.312 23.9054 100.972 23.9932 100.665 24.1688C100.358 24.3444 100.113 24.6005 99.9297 24.937C99.7467 25.2736 99.6553 25.6687 99.6553 26.1223C99.6553 26.5832 99.7467 26.9857 99.9297 27.3295C100.113 27.6661 100.358 27.9258 100.665 28.1088C100.972 28.2844 101.312 28.3722 101.686 28.3722C102.059 28.3722 102.399 28.2844 102.706 28.1088C103.021 27.9258 103.27 27.6661 103.453 27.3295C103.636 26.9857 103.727 26.5869 103.727 26.1333Z" fill="#272727"/>
<path d="M172.879 24.7065V25.5516H164.834V24.7065H172.879ZM182.837 21.5019L180.346 26.265V29.1514H179.347V26.265L176.845 21.5019H177.953L179.841 25.376L181.728 21.5019H182.837ZM186.513 29.2501C185.95 29.2501 185.438 29.1221 184.977 28.866C184.523 28.6099 184.165 28.2478 183.901 27.7795C183.645 27.3039 183.517 26.7552 183.517 26.1333C183.517 25.5187 183.649 24.9773 183.912 24.509C184.183 24.0334 184.549 23.6712 185.01 23.4225C185.471 23.1664 185.987 23.0384 186.557 23.0384C187.128 23.0384 187.644 23.1664 188.105 23.4225C188.566 23.6712 188.928 24.0298 189.191 24.498C189.462 24.9663 189.597 25.5114 189.597 26.1333C189.597 26.7552 189.458 27.3039 189.18 27.7795C188.91 28.2478 188.54 28.6099 188.072 28.866C187.603 29.1221 187.084 29.2501 186.513 29.2501ZM186.513 28.3722C186.872 28.3722 187.208 28.288 187.523 28.1197C187.838 27.9514 188.09 27.699 188.28 27.3625C188.478 27.0259 188.577 26.6162 188.577 26.1333C188.577 25.6504 188.481 25.2407 188.291 24.9041C188.101 24.5675 187.852 24.3188 187.545 24.1578C187.238 23.9895 186.905 23.9054 186.546 23.9054C186.18 23.9054 185.844 23.9895 185.537 24.1578C185.237 24.3188 184.995 24.5675 184.812 24.9041C184.629 25.2407 184.538 25.6504 184.538 26.1333C184.538 26.6235 184.626 27.0369 184.801 27.3734C184.984 27.71 185.226 27.9624 185.526 28.1307C185.826 28.2917 186.155 28.3722 186.513 28.3722ZM196.244 23.1371V29.1514H195.245V28.2624C195.055 28.5697 194.788 28.8111 194.444 28.9867C194.108 29.155 193.735 29.2392 193.325 29.2392C192.857 29.2392 192.436 29.1441 192.063 28.9538C191.69 28.7563 191.393 28.4636 191.174 28.0758C190.962 27.6881 190.856 27.2161 190.856 26.6601V23.1371H191.843V26.5284C191.843 27.121 191.993 27.5783 192.293 27.9002C192.593 28.2148 193.003 28.3722 193.522 28.3722C194.057 28.3722 194.477 28.2075 194.785 27.8783C195.092 27.549 195.245 27.0698 195.245 26.4406V23.1371H196.244ZM198.929 24.1139C199.105 23.77 199.354 23.503 199.675 23.3127C200.005 23.1225 200.403 23.0274 200.872 23.0274V24.059H200.608C199.489 24.059 198.929 24.6663 198.929 25.8809V29.1514H197.93V23.1371H198.929V24.1139ZM205.949 22.314V24.8712H208.737V25.6943H205.949V28.3283H209.066V29.1514H204.951V21.4909H209.066V22.314H205.949ZM210.204 26.1223C210.204 25.5077 210.329 24.9699 210.577 24.509C210.826 24.0407 211.166 23.6786 211.598 23.4225C212.037 23.1664 212.527 23.0384 213.069 23.0384C213.537 23.0384 213.972 23.1481 214.375 23.3676C214.777 23.5798 215.084 23.8615 215.296 24.2127V21.03H216.306V29.1514H215.296V28.021C215.099 28.3795 214.806 28.6758 214.418 28.9099C214.031 29.1367 213.577 29.2501 213.058 29.2501C212.523 29.2501 212.037 29.1184 211.598 28.855C211.166 28.5916 210.826 28.2222 210.577 27.7466C210.329 27.271 210.204 26.7296 210.204 26.1223ZM215.296 26.1333C215.296 25.6796 215.205 25.2846 215.022 24.948C214.839 24.6114 214.59 24.3553 214.276 24.1797C213.969 23.9968 213.628 23.9054 213.255 23.9054C212.882 23.9054 212.542 23.9932 212.234 24.1688C211.927 24.3444 211.682 24.6005 211.499 24.937C211.316 25.2736 211.225 25.6687 211.225 26.1223C211.225 26.5832 211.316 26.9857 211.499 27.3295C211.682 27.6661 211.927 27.9258 212.234 28.1088C212.542 28.2844 212.882 28.3722 213.255 28.3722C213.628 28.3722 213.969 28.2844 214.276 28.1088C214.59 27.9258 214.839 27.6661 215.022 27.3295C215.205 26.9857 215.296 26.5869 215.296 26.1333ZM220.474 23.0384C220.994 23.0384 221.447 23.1518 221.835 23.3786C222.23 23.6054 222.523 23.8907 222.713 24.2346V23.1371H223.723V29.2831C223.723 29.8318 223.606 30.3184 223.372 30.7427C223.137 31.1744 222.801 31.511 222.362 31.7524C221.93 31.9939 221.425 32.1146 220.847 32.1146C220.057 32.1146 219.399 31.928 218.872 31.5549C218.345 31.1817 218.034 30.6732 217.939 30.0294H218.927C219.037 30.3952 219.263 30.6878 219.607 30.9073C219.951 31.1342 220.364 31.2476 220.847 31.2476C221.396 31.2476 221.842 31.0756 222.186 30.7317C222.537 30.3879 222.713 29.905 222.713 29.2831V28.021C222.516 28.3722 222.223 28.6648 221.835 28.8989C221.447 29.1331 220.994 29.2501 220.474 29.2501C219.94 29.2501 219.454 29.1184 219.015 28.855C218.583 28.5916 218.243 28.2222 217.994 27.7466C217.745 27.271 217.621 26.7296 217.621 26.1223C217.621 25.5077 217.745 24.9699 217.994 24.509C218.243 24.0407 218.583 23.6786 219.015 23.4225C219.454 23.1664 219.94 23.0384 220.474 23.0384ZM222.713 26.1333C222.713 25.6796 222.622 25.2846 222.439 24.948C222.256 24.6114 222.007 24.3553 221.692 24.1797C221.385 23.9968 221.045 23.9054 220.672 23.9054C220.299 23.9054 219.958 23.9932 219.651 24.1688C219.344 24.3444 219.099 24.6005 218.916 24.937C218.733 25.2736 218.641 25.6687 218.641 26.1223C218.641 26.5832 218.733 26.9857 218.916 27.3295C219.099 27.6661 219.344 27.9258 219.651 28.1088C219.958 28.2844 220.299 28.3722 220.672 28.3722C221.045 28.3722 221.385 28.2844 221.692 28.1088C222.007 27.9258 222.256 27.6661 222.439 27.3295C222.622 26.9857 222.713 26.5869 222.713 26.1333ZM230.898 25.9138C230.898 26.104 230.887 26.3052 230.865 26.5174H226.058C226.095 27.11 226.296 27.5746 226.662 27.9112C227.035 28.2405 227.485 28.4051 228.012 28.4051C228.443 28.4051 228.802 28.3063 229.087 28.1088C229.38 27.9039 229.585 27.6332 229.702 27.2966H230.777C230.616 27.8746 230.294 28.3465 229.811 28.7124C229.329 29.0709 228.729 29.2501 228.012 29.2501C227.441 29.2501 226.929 29.1221 226.475 28.866C226.029 28.6099 225.678 28.2478 225.421 27.7795C225.165 27.3039 225.037 26.7552 225.037 26.1333C225.037 25.5114 225.162 24.9663 225.411 24.498C225.659 24.0298 226.007 23.6712 226.453 23.4225C226.907 23.1664 227.426 23.0384 228.012 23.0384C228.582 23.0384 229.087 23.1627 229.526 23.4115C229.965 23.6603 230.302 24.0042 230.536 24.4431C230.777 24.8748 230.898 25.365 230.898 25.9138ZM229.866 25.7053C229.866 25.3248 229.782 24.9992 229.614 24.7285C229.446 24.4505 229.215 24.2419 228.922 24.1029C228.637 23.9566 228.319 23.8834 227.968 23.8834C227.463 23.8834 227.031 24.0444 226.673 24.3663C226.321 24.6883 226.12 25.1346 226.069 25.7053H229.866ZM237.568 29.2282C237.063 29.2282 236.609 29.1404 236.207 28.9648C235.812 28.7819 235.501 28.5331 235.274 28.2185C235.047 27.8966 234.93 27.5271 234.923 27.11H235.987C236.024 27.4686 236.17 27.7722 236.426 28.021C236.69 28.2624 237.07 28.3831 237.568 28.3831C238.043 28.3831 238.416 28.2661 238.687 28.0319C238.965 27.7905 239.104 27.4832 239.104 27.11C239.104 26.8174 239.024 26.5796 238.863 26.3967C238.702 26.2138 238.5 26.0747 238.259 25.9796C238.018 25.8845 237.692 25.7821 237.282 25.6723C236.777 25.5406 236.371 25.4089 236.064 25.2772C235.764 25.1455 235.504 24.9407 235.285 24.6626C235.073 24.3773 234.967 23.9968 234.967 23.5213C234.967 23.1042 235.073 22.7347 235.285 22.4128C235.497 22.0909 235.793 21.8421 236.174 21.6665C236.562 21.4909 237.004 21.4031 237.502 21.4031C238.219 21.4031 238.804 21.5824 239.258 21.9409C239.719 22.2994 239.978 22.775 240.037 23.3676H238.939C238.903 23.0749 238.749 22.8189 238.479 22.5994C238.208 22.3726 237.849 22.2591 237.403 22.2591C236.986 22.2591 236.646 22.3689 236.382 22.5884C236.119 22.8006 235.987 23.1006 235.987 23.4883C235.987 23.7664 236.064 23.9932 236.218 24.1688C236.379 24.3444 236.573 24.4797 236.799 24.5748C237.033 24.6626 237.359 24.7651 237.776 24.8821C238.281 25.0212 238.687 25.1602 238.994 25.2992C239.302 25.4309 239.565 25.6394 239.785 25.9248C240.004 26.2028 240.114 26.5832 240.114 27.0661C240.114 27.4393 240.015 27.7905 239.817 28.1197C239.62 28.449 239.327 28.716 238.939 28.9209C238.552 29.1258 238.094 29.2282 237.568 29.2282ZM242.802 23.9603V27.5051C242.802 27.7978 242.864 28.0063 242.988 28.1307C243.113 28.2478 243.328 28.3063 243.636 28.3063H244.371V29.1514H243.471C242.915 29.1514 242.498 29.0233 242.22 28.7672C241.942 28.5112 241.803 28.0905 241.803 27.5051V23.9603H241.024V23.1371H241.803V21.6226H242.802V23.1371H244.371V23.9603H242.802ZM245.208 26.1223C245.208 25.5077 245.332 24.9699 245.581 24.509C245.83 24.0407 246.17 23.6786 246.602 23.4225C247.041 23.1664 247.527 23.0384 248.061 23.0384C248.588 23.0384 249.046 23.1518 249.433 23.3786C249.821 23.6054 250.11 23.8907 250.3 24.2346V23.1371H251.31V29.1514H250.3V28.0319C250.103 28.3831 249.806 28.6758 249.411 28.9099C249.024 29.1367 248.57 29.2501 248.05 29.2501C247.516 29.2501 247.033 29.1184 246.602 28.855C246.17 28.5916 245.83 28.2222 245.581 27.7466C245.332 27.271 245.208 26.7296 245.208 26.1223ZM250.3 26.1333C250.3 25.6796 250.209 25.2846 250.026 24.948C249.843 24.6114 249.594 24.3553 249.28 24.1797C248.972 23.9968 248.632 23.9054 248.259 23.9054C247.886 23.9054 247.546 23.9932 247.238 24.1688C246.931 24.3444 246.686 24.6005 246.503 24.937C246.32 25.2736 246.229 25.6687 246.229 26.1223C246.229 26.5832 246.32 26.9857 246.503 27.3295C246.686 27.6661 246.931 27.9258 247.238 28.1088C247.546 28.2844 247.886 28.3722 248.259 28.3722C248.632 28.3722 248.972 28.2844 249.28 28.1088C249.594 27.9258 249.843 27.6661 250.026 27.3295C250.209 26.9857 250.3 26.5869 250.3 26.1333ZM253.996 24.1139C254.172 23.77 254.421 23.503 254.743 23.3127C255.072 23.1225 255.471 23.0274 255.939 23.0274V24.059H255.676C254.556 24.059 253.996 24.6663 253.996 25.8809V29.1514H252.998V23.1371H253.996V24.1139ZM258.31 23.9603V27.5051C258.31 27.7978 258.372 28.0063 258.497 28.1307C258.621 28.2478 258.837 28.3063 259.144 28.3063H259.88V29.1514H258.98C258.424 29.1514 258.006 29.0233 257.728 28.7672C257.45 28.5112 257.311 28.0905 257.311 27.5051V23.9603H256.532V23.1371H257.311V21.6226H258.31V23.1371H259.88V23.9603H258.31ZM263.219 29.2501C262.758 29.2501 262.344 29.1733 261.979 29.0197C261.613 28.8587 261.324 28.6392 261.112 28.3612C260.899 28.0758 260.782 27.7502 260.76 27.3844H261.792C261.821 27.6844 261.96 27.9295 262.209 28.1197C262.465 28.31 262.798 28.4051 263.208 28.4051C263.588 28.4051 263.888 28.3209 264.108 28.1527C264.327 27.9844 264.437 27.7722 264.437 27.5161C264.437 27.2527 264.32 27.0588 264.086 26.9344C263.852 26.8027 263.489 26.6747 262.999 26.5503C262.553 26.4333 262.187 26.3162 261.902 26.1991C261.624 26.0747 261.382 25.8955 261.177 25.6614C260.98 25.4199 260.881 25.1053 260.881 24.7175C260.881 24.4102 260.973 24.1285 261.155 23.8725C261.338 23.6164 261.598 23.4152 261.935 23.2688C262.271 23.1152 262.655 23.0384 263.087 23.0384C263.753 23.0384 264.291 23.2066 264.7 23.5432C265.11 23.8798 265.33 24.3407 265.359 24.926H264.36C264.338 24.6114 264.21 24.359 263.976 24.1688C263.749 23.9785 263.442 23.8834 263.054 23.8834C262.696 23.8834 262.41 23.9603 262.198 24.1139C261.986 24.2675 261.88 24.4688 261.88 24.7175C261.88 24.9151 261.942 25.0797 262.066 25.2114C262.198 25.3358 262.359 25.4382 262.549 25.5187C262.747 25.5918 263.017 25.676 263.361 25.7711C263.793 25.8882 264.144 26.0052 264.415 26.1223C264.686 26.2321 264.916 26.4003 265.106 26.6271C265.304 26.854 265.406 27.1503 265.414 27.5161C265.414 27.8454 265.322 28.1417 265.139 28.4051C264.956 28.6685 264.697 28.877 264.36 29.0306C264.031 29.177 263.65 29.2501 263.219 29.2501ZM275.643 21.5019V29.1514H274.644V25.6833H270.748V29.1514H269.749V21.5019H270.748V24.8602H274.644V21.5019H275.643ZM282.836 25.9138C282.836 26.104 282.825 26.3052 282.803 26.5174H277.996C278.032 27.11 278.234 27.5746 278.599 27.9112C278.973 28.2405 279.422 28.4051 279.949 28.4051C280.381 28.4051 280.739 28.3063 281.025 28.1088C281.317 27.9039 281.522 27.6332 281.639 27.2966H282.715C282.554 27.8746 282.232 28.3465 281.749 28.7124C281.266 29.0709 280.666 29.2501 279.949 29.2501C279.379 29.2501 278.866 29.1221 278.413 28.866C277.966 28.6099 277.615 28.2478 277.359 27.7795C277.103 27.3039 276.975 26.7552 276.975 26.1333C276.975 25.5114 277.099 24.9663 277.348 24.498C277.597 24.0298 277.945 23.6712 278.391 23.4225C278.844 23.1664 279.364 23.0384 279.949 23.0384C280.52 23.0384 281.025 23.1627 281.464 23.4115C281.903 23.6603 282.239 24.0042 282.474 24.4431C282.715 24.8748 282.836 25.365 282.836 25.9138ZM281.804 25.7053C281.804 25.3248 281.72 24.9992 281.552 24.7285C281.383 24.4505 281.153 24.2419 280.86 24.1029C280.575 23.9566 280.257 23.8834 279.905 23.8834C279.401 23.8834 278.969 24.0444 278.61 24.3663C278.259 24.6883 278.058 25.1346 278.007 25.7053H281.804ZM285.153 24.1139C285.328 23.77 285.577 23.503 285.899 23.3127C286.228 23.1225 286.627 23.0274 287.095 23.0274V24.059H286.832C285.712 24.059 285.153 24.6663 285.153 25.8809V29.1514H284.154V23.1371H285.153V24.1139ZM293.736 25.9138C293.736 26.104 293.725 26.3052 293.703 26.5174H288.896C288.932 27.11 289.133 27.5746 289.499 27.9112C289.872 28.2405 290.322 28.4051 290.849 28.4051C291.281 28.4051 291.639 28.3063 291.925 28.1088C292.217 27.9039 292.422 27.6332 292.539 27.2966H293.615C293.454 27.8746 293.132 28.3465 292.649 28.7124C292.166 29.0709 291.566 29.2501 290.849 29.2501C290.278 29.2501 289.766 29.1221 289.313 28.866C288.866 28.6099 288.515 28.2478 288.259 27.7795C288.003 27.3039 287.875 26.7552 287.875 26.1333C287.875 25.5114 287.999 24.9663 288.248 24.498C288.497 24.0298 288.844 23.6712 289.291 23.4225C289.744 23.1664 290.264 23.0384 290.849 23.0384C291.42 23.0384 291.925 23.1627 292.364 23.4115C292.803 23.6603 293.139 24.0042 293.373 24.4431C293.615 24.8748 293.736 25.365 293.736 25.9138ZM292.704 25.7053C292.704 25.3248 292.62 24.9992 292.451 24.7285C292.283 24.4505 292.053 24.2419 291.76 24.1029C291.475 23.9566 291.156 23.8834 290.805 23.8834C290.3 23.8834 289.869 24.0444 289.51 24.3663C289.159 24.6883 288.958 25.1346 288.907 25.7053H292.704Z" fill="#272727"/>
<path d="M121.371 20.6599C121.158 20.5184 120.922 20.4463 120.669 20.4463H112.524V23.0126H117.784L112.771 28.5919C112.607 28.775 112.501 28.9942 112.463 29.2384C112.421 29.4936 112.454 29.7433 112.565 29.9708C112.668 30.1983 112.826 30.3814 113.037 30.5229C113.251 30.6644 113.486 30.7365 113.739 30.7365H121.871V28.1702H116.619L121.61 22.602C121.785 22.4189 121.896 22.1969 121.934 21.9389C121.973 21.692 121.943 21.4478 121.84 21.212C121.737 20.9845 121.579 20.8014 121.368 20.6599H121.371Z" fill="#272727"/>
<path d="M123.307 20.5483C123.149 20.6121 123.007 20.712 122.894 20.8313C122.777 20.9478 122.688 21.0865 122.624 21.2419C122.561 21.4 122.527 21.5665 122.527 21.7413V27.906C122.527 28.4192 122.624 28.8604 122.819 29.2266C123.007 29.5817 123.246 29.8758 123.529 30.1061C123.812 30.3336 124.123 30.4945 124.453 30.5944C124.775 30.6887 125.074 30.7359 125.352 30.7359H131.946V28.1695H125.366C125.263 28.1695 125.182 28.1529 125.146 28.1196C125.099 28.0724 125.096 27.967 125.096 27.9088V26.8822H131.178V24.3048H125.096V23.0175H131.946V20.4512H123.817C123.637 20.4512 123.468 20.4845 123.312 20.5483V20.5427L123.307 20.5483Z" fill="#272727"/>
<path d="M142.079 25.6737C141.913 25.4351 141.721 25.2243 141.502 25.055C141.291 24.8886 141.069 24.7471 140.836 24.6361C140.606 24.5279 140.37 24.4447 140.132 24.3919C139.901 24.342 139.674 24.3115 139.438 24.3059H135.504C135.202 24.3059 135.091 24.1894 135.055 24.1533C134.952 24.0451 134.902 23.887 134.902 23.6706C134.902 23.4542 134.952 23.2933 135.06 23.1795C135.124 23.1102 135.235 23.0214 135.504 23.0214H141.752V20.4551H135.504C135.188 20.4551 134.841 20.5106 134.483 20.6215C134.111 20.7381 133.764 20.924 133.448 21.1764C133.126 21.4317 132.863 21.7701 132.652 22.1724C132.438 22.583 132.33 23.088 132.33 23.6678C132.33 24.2477 132.438 24.7498 132.652 25.1632C132.863 25.5683 133.126 25.9068 133.448 26.1648C133.762 26.4173 134.111 26.6004 134.477 26.7169C134.835 26.8279 135.179 26.8834 135.498 26.8834H139.433C139.535 26.8834 139.624 26.9 139.702 26.9305C139.774 26.961 139.829 26.9999 139.876 27.0498C139.926 27.1053 139.965 27.1691 139.996 27.2468C140.026 27.3273 140.043 27.4271 140.043 27.5326C140.043 27.7462 139.993 27.9043 139.885 28.0153C139.851 28.0542 139.74 28.1679 139.433 28.1679H132.411V30.7342H139.433C139.646 30.7342 139.874 30.7092 140.109 30.6621C140.348 30.6121 140.584 30.5345 140.814 30.4263C141.044 30.3181 141.266 30.1877 141.48 30.0212C141.702 29.8492 141.899 29.6411 142.065 29.397C142.229 29.1584 142.36 28.8809 142.459 28.573C142.557 28.2595 142.609 27.9154 142.609 27.5326C142.609 27.1497 142.562 26.8057 142.465 26.4977C142.371 26.1898 142.235 25.9123 142.071 25.6737H142.079Z" fill="#272727"/>
<path d="M142.352 23.0119H146.128V30.7331H148.694V23.0119H152.461V20.4512H142.354V23.0119H142.352Z" fill="#272727"/>
<path d="M157.407 17.4252V15.1113H155.021V17.4252H152.699V19.8195H155.021V22.1333H157.407V19.8195H159.721V17.4252H157.407Z" fill="#272727"/>
<defs>
<filter id="filter0_d_2357_62" x="0.444444" y="0" width="343.111" height="59.4529" filterUnits="userSpaceOnUse" color-interpolation-filters="sRGB">
<feFlood flood-opacity="0" result="BackgroundImageFix"/>
<feColorMatrix in="SourceAlpha" type="matrix" values="0 0 0 0 0 0 0 0 0 0 0 0 0 0 0 0 0 0 127 0" result="hardAlpha"/>
<feOffset dy="3.55556"/>
<feGaussianBlur stdDeviation="1.77778"/>
<feComposite in2="hardAlpha" operator="out"/>
<feColorMatrix type="matrix" values="0 0 0 0 0 0 0 0 0 0 0 0 0 0 0 0 0 0 0.25 0"/>
<feBlend mode="normal" in2="BackgroundImageFix" result="effect1_dropShadow_2357_62"/>
<feBlend mode="normal" in="SourceGraphic" in2="effect1_dropShadow_2357_62" result="shape"/>
</filter>
<linearGradient id="paint0_linear_2357_62" x1="4" y1="26.1709" x2="340" y2="26.1709" gradientUnits="userSpaceOnUse">
<stop stop-color="#A2FF00"/>
<stop offset="1" stop-color="#00FF7F"/>
</linearGradient>
</defs>
</svg>
