<svg width="162" height="205" viewBox="0 0 162 205" fill="none" xmlns="http://www.w3.org/2000/svg">
<g clip-path="url(#clip0_2077_1494)">
<path d="M202.46 147.994V201.994C190.075 203.927 176.916 205.001 163.284 205.001C92.0275 205.001 34.2739 176.433 34.2739 141.163C34.2739 116.247 63.2152 94.6383 105.359 84.1562C90.7374 91.4593 81.6637 101.512 81.6637 112.595C81.6637 134.891 118.174 152.977 163.241 152.977C177.432 152.977 190.806 151.173 202.417 148.037L202.46 147.994Z" fill="#323232"/>
<path d="M0 51.2483V-2.75163C12.385 -4.68481 25.544 -5.75879 39.1761 -5.75879C110.433 -5.75879 168.186 22.8092 168.186 58.0788C168.186 82.9952 139.245 104.604 97.1017 115.086C111.723 107.783 120.797 97.7303 120.797 86.6468C120.797 64.3509 84.2867 46.265 39.2191 46.265C25.028 46.265 11.6539 48.0693 0.0430034 51.2053L0 51.2483Z" fill="#323232"/>
</g>
<defs>
<clipPath id="clip0_2077_1494">
<rect width="162" height="205" fill="white"/>
</clipPath>
</defs>
</svg>
