<svg width="430" height="847" viewBox="0 0 430 847" fill="none" xmlns="http://www.w3.org/2000/svg">
<path d="M668.614 617.963V834.904C618.961 842.756 566.063 847 511.275 847C225.258 847 -6.66333 732.165 -6.66333 590.516C-6.66333 490.307 109.537 403.459 278.795 361.388C220.017 390.729 183.642 431.174 183.642 475.683C183.642 565.328 330.256 637.914 511.169 637.914C568.245 637.914 621.862 630.692 668.533 618.053L668.614 617.963Z" fill="#2F2F2F"/>
<path d="M-144.152 229.037V12.0963C-94.4998 4.24146 -41.6014 0 13.2126 0C299.203 0 531.125 114.835 531.125 256.482C531.125 356.693 414.951 443.541 245.666 485.612C304.445 456.271 340.82 415.826 340.82 371.317C340.82 281.669 194.205 209.086 13.2926 209.086C-43.7569 209.086 -97.3999 216.308 -144.072 228.947L-144.152 229.037Z" fill="#2F2F2F"/>
</svg>
