<svg width="205" height="69" viewBox="0 0 205 69" fill="none" xmlns="http://www.w3.org/2000/svg">
<path d="M95.2891 46.3882L101.499 68.331H138.103V56.74L114.477 34.862L137.703 44.3226L133.562 22.3798H95.2891V33.9709L120.369 55.8489L95.2891 46.3882Z" fill="#A2FF00"/>
<path d="M42.817 46.3882L36.6066 68.331H0V56.74L23.626 34.862L0.396043 44.3226L4.53742 22.3798H42.817V33.9709L17.7366 55.8489L42.817 46.3882Z" fill="#A2FF00"/>
<path d="M47.6445 68.331V22.3798H90.4615V33.9709H69.0547V39.4575H89.3827V50.9803H69.0547V56.74H90.4615V68.331H47.6445Z" fill="#A2FF00"/>
<path d="M151.746 68.331V38.1089H140.359V22.3798H183.176V38.1123H171.79V68.3344H151.746V68.331Z" fill="#A2FF00"/>
<path d="M205 7.66479V18.2214H197.339V25.8794H186.785V18.2214H179.121V7.66479H186.785V0H197.339V7.66479H205Z" fill="#F3EF48"/>
</svg>
