<svg width="128" height="33" viewBox="0 0 128 33" fill="none" xmlns="http://www.w3.org/2000/svg">
<path d="M25.3965 25.7691V32.5499C23.8429 32.7926 22.1922 32.9275 20.4821 32.9275C11.5436 32.9275 4.29883 29.3402 4.29883 24.9113C4.29883 21.7826 7.92929 19.0692 13.2158 17.7529C11.3817 18.67 10.2435 19.9323 10.2435 21.324C10.2435 24.1238 14.8234 26.3948 20.4767 26.3948C22.2569 26.3948 23.9346 26.1683 25.3911 25.7745L25.3965 25.7691Z" fill="#A4FC32"/>
<path d="M0 13.6213V6.8405C1.5536 6.59775 3.2043 6.46289 4.91433 6.46289C13.8529 6.46289 21.0976 10.0502 21.0976 14.479C21.0976 17.6078 17.4672 20.3212 12.1806 21.6374C14.0148 20.7204 15.153 19.4581 15.153 18.0663C15.153 15.2666 10.5731 12.9956 4.91973 12.9956C3.13956 12.9956 1.46189 13.2221 0.00539444 13.6159L0 13.6213Z" fill="#A4FC32"/>
<path d="M53.1027 10.7894C52.6873 10.5143 52.2288 10.374 51.7379 10.374H35.8998V15.3639H46.1277L36.3853 26.2121C36.067 26.5681 35.8621 26.9943 35.7865 27.469C35.7056 27.9653 35.7703 28.4508 35.9861 28.8931C36.1857 29.3355 36.4932 29.6915 36.9032 29.9666C37.3186 30.2417 37.7771 30.382 38.268 30.382H54.0791V25.3921H43.8674L53.572 14.5655C53.9118 14.2095 54.1276 13.7779 54.2031 13.2762C54.2787 12.7961 54.2193 12.3214 54.0197 11.8629C53.8201 11.4205 53.5127 11.0645 53.1027 10.7894Z" fill="#A4FC32"/>
<path d="M56.8684 10.5726C56.5609 10.6967 56.2858 10.8909 56.0646 11.1228C55.838 11.3494 55.6654 11.6191 55.5413 11.9212C55.4173 12.2287 55.3525 12.5524 55.3525 12.8922V24.8786C55.3525 25.8766 55.5413 26.7343 55.919 27.4464C56.2858 28.1369 56.7497 28.7087 57.2999 29.1564C57.8502 29.5988 58.4543 29.9117 59.0963 30.1059C59.722 30.2893 60.3046 30.381 60.8441 30.381H73.6667V25.3911H60.871C60.6715 25.3911 60.515 25.3588 60.4449 25.294C60.3532 25.2023 60.3478 24.9973 60.3478 24.884V22.8881H72.1724V17.8767H60.3478V15.3736H73.6667V10.3838H57.861C57.5103 10.3838 57.1813 10.4485 56.8792 10.5726V10.5618L56.8684 10.5726Z" fill="#A4FC32"/>
<path d="M93.3672 20.5366C93.0435 20.0727 92.6713 19.6627 92.2451 19.3336C91.8352 19.01 91.4036 18.7348 90.9505 18.5191C90.5027 18.3087 90.0442 18.1469 89.5803 18.0444C89.1326 17.9473 88.6902 17.8879 88.2317 17.8771H80.5824C79.9944 17.8771 79.7786 17.6506 79.7085 17.5804C79.5089 17.3701 79.4118 17.0626 79.4118 16.6418C79.4118 16.221 79.5089 15.9082 79.7193 15.687C79.8433 15.5521 80.0591 15.3795 80.5824 15.3795H92.7306V10.3896H80.5824C79.9674 10.3896 79.2931 10.4975 78.5972 10.7133C77.8744 10.9399 77.2001 11.3013 76.5851 11.7922C75.9593 12.2885 75.4469 12.9466 75.0369 13.7288C74.6215 14.5272 74.4111 15.509 74.4111 16.6364C74.4111 17.7638 74.6215 18.7402 75.0369 19.544C75.4469 20.3316 75.9593 20.9897 76.5851 21.4914C77.1947 21.9823 77.8744 22.3383 78.5864 22.5649C79.2823 22.7807 79.9512 22.8886 80.5716 22.8886H88.2209C88.4205 22.8886 88.5931 22.9209 88.7442 22.9803C88.8844 23.0396 88.9923 23.1151 89.084 23.2122C89.1811 23.3201 89.2566 23.4442 89.316 23.5952C89.3753 23.7517 89.4077 23.9459 89.4077 24.1509C89.4077 24.5662 89.3106 24.8737 89.1002 25.0895C89.0355 25.165 88.8197 25.3862 88.2209 25.3862H74.5676V30.376H88.2209C88.6363 30.376 89.0786 30.3275 89.5371 30.2358C90.0011 30.1387 90.4596 29.9876 90.9073 29.7773C91.3551 29.5669 91.7866 29.3133 92.202 28.9897C92.6335 28.6552 93.0165 28.2506 93.3402 27.7759C93.6585 27.312 93.912 26.7726 94.1062 26.1738C94.295 25.5642 94.3975 24.8953 94.3975 24.1509C94.3975 23.4064 94.3058 22.7375 94.117 22.1387C93.9336 21.54 93.6693 21.0005 93.351 20.5366H93.3672Z" fill="#A4FC32"/>
<path d="M93.8955 15.3629H101.237V30.3756H106.227V15.3629H113.553V10.3838H93.9009V15.3629H93.8955Z" fill="#A4FC32"/>
<path d="M123.172 4.49896V0H118.533V4.49896H114.018V9.15436H118.533V13.6533H123.172V9.15436H127.671V4.49896H123.172Z" fill="#A4FC32"/>
</svg>
