<svg width="56" height="19" viewBox="0 0 56 19" fill="none" xmlns="http://www.w3.org/2000/svg">
<path d="M10.5729 6.57238C10.3199 6.40478 10.0405 6.31934 9.74146 6.31934H0.0927692V9.3592H6.32367L0.385253 15.968C0.191359 16.1849 0.0664785 16.4445 0.0204697 16.7337C-0.0288254 17.0361 0.0106107 17.3319 0.142064 17.6013C0.263659 17.8708 0.45098 18.0877 0.700742 18.2553C0.95379 18.4229 1.23313 18.5084 1.53219 18.5084H11.1644V15.4685H4.94341L10.8555 8.87282C11.0626 8.65592 11.194 8.39302 11.24 8.08739C11.286 7.7949 11.2499 7.5057 11.1283 7.22637C11.0067 6.95689 10.8194 6.73999 10.5696 6.57238H10.5729Z" fill="#272727"/>
<path d="M12.8668 6.44119C12.6795 6.51678 12.5119 6.63509 12.3772 6.7764C12.2391 6.91443 12.134 7.07874 12.0584 7.26278C11.9828 7.4501 11.9434 7.64728 11.9434 7.85432V15.1566C11.9434 15.7645 12.0584 16.2871 12.2884 16.7209C12.5119 17.1415 12.7945 17.4899 13.1297 17.7626C13.4649 18.0321 13.833 18.2227 14.2241 18.341C14.6053 18.4528 14.9602 18.5086 15.2889 18.5086H23.1005V15.4688H15.3053C15.1837 15.4688 15.0884 15.449 15.0457 15.4096C14.9898 15.3537 14.9865 15.2289 14.9865 15.1599V13.9439H22.1902V10.8909H14.9865V9.36604H23.1005V6.32617H13.4715C13.2579 6.32617 13.0574 6.36561 12.8734 6.44119V6.43462L12.8668 6.44119Z" fill="#272727"/>
<path d="M35.1019 12.5107C34.9047 12.2281 34.678 11.9783 34.4184 11.7779C34.1686 11.5807 33.9057 11.4131 33.6296 11.2816C33.3569 11.1534 33.0775 11.0549 32.7949 10.9924C32.5221 10.9333 32.2527 10.8971 31.9733 10.8905H27.3133C26.9551 10.8905 26.8236 10.7525 26.7809 10.7098C26.6593 10.5816 26.6001 10.3943 26.6001 10.138C26.6001 9.88163 26.6593 9.69103 26.7875 9.55629C26.8631 9.47413 26.9945 9.36897 27.3133 9.36897H34.7141V6.3291H27.3133C26.9386 6.3291 26.5278 6.39483 26.1039 6.52628C25.6635 6.66431 25.2527 6.88449 24.8781 7.18355C24.4969 7.48589 24.1847 7.88683 23.9349 8.36335C23.6819 8.84972 23.5537 9.44784 23.5537 10.1347C23.5537 10.8215 23.6819 11.4164 23.9349 11.906C24.1847 12.3858 24.4969 12.7868 24.8781 13.0924C25.2495 13.3914 25.6635 13.6083 26.0973 13.7464C26.5213 13.8778 26.9288 13.9435 27.3067 13.9435H31.9667C32.0883 13.9435 32.1935 13.9633 32.2855 13.9994C32.371 14.0356 32.4367 14.0816 32.4926 14.1407C32.5517 14.2065 32.5977 14.282 32.6339 14.3741C32.67 14.4694 32.6897 14.5877 32.6897 14.7126C32.6897 14.9656 32.6306 15.1529 32.5024 15.2844C32.463 15.3304 32.3315 15.4651 31.9667 15.4651H23.649V18.505H31.9667C32.2198 18.505 32.4893 18.4754 32.7686 18.4195C33.0512 18.3604 33.3306 18.2684 33.6033 18.1402C33.8761 18.012 34.139 17.8576 34.3921 17.6604C34.655 17.4566 34.8883 17.2102 35.0855 16.921C35.2794 16.6383 35.4338 16.3097 35.5521 15.9449C35.6672 15.5736 35.7296 15.1661 35.7296 14.7126C35.7296 14.259 35.6737 13.8515 35.5587 13.4867C35.447 13.122 35.2859 12.7933 35.092 12.5107H35.1019Z" fill="#272727"/>
<path d="M35.4238 9.35946H39.8965V18.5053H42.9364V9.35946H47.3992V6.32617H35.4271V9.35946H35.4238Z" fill="#272727"/>
<path d="M53.2595 2.74081V0H50.4333V2.74081H47.6826V5.57692H50.4333V8.31773H53.2595V5.57692H56.0003V2.74081H53.2595Z" fill="#272727"/>
</svg>
