<svg version="1.2" xmlns="http://www.w3.org/2000/svg" viewBox="0 0 50 50" width="50" height="50"><style>.a{fill:#fff}</style><path class="a" d="m48.9 29.9c-0.3 0.7-0.9 0.9-1.6 0.9-5.3 0-10.7 0-16 0-0.5 0-0.5 0.1-0.5 0.6 0 5.3-0.1 10.6 0 15.9 0 1.1-0.7 1.6-1.6 1.6-2.8 0-5.7 0-8.5 0-1.1 0-1.6-0.5-1.6-1.5q0-8.1 0.1-16.1c0-0.5-0.1-0.6-0.5-0.6-5.4 0.1-10.7 0-16.1 0-1 0.1-1.6-0.6-1.6-1.6q0.1-4.2 0-8.4c0-0.9 0.6-1.6 1.7-1.6 5.3 0.1 10.6 0 15.9 0.1 0.5 0 0.6-0.1 0.6-0.6 0-5.3 0-10.6 0-15.9 0-0.8 0.2-1.4 1-1.7q4.8 0 9.7 0c0.8 0.3 1.1 0.6 1.1 1.6q-0.1 7.8-0.1 15.5c0 0.9 0 0.9 0.9 0.9q7.6 0 15.2 0 0.2 0 0.5 0.1c0.9 0 1.2 0.2 1.4 1q0 4.9 0 9.8z"/></svg>