<svg width="20" height="20" viewBox="0 0 20 20" fill="none" xmlns="http://www.w3.org/2000/svg">
<path d="M19.2497 11.7518C19.1289 12.0222 18.9234 12.118 18.6261 12.1167C16.5958 12.1075 14.5662 12.1154 12.5359 12.1069C12.3469 12.1062 12.3187 12.162 12.3193 12.3327C12.3252 14.3689 12.316 16.4044 12.3292 18.4406C12.3318 18.8482 12.062 19.0491 11.7325 19.0445C10.6435 19.0287 9.55385 19.0386 8.46421 19.0386C8.07102 19.0386 7.88723 18.8554 7.88723 18.4629C7.88657 16.409 7.88526 14.3551 7.89117 12.3012C7.89182 12.143 7.85309 12.1075 7.69687 12.1075C5.65478 12.1134 3.61269 12.1043 1.57125 12.1174C1.16362 12.12 0.94832 11.8745 0.954228 11.4977C0.971951 10.4265 0.971294 9.35456 0.954228 8.28329C0.94832 7.92555 1.14984 7.66627 1.5765 7.6689C3.60612 7.68334 5.6364 7.67283 7.66667 7.6794C7.83734 7.68005 7.89314 7.65117 7.89248 7.46278C7.88395 5.43251 7.89117 3.40289 7.88263 1.37261C7.88132 1.07526 7.97781 0.870459 8.2476 0.749023C9.48624 0.749023 10.7242 0.749023 11.9629 0.749023C12.2799 0.832387 12.3764 0.965639 12.3764 1.33585C12.3777 3.31755 12.3771 5.29991 12.3771 7.28161C12.3771 7.62163 12.3771 7.62163 12.7171 7.62163C14.6456 7.62163 16.5735 7.62163 18.502 7.62163C18.5736 7.62163 18.6451 7.62098 18.716 7.62229C19.035 7.62951 19.1703 7.73454 19.249 8.03583C19.2497 9.27513 19.2497 10.5131 19.2497 11.7518Z" fill="white"/>
</svg>
