<svg width="19" height="19" viewBox="0 0 19 19" fill="none" xmlns="http://www.w3.org/2000/svg">
<path d="M13.4903 10.5938C13.0068 10.2907 12.4851 10.0645 11.9338 9.85133C14.6424 7.78987 14.8125 4.10089 12.7559 1.81923C10.7149 -0.444663 7.3059 -0.62179 5.03609 1.43482C3.96148 2.40876 3.35257 3.63734 3.26805 5.0872C3.15068 7.09321 3.96202 8.68627 5.5524 9.9084C5.50017 9.93478 5.46626 9.95416 5.43072 9.96924C3.87911 10.6255 2.6123 11.6398 1.63621 13.0111C0.553531 14.5315 0.0205339 16.2317 7.53889e-05 18.0945C-0.00423166 18.5053 0.176126 18.7922 0.511537 18.9268C1.11614 19.1702 1.71643 18.782 1.7202 18.1273C1.72666 17.0721 1.94417 16.0675 2.38133 15.1075C3.69714 12.217 6.92904 10.5308 10.0576 11.0971C10.9378 11.2565 11.7605 11.5585 12.525 12.0215C12.743 12.1534 12.9702 12.2466 13.2297 12.1766C13.5963 12.0781 13.8155 11.8293 13.8887 11.4659C13.9646 11.088 13.8128 10.7957 13.4903 10.5938ZM8.71054 9.18643C6.63669 9.19128 4.9731 7.53683 4.96825 5.4646C4.96395 3.39776 6.62862 1.72663 8.696 1.72394C10.765 1.7207 12.4329 3.38161 12.4383 5.44953C12.4431 7.52068 10.786 9.18159 8.71054 9.18643Z" fill="#292929"/>
<path d="M18.2408 15.7303C18.1514 16.0765 17.8687 16.3139 17.5043 16.343C17.417 16.35 17.3298 16.3467 17.2426 16.3473C16.7338 16.3521 16.2251 16.3564 15.7163 16.3607C15.6716 16.8679 15.7082 17.3761 15.6964 17.8838C15.6948 17.9511 15.6985 18.0184 15.6942 18.0852C15.6533 18.6984 15.0928 19.0602 14.5136 18.8481C14.1765 18.7242 13.9784 18.4421 13.9741 18.0556C13.9687 17.5522 13.9633 17.0483 13.9773 16.5454C13.9827 16.3694 13.9273 16.3349 13.7663 16.3435C13.5052 16.3575 13.243 16.3473 12.9813 16.3473C12.7127 16.3473 12.444 16.3521 12.1759 16.3462C11.7258 16.3365 11.4001 16.0216 11.3592 15.5645C11.3193 15.1241 11.6041 14.7375 12.0359 14.653C12.1339 14.6342 12.2357 14.6245 12.3353 14.6239C12.8053 14.6207 13.2758 14.6099 13.7447 14.6282C13.9488 14.6363 13.9827 14.5706 13.9773 14.3849C13.9633 13.909 13.9709 13.432 13.973 12.9555C13.9752 12.423 14.3375 12.0381 14.8333 12.0381C15.3281 12.0381 15.6921 12.422 15.6958 12.9549C15.6991 13.4384 15.7034 13.9219 15.6926 14.4048C15.6888 14.5717 15.7163 14.6342 15.9047 14.6282C16.4006 14.6115 16.898 14.6159 17.3944 14.6245C18.02 14.6358 18.3942 15.1311 18.2408 15.7303Z" fill="#292929"/>
</svg>
