<svg width="20" height="12" viewBox="0 0 20 12" fill="none" xmlns="http://www.w3.org/2000/svg">
<path d="M20.0004 1.9751C19.8884 2.33552 19.6338 2.59064 19.3757 2.84881C16.5385 5.69287 13.7049 8.54051 10.8693 11.3866C10.437 11.8207 9.92731 11.9122 9.45479 11.6443C9.34022 11.5793 9.24603 11.4894 9.15437 11.3968C6.23626 8.46791 3.31814 5.53899 0.400536 2.60853C-0.132576 2.07326 -0.133085 1.43676 0.396463 0.902504C0.612355 0.684713 0.822138 0.459765 1.05382 0.260891C1.46676 -0.0939131 2.05181 -0.0816431 2.46425 0.271627C2.53349 0.330933 2.59765 0.39586 2.66232 0.460277C5.05598 2.86262 7.45014 5.26445 9.83922 7.67139C9.9655 7.79869 10.0251 7.81863 10.1636 7.67906C12.57 5.25269 14.9835 2.83297 17.3955 0.41222C17.8486 -0.0427885 18.4637 -0.142993 18.8843 0.22357C19.3197 0.602914 19.7952 0.96232 19.9999 1.54412C20.0004 1.68778 20.0004 1.83144 20.0004 1.9751Z" fill="url(#paint0_linear_618_131)"/>
<defs>
<linearGradient id="paint0_linear_618_131" x1="10.0002" y1="0.000359535" x2="10.0002" y2="11.7949" gradientUnits="userSpaceOnUse">
<stop stop-color="#A2FF00"/>
<stop offset="1" stop-color="#00FF7F"/>
</linearGradient>
</defs>
</svg>
