<svg width="25" height="25" viewBox="0 0 25 25" fill="none" xmlns="http://www.w3.org/2000/svg">
<path d="M23.0468 21.0389C23.0464 17.7027 23.0473 9.32047 23.0459 5.98381C23.0454 4.97273 22.4963 4.20928 21.5689 3.97241C21.0276 3.83392 20.4668 3.92396 19.9152 3.90488C19.789 3.90047 19.8257 3.99444 19.8252 4.05855C19.8218 4.32673 19.8286 4.59541 19.8223 4.86408C19.8095 5.43765 19.3833 5.86342 18.8352 5.85656C18.2968 5.8502 17.8852 5.42835 17.872 4.86408C17.8662 4.61988 17.8549 4.37469 17.8755 4.13195C17.8931 3.92837 17.8118 3.89998 17.6332 3.90096C16.3148 3.9083 14.9964 3.91222 13.678 3.89803C13.4499 3.89558 13.4088 3.96654 13.4235 4.16768C13.4401 4.40259 13.4323 4.63945 13.4254 4.87534C13.4103 5.43667 12.9909 5.85607 12.4516 5.85656C11.9127 5.85705 11.4914 5.43716 11.4762 4.87681C11.4689 4.60862 11.4703 4.33994 11.4762 4.07127C11.4786 3.95724 11.4649 3.90047 11.3225 3.90145C9.95566 3.90732 8.58831 3.90683 7.22144 3.90194C7.09616 3.90145 7.07462 3.94696 7.07756 4.05708C7.08441 4.32526 7.08441 4.59443 7.07854 4.86261C7.06581 5.43667 6.64053 5.86244 6.09242 5.85656C5.55409 5.85069 5.14104 5.42933 5.12832 4.86555C5.12196 4.59687 5.12881 4.3282 5.12538 4.06001C5.1244 3.99688 5.16404 3.90047 5.0368 3.90488C4.49358 3.92592 3.94204 3.83294 3.40909 3.98024C2.50959 4.22934 1.96343 4.96049 1.95462 5.90942C1.94679 6.74725 1.95267 7.58558 1.95267 8.4239C1.95267 12.5984 1.95364 16.7729 1.95218 20.9479C1.95218 21.7926 2.2879 22.4391 3.0489 22.8384C3.33519 22.9886 3.64693 23.0444 3.967 23.0444C9.65567 23.0454 15.3438 23.0479 21.032 23.043C22.1752 23.042 22.9636 22.2663 23.0464 21.0942C23.0953 20.4003 23.6811 19.9701 24.3134 20.1644C24.7215 20.2897 24.9907 20.6577 24.9985 21.1006C25.0308 22.9808 23.5274 24.7142 21.6584 24.9521C21.6144 24.9579 21.5581 24.9389 21.5327 24.9986H3.4179C2.25217 24.8953 1.37225 24.3027 0.682699 23.3919C0.276995 22.8565 0.057748 22.2482 0 21.5807V5.36962C0.111092 5.08529 0.139476 4.77893 0.245674 4.49166C0.77862 3.05089 2.19198 2.01387 3.72622 1.95906C4.1329 1.94487 4.54007 1.94487 4.94675 1.95613C5.10483 1.96053 5.13664 1.90963 5.12979 1.76477C5.11853 1.50491 5.12147 1.24406 5.12832 0.983708C5.143 0.421888 5.56094 0.00199142 6.10025 3.38608e-05C6.63858 -0.00143431 7.0619 0.417973 7.07805 0.977346C7.08539 1.24553 7.08245 1.51421 7.07805 1.78288C7.07658 1.89299 7.08196 1.95661 7.22878 1.95564C8.59614 1.94927 9.963 1.95025 11.3304 1.95466C11.4517 1.95515 11.4796 1.91551 11.4767 1.80197C11.4693 1.53378 11.4698 1.26511 11.4757 0.996432C11.4879 0.421399 11.9108 -0.00437065 12.4589 3.38608e-05C12.9977 0.00492776 13.4122 0.425803 13.4259 0.988602C13.4323 1.25728 13.4303 1.52595 13.4259 1.79463C13.424 1.89691 13.4298 1.95564 13.5634 1.95515C14.9553 1.94976 16.3466 1.95074 17.7379 1.95417C17.8481 1.95466 17.8755 1.91893 17.873 1.81518C17.8667 1.54651 17.8667 1.27783 17.8715 1.00965C17.8818 0.429229 18.2944 0.0029702 18.8425 3.38608e-05C19.3906 -0.00241309 19.811 0.423846 19.8227 1.00035C19.8281 1.2607 19.8316 1.52155 19.8208 1.78141C19.8144 1.92138 19.8594 1.95417 19.996 1.95564C20.5647 1.96151 21.1338 1.92432 21.702 2.00066C23.3028 2.2155 24.7313 3.63571 24.9481 5.237C24.9799 5.47141 25 5.70534 25 5.94172C24.999 9.32732 25 17.758 24.999 21.1432C24.999 21.6629 24.7612 22.0334 24.3428 22.1758C23.7374 22.3823 23.1075 21.9712 23.0522 21.3316C23.0434 21.2347 23.0468 21.1368 23.0468 21.0389Z" fill="#DCDCDC"/>
</svg>
