<svg width="20" height="20" viewBox="0 0 20 20" fill="none" xmlns="http://www.w3.org/2000/svg">
<path d="M18.4375 16.8321C18.4371 14.163 18.4379 7.4568 18.4367 4.78732C18.4363 3.97841 17.997 3.36762 17.2551 3.17811C16.8221 3.06731 16.3734 3.13935 15.9322 3.12408C15.8312 3.12056 15.8605 3.19573 15.8602 3.24702C15.8574 3.46158 15.8629 3.67654 15.8578 3.89149C15.8476 4.35037 15.5066 4.691 15.0681 4.68552C14.6375 4.68043 14.3082 4.34293 14.2976 3.89149C14.2929 3.69611 14.2839 3.49995 14.3004 3.30575C14.3145 3.14287 14.2495 3.12017 14.1066 3.12095C13.0518 3.12682 11.9971 3.12995 10.9424 3.1186C10.7599 3.11664 10.727 3.17341 10.7388 3.33434C10.7521 3.52227 10.7458 3.71177 10.7403 3.90049C10.7282 4.34958 10.3927 4.68513 9.96124 4.68552C9.53019 4.68591 9.19309 4.34998 9.18096 3.90167C9.17508 3.68711 9.17626 3.47216 9.18096 3.2572C9.18291 3.16598 9.17195 3.12056 9.05802 3.12134C7.96453 3.12604 6.87064 3.12565 5.77715 3.12173C5.67692 3.12134 5.6597 3.15775 5.66205 3.24585C5.66753 3.46041 5.66753 3.67575 5.66283 3.89031C5.65265 4.34958 5.31243 4.69022 4.87393 4.68552C4.44327 4.68082 4.11283 4.34371 4.10265 3.89266C4.09756 3.67771 4.10305 3.46276 4.10031 3.2482C4.09952 3.19769 4.13123 3.12056 4.02944 3.12408C3.59486 3.14092 3.15363 3.06653 2.72727 3.18438C2.00767 3.38367 1.57075 3.96862 1.5637 4.72781C1.55743 5.39811 1.56213 6.06881 1.56213 6.73951C1.56213 10.0793 1.56292 13.4191 1.56174 16.7593C1.56174 17.4351 1.83032 17.9523 2.43912 18.2718C2.66815 18.392 2.91755 18.4366 3.1736 18.4366C7.72453 18.4374 12.2751 18.4393 16.8256 18.4354C17.7402 18.4346 18.3709 17.8141 18.4371 16.8763C18.4762 16.3211 18.9449 15.977 19.4507 16.1324C19.7772 16.2327 19.9926 16.5271 19.9988 16.8814C20.0247 18.3857 18.8219 19.7725 17.3268 19.9628C17.2915 19.9675 17.2465 19.9522 17.2261 20H2.73432C1.80174 19.9174 1.0978 19.4432 0.546159 18.7146C0.221596 18.2863 0.0461984 17.7996 0 17.2655V4.29594C0.0888732 4.06846 0.111581 3.82336 0.196539 3.59353C0.622896 2.44085 1.75358 1.61119 2.98097 1.56734C3.30632 1.55599 3.63206 1.55599 3.9574 1.56499C4.08386 1.56851 4.10931 1.52779 4.10383 1.4119C4.09482 1.204 4.09717 0.995308 4.10265 0.787011C4.1144 0.33753 4.44875 0.00159323 4.8802 2.70902e-05C5.31086 -0.00114751 5.64952 0.334398 5.66244 0.781921C5.66831 0.996482 5.66596 1.21143 5.66244 1.42639C5.66126 1.51448 5.66557 1.56538 5.78302 1.5646C6.87691 1.55951 7.9704 1.56029 9.06429 1.56382C9.16138 1.56421 9.1837 1.53249 9.18135 1.44166C9.17548 1.2271 9.17587 1.01214 9.18057 0.797191C9.19035 0.337138 9.52862 -0.00349672 9.96711 2.70902e-05C10.3982 0.00394244 10.7298 0.340662 10.7407 0.790927C10.7458 1.00588 10.7443 1.22083 10.7407 1.43578C10.7392 1.51761 10.7439 1.5646 10.8508 1.56421C11.9642 1.5599 13.0773 1.56068 14.1904 1.56342C14.2784 1.56382 14.3004 1.53523 14.2984 1.45223C14.2933 1.23728 14.2933 1.02232 14.2972 0.807763C14.3055 0.343403 14.6355 0.0023763 15.074 2.70902e-05C15.5125 -0.00193058 15.8488 0.339096 15.8582 0.800324C15.8625 1.00862 15.8652 1.21731 15.8566 1.42521C15.8515 1.53719 15.8876 1.56342 15.9968 1.5646C16.4517 1.5693 16.9071 1.53954 17.3616 1.60062C18.6422 1.7725 19.7851 2.90874 19.9585 4.18984C19.9839 4.37738 20 4.56454 20 4.75365C19.9992 7.46228 20 14.2072 19.9992 16.9155C19.9992 17.3313 19.8089 17.6277 19.4742 17.7416C18.9899 17.9069 18.486 17.578 18.4418 17.0662C18.4347 16.9887 18.4375 16.9104 18.4375 16.8321Z" fill="url(#paint0_linear_618_125)"/>
<defs>
<linearGradient id="paint0_linear_618_125" x1="10" y1="0" x2="10" y2="20" gradientUnits="userSpaceOnUse">
<stop stop-color="#A2FF00"/>
<stop offset="1" stop-color="#00FF7F"/>
</linearGradient>
</defs>
</svg>
