<svg width="17" height="25" viewBox="0 0 17 25" fill="none" xmlns="http://www.w3.org/2000/svg">
<path d="M14.2575 12.0714C13.068 11.3446 11.7523 10.9523 10.4149 10.622C10.2106 10.5713 10.1761 10.4882 10.1768 10.3051C10.1832 8.91761 10.1804 7.52944 10.1804 6.14198V5.86519C10.2719 5.88914 10.3381 5.90322 10.4022 5.92435C11.5967 6.3265 12.6693 6.93924 13.6194 7.7682C13.8814 7.99568 14.0829 7.99075 14.2688 7.74143C14.9153 6.87726 15.5569 6.00957 16.195 5.13906C16.3577 4.91791 16.3324 4.74888 16.1204 4.56365C15.9154 4.38476 15.707 4.2101 15.49 4.046C13.9948 2.9149 12.3242 2.18736 10.4691 1.8986C10.2571 1.8655 10.1557 1.80564 10.1733 1.56125C10.1994 1.19431 10.1839 0.823849 10.1789 0.455503C10.174 0.125893 10.055 0.0040497 9.73524 0.00264111C8.90065 -0.000880368 8.06677 -0.000880368 7.23218 0.00264111C6.91736 0.0040497 6.78988 0.135753 6.78636 0.454798C6.78213 0.849908 6.78002 1.24502 6.78777 1.64013C6.79058 1.77887 6.75607 1.83944 6.60606 1.85987C6.23208 1.90987 5.86725 2.00777 5.50736 2.12046C2.73384 2.98815 0.939302 5.13413 0.799851 7.78651C0.68646 9.94588 1.47104 11.6355 3.37264 12.749C4.37908 13.3378 5.47073 13.711 6.58704 14.0188C6.74621 14.0625 6.78918 14.1273 6.78918 14.2864C6.78284 15.7795 6.78002 17.2727 6.79058 18.7658C6.7927 18.9996 6.7279 18.9961 6.53985 18.9376C5.16296 18.5073 3.9403 17.8107 2.87259 16.8416C2.4972 16.5007 2.3655 16.5085 2.04293 16.9078C1.4309 17.6657 0.817459 18.4228 0.205426 19.1813C-0.0833344 19.5391 -0.07277 19.6658 0.269517 19.9708C2.08378 21.5886 4.19244 22.588 6.59127 22.9718C6.74903 22.9972 6.79199 23.0436 6.78847 23.1979C6.77861 23.6451 6.78213 24.0938 6.78636 24.541C6.78918 24.8628 6.91595 24.996 7.22795 24.9974C8.06254 25.0009 8.89643 25.0009 9.73101 24.9974C10.0529 24.9967 10.174 24.8748 10.1789 24.5487C10.1846 24.1452 10.1874 23.7409 10.1768 23.3366C10.1719 23.1662 10.2085 23.0986 10.398 23.0796C11.0009 23.019 11.5925 22.895 12.1735 22.719C15.0315 21.8527 16.6916 19.7856 16.8113 16.9022C16.8972 14.8055 16.0654 13.1779 14.2575 12.0714ZM16.0774 16.7825C16.0006 19.3933 14.5033 21.247 11.8629 22.0351C11.2051 22.2316 10.5297 22.3351 9.84793 22.3992C9.5486 22.4274 9.44789 22.5344 9.44366 22.8387C9.43803 23.2423 9.43662 23.6465 9.44507 24.0501C9.44859 24.2008 9.42324 24.2698 9.24787 24.2656C8.73937 24.2536 8.22946 24.2543 7.72025 24.2649C7.55263 24.2691 7.5153 24.2142 7.51882 24.0557C7.53009 23.6345 7.52446 23.2134 7.52235 22.7915C7.52094 22.4436 7.42586 22.3443 7.08216 22.2999C4.81574 22.0076 2.80427 21.1336 1.04706 19.6708C0.906904 19.5546 0.894227 19.4905 1.01325 19.3482C1.46964 18.8038 1.91475 18.2488 2.35564 17.6917C2.4648 17.5537 2.52256 17.5044 2.69018 17.6473C3.9234 18.701 5.33481 19.4137 6.91172 19.7968C7.35895 19.9053 7.52235 19.7821 7.52305 19.3278C7.52375 18.4235 7.52305 17.5192 7.52305 16.6148V13.9808C7.52305 13.5547 7.48291 13.5033 7.08216 13.3941C6.07572 13.1215 5.07985 12.8159 4.14877 12.3363C2.99232 11.7404 2.0866 10.9157 1.71825 9.61556C1.02523 7.17025 2.11477 4.65592 4.4157 3.38748C5.23761 2.93392 6.11869 2.65713 7.04906 2.53529C7.43501 2.48528 7.52235 2.38527 7.52305 1.98875C7.52375 1.63731 7.52868 1.28587 7.52023 0.935127C7.51671 0.794268 7.54418 0.732291 7.70405 0.735812C8.22171 0.745672 8.74007 0.744968 9.25843 0.735812C9.41619 0.732995 9.44789 0.791451 9.44507 0.933719C9.43662 1.31122 9.43944 1.68872 9.44296 2.06622C9.44578 2.40781 9.53311 2.50641 9.86342 2.54726C11.8693 2.79306 13.6673 3.53186 15.2492 4.79537C15.383 4.90172 15.4217 4.96158 15.3034 5.11512C14.8646 5.68489 14.4378 6.26453 14.0202 6.8498C13.9138 6.9984 13.8561 7.01178 13.7096 6.89276C12.6179 6.00957 11.3896 5.39402 10.0247 5.05455C9.61551 4.95242 9.44366 5.08061 9.44296 5.50389C9.44085 7.25054 9.44155 8.9979 9.44296 10.7453C9.44366 11.0706 9.52395 11.1629 9.83455 11.2368C10.9516 11.5024 12.0587 11.7989 13.1039 12.2877C13.7842 12.6053 14.4118 13.0011 14.9329 13.5498C15.795 14.4569 16.114 15.5647 16.0774 16.7825Z" fill="#DCDCDC"/>
<path d="M12.0626 15.0017C11.4605 14.6129 10.7829 14.4038 10.1132 14.1671C9.66452 14.008 9.43069 14.1946 9.43562 14.6594C9.45393 16.2575 9.44267 17.8562 9.44267 19.455C9.44267 19.5247 9.43985 19.5958 9.4476 19.6656C9.47436 19.9071 9.64128 20.0452 9.88074 20.0142C10.4399 19.9423 10.9851 19.8092 11.4886 19.5501C12.5162 19.0218 13.1508 18.2253 13.1747 17.0266C13.1895 16.1392 12.7965 15.4757 12.0626 15.0017ZM11.9464 18.3168C11.5098 18.7838 10.9555 19.0254 10.354 19.1845C10.2054 19.224 10.1772 19.1627 10.1779 19.0268C10.1836 18.3767 10.1808 17.7273 10.1808 17.078C10.1808 16.4547 10.1871 15.8314 10.1765 15.2081C10.1737 15.0214 10.2033 14.9581 10.3998 15.0355C10.7914 15.1891 11.178 15.3454 11.5492 15.5475C12.7676 16.2131 12.5775 17.6421 11.9464 18.3168Z" fill="#DCDCDC"/>
<path d="M7.52246 5.38859C7.52105 5.05123 7.33089 4.89277 7.01537 4.97587C6.24346 5.18012 5.57156 5.5534 5.05813 6.18163C4.21368 7.21342 4.12846 8.93824 5.64481 9.86509C6.04978 10.113 6.48151 10.3018 6.92733 10.4595C7.3161 10.5976 7.52175 10.4574 7.52316 10.0482C7.52527 9.28475 7.52387 8.5213 7.52387 7.75784C7.52387 6.96762 7.52598 6.17811 7.52246 5.38859ZM6.78577 9.61014C6.47024 9.48336 6.20402 9.35588 5.95681 9.18826C5.21519 8.6854 4.98629 7.85362 5.37929 7.04509C5.6441 6.49926 6.09063 6.14641 6.6273 5.89005C6.76886 5.82244 6.78788 5.87385 6.78788 6.00274C6.78506 7.19581 6.78577 8.38889 6.78577 9.61014Z" fill="#DCDCDC"/>
</svg>
