<svg width="72" height="40" viewBox="0 0 72 40" fill="none" xmlns="http://www.w3.org/2000/svg">
<path d="M66 0.5H27C23.7 0.5 21 3.2 21 6.5V33.5C21 35.0913 21.6321 36.6174 22.7574 37.7426C23.8826 38.8679 25.4087 39.5 27 39.5H66C69.33 39.5 72 36.83 72 33.5V6.5C72 4.9087 71.3679 3.38258 70.2426 2.25736C69.1174 1.13214 67.5913 0.5 66 0.5ZM66 11.51L46.5 21.5L27 11.51V6.5L46.5 16.43L66 6.5V11.51ZM15 33.5C15 34.01 15.09 34.49 15.15 35H3C1.344 35 0 33.65 0 32C0 30.35 1.344 29 3 29H15V33.5ZM9 5H15.15C15.09 5.51 15 5.99 15 6.5V11H9C7.35 11 6 9.65 6 8C6 6.35 7.35 5 9 5ZM3 20C3 18.35 4.35 17 6 17H15V23H6C4.35 23 3 21.65 3 20Z" fill="#34C759"/>
</svg>
