<svg width="15" height="15" viewBox="0 0 15 15" fill="none" xmlns="http://www.w3.org/2000/svg">
<path d="M10.6502 8.36349C10.2685 8.1242 9.85668 7.94568 9.42144 7.77737C11.5598 6.1499 11.6941 3.23754 10.0705 1.43623C8.45915 -0.351049 5.76782 -0.490887 3.97586 1.13276C3.12749 1.90165 2.64677 2.87158 2.58004 4.01621C2.48738 5.5999 3.12791 6.85759 4.38347 7.82242C4.34224 7.84325 4.31546 7.85855 4.28741 7.87045C3.06245 8.38857 2.06234 9.18934 1.29175 10.2719C0.436998 11.4722 0.0162109 12.8145 5.95176e-05 14.2851C-0.00334078 14.6094 0.139047 14.836 0.403845 14.9422C0.881162 15.1343 1.35508 14.8279 1.35805 14.311C1.36315 13.478 1.53487 12.6848 1.88 11.927C2.91879 9.64498 5.47029 8.31376 7.94018 8.7609C8.63512 8.88671 9.28458 9.12516 9.88813 9.49069C10.0603 9.59483 10.2396 9.66836 10.4445 9.6131C10.734 9.53532 10.9069 9.33895 10.9647 9.05205C11.0247 8.75368 10.9048 8.52288 10.6502 8.36349ZM6.87674 7.25245C5.2395 7.25627 3.92613 5.95013 3.9223 4.31416C3.9189 2.68244 5.23312 1.36313 6.86526 1.361C8.49868 1.35845 9.81545 2.66969 9.8197 4.30226C9.82352 5.93738 8.51526 7.24862 6.87674 7.25245Z" fill="url(#paint0_linear_383_1351)"/>
<path d="M14.4026 12.4193C14.332 12.6926 14.1089 12.88 13.8211 12.903C13.7522 12.9085 13.6834 12.906 13.6145 12.9064C13.2129 12.9102 12.8112 12.9136 12.4096 12.917C12.3743 13.3174 12.4032 13.7186 12.3938 14.1195C12.3926 14.1726 12.3955 14.2257 12.3921 14.2784C12.3598 14.7625 11.9174 15.0482 11.46 14.8807C11.1939 14.7829 11.0375 14.5602 11.0341 14.255C11.0299 13.8576 11.0256 13.4598 11.0367 13.0628C11.0409 12.9238 10.9972 12.8966 10.8701 12.9034C10.6639 12.9145 10.4569 12.9064 10.2504 12.9064C10.0383 12.9064 9.82618 12.9102 9.61451 12.9055C9.25918 12.8979 9.00203 12.6492 8.96973 12.2884C8.93827 11.9407 9.16312 11.6355 9.504 11.5688C9.58135 11.5539 9.66169 11.5463 9.74032 11.5458C10.1114 11.5433 10.4829 11.5348 10.8531 11.5492C11.0142 11.5556 11.0409 11.5038 11.0367 11.3571C11.0256 10.9814 11.0316 10.6048 11.0333 10.2287C11.035 9.8083 11.321 9.50439 11.7125 9.50439C12.1031 9.50439 12.3904 9.80745 12.3934 10.2282C12.396 10.6099 12.3994 10.9916 12.3909 11.3729C12.3879 11.5046 12.4096 11.5539 12.5583 11.5492C12.9498 11.5361 13.3425 11.5395 13.7344 11.5463C14.2283 11.5552 14.5237 11.9462 14.4026 12.4193Z" fill="url(#paint1_linear_383_1351)"/>
<defs>
<linearGradient id="paint0_linear_383_1351" x1="5.58602" y1="0" x2="5.58602" y2="15" gradientUnits="userSpaceOnUse">
<stop stop-color="#A2FF00"/>
<stop offset="1" stop-color="#00FF7F"/>
</linearGradient>
<linearGradient id="paint1_linear_383_1351" x1="11.6982" y1="9.50439" x2="11.6982" y2="14.9289" gradientUnits="userSpaceOnUse">
<stop stop-color="#A2FF00"/>
<stop offset="1" stop-color="#00FF7F"/>
</linearGradient>
</defs>
</svg>
