<svg width="23" height="23" viewBox="0 0 23 23" fill="none" xmlns="http://www.w3.org/2000/svg">
<path d="M16.3303 12.824C15.7451 12.4571 15.1136 12.1834 14.4462 11.9253C17.725 9.42984 17.931 4.96423 15.4414 2.20222C12.9707 -0.538276 8.84399 -0.752693 6.09632 1.73689C4.79548 2.91586 4.05838 4.4031 3.95606 6.15819C3.81398 8.58651 4.79613 10.515 6.72132 11.9944C6.6581 12.0263 6.61705 12.0498 6.57403 12.068C4.69576 12.8625 3.16226 14.0903 1.98068 15.7503C0.670063 17.5907 0.0248568 19.6489 9.12603e-05 21.9038C-0.00512253 22.4011 0.213205 22.7485 0.619229 22.9114C1.35112 23.206 2.07779 22.7361 2.08235 21.9436C2.09017 20.6662 2.35347 19.4501 2.88267 18.2881C4.47548 14.789 8.38778 12.7478 12.1749 13.4334C13.2405 13.6263 14.2364 13.9919 15.1618 14.5524C15.4257 14.7121 15.7008 14.8248 16.0149 14.7401C16.4587 14.6208 16.724 14.3197 16.8126 13.8798C16.9045 13.4223 16.7207 13.0684 16.3303 12.824ZM10.5443 11.1204C8.03389 11.1263 6.02007 9.12353 6.0142 6.61505C6.00899 4.11308 8.02412 2.09013 10.5267 2.08687C13.0313 2.08296 15.0504 4.09353 15.0569 6.5968C15.0627 9.10398 13.0567 11.1146 10.5443 11.1204Z" fill="#D9D9D9"/>
<path d="M22.0834 19.0428C21.9752 19.4618 21.633 19.7492 21.1918 19.7844C21.0862 19.7929 20.9806 19.789 20.8751 19.7896C20.2592 19.7955 19.6433 19.8007 19.0274 19.8059C18.9733 20.4199 19.0177 21.0351 19.0033 21.6497C19.0014 21.7311 19.0059 21.8126 19.0007 21.8934C18.9512 22.6357 18.2727 23.0737 17.5715 22.8169C17.1635 22.667 16.9237 22.3255 16.9184 21.8576C16.9119 21.2482 16.9054 20.6382 16.9224 20.0295C16.9289 19.8164 16.8617 19.7747 16.6669 19.7851C16.3508 19.802 16.0334 19.7896 15.7167 19.7896C15.3915 19.7896 15.0662 19.7955 14.7417 19.7883C14.1968 19.7766 13.8026 19.3953 13.753 18.842C13.7048 18.3089 14.0496 17.841 14.5722 17.7387C14.6909 17.7159 14.814 17.7041 14.9346 17.7035C15.5036 17.6996 16.0732 17.6865 16.6408 17.7087C16.8878 17.7185 16.9289 17.639 16.9224 17.4141C16.9054 16.838 16.9145 16.2606 16.9171 15.6838C16.9198 15.0392 17.3584 14.5732 17.9586 14.5732C18.5575 14.5732 18.9981 15.0379 19.0027 15.6831C19.0066 16.2684 19.0118 16.8536 18.9988 17.4382C18.9942 17.6403 19.0274 17.7159 19.2555 17.7087C19.8558 17.6885 20.458 17.6937 21.0589 17.7041C21.8162 17.7178 22.2691 18.3174 22.0834 19.0428Z" fill="#D9D9D9"/>
</svg>
