<svg width="24" height="24" viewBox="0 0 24 24" fill="none" xmlns="http://www.w3.org/2000/svg">
<path d="M8 3.0001V17.5001M15 6.5001V20.5001M5.253 4.1961L4.026 4.9081C3.037 5.4811 2.543 5.7681 2.272 6.2451C2 6.7221 2 7.3021 2 8.4641V16.6281C2 18.1541 2 18.9181 2.342 19.3421C2.57 19.6241 2.889 19.8141 3.242 19.8771C3.772 19.9721 4.422 19.5951 5.72 18.8421C6.602 18.3311 7.45 17.7991 8.505 17.9441C8.985 18.0091 9.442 18.2371 10.358 18.6921L14.171 20.5881C14.996 20.9981 15.004 21.0001 15.921 21.0001H18C19.886 21.0001 20.828 21.0001 21.414 20.4011C22 19.8031 22 18.8391 22 16.9111V10.1711C22 8.2441 22 7.2811 21.414 6.6811C20.828 6.0831 19.886 6.0831 18 6.0831H15.921C15.004 6.0831 14.996 6.0811 14.171 5.6711L10.84 4.0151C9.449 3.3231 8.753 2.9771 8.012 3.0001C7.271 3.0231 6.6 3.4151 5.253 4.1961Z" stroke="black" stroke-width="1.5" stroke-linecap="round" stroke-linejoin="round"/>
</svg>
