<svg width="34" height="34" viewBox="0 0 34 34" fill="none" xmlns="http://www.w3.org/2000/svg">
<path d="M29.4484 1.33662C21.1912 -0.444387 12.8173 -0.446117 4.56011 1.33489C2.94777 1.68175 1.68143 2.9481 1.33457 4.56044C-0.445577 12.8176 -0.444712 21.1924 1.3363 29.4513C1.68229 31.0568 2.94431 32.3188 4.55146 32.6648C8.68178 33.5557 12.8415 34.0012 17.0004 34.0012C21.1566 34.0012 25.3129 33.5566 29.4398 32.6665C31.0521 32.3196 32.3193 31.0533 32.6662 29.441C34.4463 21.1829 34.4455 12.8081 32.6636 4.55092C32.3176 2.94464 31.0556 1.68262 29.4484 1.33662ZM30.5885 28.9929C30.4189 29.7783 29.778 30.4193 28.9917 30.5888C21.0338 32.3041 12.9609 32.3023 4.99952 30.5871C4.21931 30.4184 3.58181 29.7826 3.414 29.0033C1.69786 21.0411 1.697 12.9681 3.41227 5.0085C3.58181 4.22309 4.22276 3.58213 5.00817 3.4126C8.98712 2.55539 12.9929 2.12636 16.9995 2.12636C21.0087 2.12636 25.0188 2.55626 29.0004 3.41433C29.7806 3.583 30.4181 4.21963 30.5859 4.99898C32.3029 12.9595 32.3037 21.0324 30.5885 28.9929Z" fill="url(#paint0_linear_1595_1006)"/>
<path d="M25.8581 15.9385H18.0637V8.14412C18.0637 7.5568 17.588 7.08105 17.0006 7.08105C16.4133 7.08105 15.9376 7.5568 15.9376 8.14412V15.9385H8.14315C7.55582 15.9385 7.08008 16.4143 7.08008 17.0016C7.08008 17.5889 7.55582 18.0647 8.14315 18.0647H15.9376V25.8591C15.9376 26.4464 16.4133 26.9222 17.0006 26.9222C17.588 26.9222 18.0637 26.4464 18.0637 25.8591V18.0647H25.8581C26.4454 18.0647 26.9212 17.5889 26.9212 17.0016C26.9212 16.4143 26.4454 15.9385 25.8581 15.9385Z" fill="url(#paint1_linear_1595_1006)"/>
<defs>
<linearGradient id="paint0_linear_1595_1006" x1="17.0003" y1="0" x2="17.0003" y2="34.0012" gradientUnits="userSpaceOnUse">
<stop stop-color="#A2FF00"/>
<stop offset="1" stop-color="#00FF7F"/>
</linearGradient>
<linearGradient id="paint1_linear_1595_1006" x1="17.0006" y1="7.08105" x2="17.0006" y2="26.9222" gradientUnits="userSpaceOnUse">
<stop stop-color="#A2FF00"/>
<stop offset="1" stop-color="#00FF7F"/>
</linearGradient>
</defs>
</svg>
