<svg width="16" height="13" viewBox="0 0 16 13" fill="none" xmlns="http://www.w3.org/2000/svg">
<path d="M15.9789 7.66819L15.3855 4.87343C15.307 4.44185 15.0148 4.09946 14.6234 3.97931C14.396 3.90956 14.1676 3.86985 13.9395 3.8223C14.1776 3.51078 14.3248 3.12633 14.3248 2.70484C14.3248 1.6843 13.4945 0.853946 12.4739 0.853946C11.453 0.853946 10.6227 1.6843 10.6227 2.70484C10.6227 3.12633 10.7698 3.51078 11.008 3.8223C10.7799 3.86985 10.5514 3.90951 10.3241 3.97931C10.1466 4.03385 10.0275 4.18823 10.0078 4.36205C9.93518 4.34787 9.86262 4.33312 9.78996 4.32045C10.2484 3.86202 10.5324 3.22911 10.5324 2.53125C10.5324 1.13552 9.39648 0 8.00076 0C6.60503 0 5.46951 1.13552 5.46951 2.53125C5.46951 3.2292 5.75348 3.86215 6.21192 4.32059C6.13918 4.33331 6.06643 4.34805 5.99374 4.36224C5.97411 4.18846 5.85497 4.03413 5.67738 3.97931C5.45007 3.90951 5.22166 3.86985 4.99352 3.8223C5.2317 3.51078 5.37885 3.12633 5.37885 2.70484C5.37885 1.6843 4.54849 0.853946 3.52795 0.853946C2.50705 0.853946 1.67669 1.6843 1.67669 2.70484C1.67669 3.12638 1.82393 3.51087 2.06216 3.8224C1.83411 3.86994 1.60574 3.90956 1.37853 3.97931C0.98749 4.09946 0.695225 4.44148 0.618565 4.86053L0.0200288 7.68072C-0.0931182 8.2999 0.284653 8.90728 0.862181 9.03407C1.61791 9.20042 2.38312 9.28335 3.14295 9.30781L3.00534 9.95619L3.00276 9.96836C2.85497 10.774 3.34036 11.5624 4.08484 11.726C5.38437 12.0116 6.69238 12.1546 8.00076 12.1546C9.30914 12.1546 10.6175 12.0116 11.9167 11.726C12.6608 11.5627 13.1465 10.7744 12.9965 9.95619L12.8589 9.30781C13.6181 9.28335 14.3832 9.20042 15.1397 9.03443C15.7176 8.90728 16.0954 8.2999 15.9789 7.66819ZM12.4739 1.75986C12.9951 1.75986 13.4189 2.1837 13.4189 2.70484C13.4189 3.22598 12.9951 3.64982 12.4739 3.64982C11.9528 3.64982 11.5286 3.22598 11.5286 2.70484C11.5286 2.1837 11.9528 1.75986 12.4739 1.75986ZM8.00076 0.905913C8.89709 0.905913 9.62646 1.63492 9.62646 2.53125C9.62646 3.42758 8.89709 4.15695 8.00076 4.15695C7.10443 4.15695 6.37542 3.42758 6.37542 2.53125C6.37542 1.63492 7.10443 0.905913 8.00076 0.905913ZM3.52795 1.75986C4.04909 1.75986 4.47293 2.1837 4.47293 2.70484C4.47293 3.22598 4.04909 3.64982 3.52795 3.64982C3.00681 3.64982 2.5826 3.22598 2.5826 2.70484C2.5826 2.1837 3.00681 1.75986 3.52795 1.75986ZM1.05678 8.14953C0.965377 8.12926 0.883557 7.99437 0.908619 7.85616L1.50716 5.03633C1.52411 4.94345 1.5805 4.86495 1.64426 4.84542C2.6747 4.5292 3.71638 4.48856 4.7505 4.69366C4.3116 4.87873 3.98307 5.28119 3.89135 5.78192L3.33294 8.41286C2.57634 8.39978 1.81158 8.31575 1.05678 8.14953ZM11.7221 10.8415C9.25348 11.3847 6.74951 11.3855 4.27944 10.8415C4.01224 10.7825 3.83607 10.4611 3.89282 10.1372L4.77994 5.95772C4.82048 5.73511 4.96053 5.55673 5.1356 5.50292C7.03661 4.91876 8.96417 4.91876 10.8659 5.50292C11.0414 5.55673 11.1814 5.73511 11.2245 5.96988L12.108 10.1316C12.1677 10.4574 11.9908 10.7825 11.7221 10.8415ZM14.9455 8.1499C14.1898 8.31575 13.4249 8.39973 12.6689 8.41286L12.1131 5.79408C12.019 5.2822 11.6903 4.87882 11.2511 4.69371C12.2856 4.48856 13.3271 4.52915 14.3576 4.84542C14.4214 4.86495 14.4774 4.94308 14.4969 5.04849L15.0903 7.844C15.1183 7.99474 15.0365 8.12963 14.9455 8.1499Z" fill="#211E1F"/>
</svg>
