<svg width="24" height="23" viewBox="0 0 24 23" fill="none" xmlns="http://www.w3.org/2000/svg">
<path d="M21.206 3.26951C21.4986 2.9744 21.4962 2.49807 21.2011 2.20541C20.906 1.91337 20.4296 1.91582 20.137 2.21031L18.6151 3.74638L17.2331 0L15.0555 2.50794V7.33954L10.4291 12.0094C10.1364 12.3045 10.1389 12.7809 10.434 13.0735C10.5809 13.2186 10.7719 13.2915 10.9636 13.2915C11.157 13.2915 11.3511 13.2168 11.4981 13.0686L14.4411 10.098C14.963 10.8384 15.2468 11.7149 15.2255 12.637C15.1998 13.7752 14.7314 14.8356 13.9079 15.6223C13.085 16.4085 12.0216 16.8395 10.8656 16.8009C9.72744 16.7752 8.66702 16.3068 7.88088 15.4834C7.09414 14.6599 6.67536 13.5792 6.70168 12.4411C6.7274 11.3029 7.19577 10.2425 8.01925 9.45633C8.31926 9.16918 8.33028 8.69285 8.04374 8.39223C7.75598 8.09284 7.27965 8.08121 6.97965 8.36775C5.86534 9.43184 5.23227 10.8664 5.19737 12.4068C5.16186 13.9466 5.7282 15.4087 6.7923 16.523C7.85639 17.6373 9.2909 18.2703 10.8313 18.3052C10.8766 18.3065 10.9219 18.3071 10.9673 18.3071C12.4575 18.3071 13.8663 17.7426 14.9475 16.7103C16.0618 15.6462 16.6949 14.2117 16.7298 12.6713C16.7606 11.3333 16.3133 10.0689 15.5037 9.02546L16.1148 8.40854H20.9561L23.464 6.23098L19.6617 4.82831L21.206 3.26951Z" fill="url(#paint0_linear_1607_2221)"/>
<path d="M20.6155 13.8212C20.2065 13.7367 19.8104 13.9945 19.7234 14.401C18.6973 19.2305 13.9358 22.3254 9.10205 21.2987C4.27259 20.2725 1.17826 15.508 2.2044 10.6773C3.23054 5.84782 7.99632 2.75533 12.8258 3.77963C13.2354 3.86596 13.6309 3.60575 13.7178 3.19983C13.8042 2.7939 13.5446 2.3941 13.138 2.30777C7.49917 1.11143 1.93133 4.72312 0.732541 10.365C-0.466252 16.0063 3.14849 21.5717 8.7898 22.7705C9.5196 22.9254 10.2482 23.0001 10.9664 23.0001C15.7983 23.0001 20.1514 19.6248 21.1953 14.7133C21.2816 14.3073 21.022 13.9075 20.6155 13.8212Z" fill="url(#paint1_linear_1607_2221)"/>
<defs>
<linearGradient id="paint0_linear_1607_2221" x1="14.3299" y1="0" x2="14.3299" y2="18.3071" gradientUnits="userSpaceOnUse">
<stop stop-color="#A2FF00"/>
<stop offset="1" stop-color="#00FF7F"/>
</linearGradient>
<linearGradient id="paint1_linear_1607_2221" x1="10.8574" y1="2.07886" x2="10.8574" y2="23.0001" gradientUnits="userSpaceOnUse">
<stop stop-color="#A2FF00"/>
<stop offset="1" stop-color="#00FF7F"/>
</linearGradient>
</defs>
</svg>
