<svg width="24" height="24" viewBox="0 0 24 24" fill="none" xmlns="http://www.w3.org/2000/svg">
<g clip-path="url(#clip0_2065_1386)">
<path d="M12.0037 0C5.37413 0 0 5.36678 0 11.9963C0 18.6259 5.37413 24 12.0037 24C18.6259 24 24 18.6259 24 11.9963C24 5.36678 18.6259 0 12.0037 0ZM4.39032 8.35485V4.29492C5.32273 4.14808 6.31384 4.06733 7.34169 4.06733C12.6938 4.06733 17.0327 6.21844 17.0327 8.86878C17.0327 10.7483 14.8596 12.3708 11.688 13.1637C12.7892 12.613 13.472 11.8569 13.472 11.0199C13.472 9.33866 10.7262 7.98042 7.34169 7.98042C6.26979 7.98042 5.27133 8.11991 4.39767 8.35485H4.39032ZM19.6097 19.6978C18.6773 19.8446 17.6862 19.9254 16.6657 19.9254C11.3062 19.9254 6.96726 17.7743 6.96726 15.1239C6.96726 13.2517 9.14042 11.6219 12.312 10.8363C11.2108 11.387 10.528 12.1432 10.528 12.9728C10.528 14.654 13.2738 16.0122 16.6657 16.0122C17.7302 16.0122 18.736 15.8801 19.6097 15.6378V19.6978Z" fill="#DCDCDC"/>
</g>
<defs>
<clipPath id="clip0_2065_1386">
<rect width="24" height="24" fill="white"/>
</clipPath>
</defs>
</svg>
