<svg width="18" height="18" viewBox="0 0 18 18" fill="none" xmlns="http://www.w3.org/2000/svg">
<g clip-path="url(#clip0_1752_99)">
<path d="M9.00274 0C4.03059 0 0 4.02508 0 8.99726C0 13.9694 4.03059 18 9.00274 18C13.9694 18 18 13.9694 18 8.99726C18 4.02508 13.9694 0 9.00274 0ZM3.29274 6.26614V3.22119C3.99205 3.11106 4.73538 3.0505 5.50627 3.0505C9.52033 3.0505 12.7746 4.66383 12.7746 6.65158C12.7746 8.06119 11.1447 9.27809 8.76597 9.87274C9.59191 9.45977 10.104 8.89264 10.104 8.26492C10.104 7.00399 8.04465 5.98531 5.50627 5.98531C4.70234 5.98531 3.9535 6.08993 3.29825 6.26614H3.29274ZM14.7073 14.7733C14.008 14.8835 13.2646 14.944 12.4992 14.944C8.47967 14.944 5.22545 13.3307 5.22545 11.3429C5.22545 9.93881 6.85531 8.71644 9.23403 8.12726C8.40809 8.54023 7.89601 9.10739 7.89601 9.7296C7.89601 10.9905 9.95535 12.0092 12.4992 12.0092C13.2977 12.0092 14.052 11.9101 14.7073 11.7283V14.7733Z" fill="#A2FF00"/>
</g>
<defs>
<clipPath id="clip0_1752_99">
<rect width="18" height="18" fill="white"/>
</clipPath>
</defs>
</svg>
