<svg width="23" height="24" viewBox="0 0 23 24" fill="none" xmlns="http://www.w3.org/2000/svg">
<path d="M22.9886 14.9336C22.8373 20.3822 18.7382 23.5858 11.7634 23.7246C4.44807 23.5733 0.512855 19.6255 0.298462 12.2976V12.2597C0.298462 7.6435 3.26248 2.74978 7.34897 0.61824C8.26967 0.138953 9.35434 0.164203 10.2751 0.681287C11.1075 1.14795 11.6498 1.98043 11.7003 2.90113C11.7508 3.56956 11.5994 4.47771 11.4228 5.6128C11.1958 7.07591 10.7418 9.95156 11.2462 11.0363C11.7003 10.2669 12.0787 9.33355 12.4445 8.42548C12.8733 7.3786 13.2769 6.39486 13.794 5.68855C14.2103 5.10834 14.8409 4.76777 15.5598 4.72998C16.7454 4.66685 17.8427 5.42366 18.4355 6.09209C19.2679 7.03804 19.9994 8.00924 20.7057 8.96781C21.0084 9.37142 21.3237 9.78766 21.6265 10.1912C22.9761 11.9318 23.0391 13.3066 22.9886 14.9336Z" fill="url(#paint0_linear_1607_2050)"/>
<defs>
<linearGradient id="paint0_linear_1607_2050" x1="11.6492" y1="0.275391" x2="11.6492" y2="23.7246" gradientUnits="userSpaceOnUse">
<stop stop-color="#A2FF00"/>
<stop offset="1" stop-color="#00FF7F"/>
</linearGradient>
</defs>
</svg>
