<svg width="312" height="140" viewBox="0 0 312 140" fill="none" xmlns="http://www.w3.org/2000/svg">
<g opacity="0.7">
<path d="M90.4385 84.3955H0V139.154H90.4385V84.3955Z" fill="url(#paint0_linear_2069_1720)"/>
<path d="M90.4395 84.3952L131.532 70.6699V139.154H90.4395V84.3952Z" fill="url(#paint1_linear_2069_1720)"/>
<path d="M0 84.3952L41.0923 70.6699H131.531L90.4385 84.3952H0Z" fill="url(#paint2_linear_2069_1720)"/>
<path d="M180.466 13.7227H90.0273V139.153H180.466V13.7227Z" fill="url(#paint3_linear_2069_1720)"/>
<path d="M180.469 13.723L221.561 0V139.153H180.469V13.723Z" fill="url(#paint4_linear_2069_1720)"/>
<path d="M90.0273 13.723L131.12 0H221.558L180.466 13.723H90.0273Z" fill="url(#paint5_linear_2069_1720)"/>
<path d="M270.907 60.7861H180.469V139.153H270.907V60.7861Z" fill="url(#paint6_linear_2069_1720)"/>
<path d="M270.906 60.7865L311.999 47.0635V122.107L270.906 139.153V60.7865Z" fill="url(#paint7_linear_2069_1720)"/>
<path d="M180.469 60.7865L221.561 47.0635H312L270.907 60.7865H180.469Z" fill="url(#paint8_linear_2069_1720)"/>
</g>
<defs>
<linearGradient id="paint0_linear_2069_1720" x1="-2.09358" y1="68.0773" x2="73.2048" y2="238.54" gradientUnits="userSpaceOnUse">
<stop stop-color="#A2FF00"/>
<stop offset="0.22" stop-color="#82EF10"/>
<stop offset="0.71" stop-color="#32C93A"/>
<stop offset="1" stop-color="#00B254"/>
</linearGradient>
<linearGradient id="paint1_linear_2069_1720" x1="185.072" y1="97.7878" x2="80.5229" y2="131.89" gradientUnits="userSpaceOnUse">
<stop stop-color="#A2FF00"/>
<stop offset="0.22" stop-color="#82EF10"/>
<stop offset="0.71" stop-color="#32C93A"/>
<stop offset="1" stop-color="#00B254"/>
</linearGradient>
<linearGradient id="paint2_linear_2069_1720" x1="37.5534" y1="42.4682" x2="59.2503" y2="108.568" gradientUnits="userSpaceOnUse">
<stop stop-color="#A2FF00"/>
<stop offset="1" stop-color="#00FF7F"/>
</linearGradient>
<linearGradient id="paint3_linear_2069_1720" x1="63.5405" y1="77.4027" x2="272.488" y2="70.5078" gradientUnits="userSpaceOnUse">
<stop stop-color="#A2FF00"/>
<stop offset="1" stop-color="#00FF7F"/>
</linearGradient>
<linearGradient id="paint4_linear_2069_1720" x1="301.716" y1="58.9104" x2="159.175" y2="105.403" gradientUnits="userSpaceOnUse">
<stop stop-color="#A2FF00"/>
<stop offset="0.22" stop-color="#82EF10"/>
<stop offset="0.71" stop-color="#32C93A"/>
<stop offset="1" stop-color="#00B254"/>
</linearGradient>
<linearGradient id="paint5_linear_2069_1720" x1="127.584" y1="-28.2017" x2="149.279" y2="37.8968" gradientUnits="userSpaceOnUse">
<stop stop-color="#A2FF00"/>
<stop offset="1" stop-color="#00FF7F"/>
</linearGradient>
<linearGradient id="paint6_linear_2069_1720" x1="155.158" y1="100.919" x2="360.675" y2="94.1347" gradientUnits="userSpaceOnUse">
<stop stop-color="#A2FF00"/>
<stop offset="1" stop-color="#00FF7F"/>
</linearGradient>
<linearGradient id="paint7_linear_2069_1720" x1="374.431" y1="84.8022" x2="257.189" y2="123.042" gradientUnits="userSpaceOnUse">
<stop stop-color="#A2FF00"/>
<stop offset="0.22" stop-color="#82EF10"/>
<stop offset="0.71" stop-color="#32C93A"/>
<stop offset="1" stop-color="#00B254"/>
</linearGradient>
<linearGradient id="paint8_linear_2069_1720" x1="218.026" y1="18.8618" x2="239.721" y2="84.9603" gradientUnits="userSpaceOnUse">
<stop stop-color="#A2FF00"/>
<stop offset="1" stop-color="#00FF7F"/>
</linearGradient>
</defs>
</svg>
