<svg width="16" height="16" viewBox="0 0 16 16" fill="none" xmlns="http://www.w3.org/2000/svg">
<path d="M1.24998 10.2357C1.2503 8.10058 1.24967 5.96511 1.25061 3.82965C1.25092 3.18255 1.60234 2.69394 2.19588 2.54235C2.54229 2.45371 2.90123 2.51134 3.25422 2.49913C3.33502 2.49631 3.31153 2.55645 3.31185 2.59748C3.31404 2.76911 3.30965 2.94107 3.31373 3.11302C3.32187 3.4801 3.59468 3.7526 3.94547 3.74821C4.29 3.74414 4.55341 3.47415 4.56187 3.11302C4.56563 2.95673 4.57283 2.79981 4.55968 2.64446C4.5484 2.51416 4.60039 2.496 4.71472 2.49662C5.5585 2.50132 6.40229 2.50383 7.24608 2.49474C7.39204 2.49318 7.41835 2.53859 7.40895 2.66732C7.3983 2.81766 7.40331 2.96926 7.4077 3.12022C7.41741 3.47948 7.68583 3.7479 8.03099 3.74821C8.37583 3.74852 8.64551 3.47979 8.65522 3.12116C8.65991 2.94952 8.65897 2.77757 8.65522 2.60562C8.65365 2.53264 8.66242 2.49631 8.75356 2.49694C9.62836 2.50069 10.5035 2.50038 11.3783 2.49725C11.4584 2.49694 11.4722 2.52606 11.4704 2.59654C11.466 2.76818 11.466 2.94044 11.4697 3.11208C11.4779 3.47948 11.75 3.75197 12.1008 3.74821C12.4454 3.74445 12.7097 3.47478 12.7179 3.11396C12.7219 2.94201 12.7176 2.77005 12.7197 2.59842C12.7204 2.55801 12.695 2.49631 12.7764 2.49913C13.1241 2.5126 13.4771 2.45309 13.8182 2.54736C14.3939 2.70679 14.7434 3.17472 14.749 3.78204C14.754 4.31825 14.7503 4.85478 14.7503 5.39131C14.7503 8.063 14.7497 10.7347 14.7506 13.4067C14.7506 13.9473 14.5357 14.361 14.0487 14.6166C13.8655 14.7128 13.666 14.7485 13.4611 14.7485C9.82036 14.7491 6.17991 14.7507 2.53947 14.7475C1.80781 14.7469 1.30323 14.2505 1.25029 13.5003C1.21897 13.0562 0.844062 12.7809 0.439394 12.9052C0.178176 12.9854 0.00590992 13.2209 0.000899315 13.5044C-0.0197735 14.7078 0.94241 15.8171 2.13856 15.9694C2.16675 15.9731 2.20277 15.9609 2.21906 15.9991H13.8125C14.5586 15.933 15.1218 15.5537 15.5631 14.9709C15.8227 14.6282 15.963 14.2389 16 13.8117V3.43657C15.9289 3.25459 15.9107 3.05852 15.8428 2.87467C15.5017 1.95258 14.5971 1.28888 13.6152 1.2538C13.3549 1.24472 13.0943 1.24472 12.8341 1.25192C12.7329 1.25474 12.7125 1.22217 12.7169 1.12946C12.7241 0.963144 12.7223 0.796203 12.7179 0.629575C12.7085 0.270009 12.441 0.00127451 12.0958 2.1671e-05C11.7513 -0.00091796 11.4804 0.267503 11.47 0.625503C11.4653 0.797142 11.4672 0.969095 11.47 1.14105C11.471 1.21152 11.4675 1.25224 11.3736 1.25161C10.4985 1.24754 9.62366 1.24817 8.74855 1.25098C8.67088 1.2513 8.65302 1.22593 8.6549 1.15326C8.6596 0.981623 8.65929 0.809671 8.65553 0.637718C8.6477 0.269696 8.37708 -0.00279722 8.02629 2.1671e-05C7.68144 0.00315378 7.41616 0.272515 7.40739 0.632707C7.40331 0.804659 7.40457 0.976612 7.40739 1.14856C7.40864 1.21403 7.40488 1.25161 7.31937 1.2513C6.4286 1.24785 5.53815 1.24848 4.64769 1.25067C4.57722 1.25098 4.55968 1.22812 4.56124 1.16172C4.56531 0.989767 4.56531 0.817814 4.56218 0.646175C4.5556 0.274707 4.29157 0.00190093 3.94077 2.1671e-05C3.58998 -0.00154438 3.32093 0.271262 3.31341 0.640224C3.30997 0.806852 3.30777 0.973793 3.31466 1.14011C3.31874 1.22969 3.28992 1.25067 3.20254 1.25161C2.83858 1.25537 2.47432 1.23156 2.11068 1.28043C1.08617 1.41793 0.171912 2.32686 0.0331593 3.35169C0.0128012 3.50171 -4.00543e-05 3.65143 -4.00543e-05 3.80271C0.000585556 5.9695 -4.00543e-05 8.13598 0.000585556 10.3025C0.000585556 10.6351 0.152806 10.8722 0.420601 10.9633C0.808042 11.0955 1.21114 10.8324 1.24654 10.423C1.25217 10.361 1.24998 10.2984 1.24998 10.2357Z" fill="#6C6C6C"/>
<path d="M3.44417 10.5212C3.65528 10.6818 3.87139 10.8356 4.08312 10.9954C4.24944 11.1203 4.2817 11.2181 4.21968 11.4148C4.14169 11.6622 4.05744 11.9078 3.9782 12.1546C3.91775 12.3431 3.94876 12.4706 4.07185 12.5608C4.19839 12.6535 4.3196 12.6447 4.48654 12.5254C4.68136 12.3867 4.87429 12.2451 5.06817 12.1051C5.30245 11.9356 5.38577 11.9363 5.62475 12.1091C5.81862 12.2492 6.01344 12.3885 6.20606 12.5301C6.33417 12.6241 6.46509 12.6635 6.60854 12.5658C6.7357 12.4787 6.77078 12.3488 6.7119 12.163C6.63172 11.9109 6.54558 11.6606 6.46634 11.4082C6.40714 11.2193 6.43941 11.1194 6.59695 11.0001C6.80022 10.8463 7.00726 10.6972 7.21147 10.545C7.38499 10.4156 7.43729 10.291 7.38655 10.1353C7.33331 9.97243 7.22494 9.90665 7.00726 9.90571C6.88229 9.9054 6.75731 9.90571 6.63234 9.9054C6.49171 9.9054 6.35108 9.90634 6.21076 9.90509C6.05259 9.90352 5.94829 9.83367 5.90006 9.6755C5.82426 9.42744 5.74001 9.18188 5.65857 8.9357C5.59499 8.74495 5.4979 8.65882 5.34724 8.65726C5.19596 8.65538 5.09291 8.74276 5.0309 8.92944C4.94884 9.17562 4.86458 9.42086 4.79004 9.66924C4.74024 9.8343 4.63281 9.9054 4.46806 9.9054C4.19713 9.90571 3.92652 9.90477 3.65559 9.90603C3.46109 9.90697 3.35679 9.97399 3.30292 10.1281C3.2503 10.2787 3.29227 10.4056 3.44417 10.5212Z" fill="#6C6C6C"/>
<path d="M11.4698 6.55518C11.4663 6.89721 11.7454 7.18223 12.0874 7.18567C12.4295 7.18912 12.7145 6.91005 12.7182 6.56802C12.7217 6.226 12.4426 5.94098 12.1006 5.93753C11.7586 5.93409 11.4735 6.21316 11.4698 6.55518Z" fill="#6C6C6C"/>
<path d="M8.92377 7.0162C9.42741 7.4146 9.99996 7.04814 9.99902 6.56048C9.99871 6.21845 9.71588 5.93687 9.37385 5.9375C8.88619 5.93844 8.52036 6.51349 8.92377 7.0162Z" fill="#6C6C6C"/>
<path d="M6.20374 6.10807C5.68225 6.76236 6.45588 7.53411 7.10861 7.01512C7.10861 7.01512 7.10892 7.01512 7.10892 7.01481C7.6301 6.36051 6.85647 5.58876 6.20374 6.10807Z" fill="#6C6C6C"/>
<path d="M3.31362 6.56834C3.31863 7.05664 3.89807 7.41652 4.3967 7.0084C4.7901 6.50132 4.41831 5.93221 3.93096 5.93754C3.58893 5.94098 3.30986 6.22632 3.31362 6.56834Z" fill="#6C6C6C"/>
<path d="M11.4693 9.28268C11.4709 9.6247 11.754 9.90565 12.096 9.9044C12.4378 9.90315 12.719 9.62 12.7178 9.27798C12.7162 8.93595 12.4331 8.655 12.091 8.65625C11.7493 8.65751 11.4681 8.94096 11.4693 9.28268Z" fill="#6C6C6C"/>
<path d="M9.37636 9.90447C9.71838 9.90384 9.99996 9.62101 9.99902 9.27899C9.99808 8.79069 9.42209 8.42549 8.9197 8.82984C8.52192 9.33349 8.88932 9.90572 9.37636 9.90447Z" fill="#6C6C6C"/>
<path d="M11.6458 11.5413C11.2389 12.0408 11.6001 12.619 12.0884 12.6231C12.4304 12.6262 12.7151 12.3468 12.7182 12.0048C12.7223 11.5172 12.1529 11.1463 11.6458 11.5413Z" fill="#6C6C6C"/>
<path d="M8.92094 11.5472C8.52066 12.0528 8.89025 12.6262 9.37854 12.6231C9.72057 12.6212 10.0012 12.3375 9.99901 11.9954C9.99619 11.5081 9.42114 11.146 8.92094 11.5472Z" fill="#6C6C6C"/>
</svg>
