<svg width="27" height="24" viewBox="0 0 27 24" fill="none" xmlns="http://www.w3.org/2000/svg">
<path d="M23.4517 3.91184C22.6619 3.73457 21.8706 3.5821 21.0786 3.44648V0.83235C21.0786 0.372492 20.7061 0 20.2462 0C19.7864 0 19.4139 0.372492 19.4139 0.83235V3.20529C15.3517 2.65976 11.2705 2.65976 7.20832 3.20529V0.83235C7.20832 0.372492 6.83583 0 6.37597 0C5.91611 0 5.54362 0.372492 5.54362 0.83235V3.44648C4.75157 3.5821 3.96028 3.73457 3.17051 3.91184C2.17358 4.13534 1.34868 4.90809 1.06762 5.87996C-0.360038 10.8287 -0.355974 15.8465 1.08049 20.7952C1.35681 21.7481 2.13159 22.4897 3.10211 22.7315C6.48975 23.5774 9.90042 24 13.3118 24C16.7197 24 20.1291 23.5774 23.5133 22.7335C24.4886 22.4904 25.2667 21.7441 25.5437 20.7871C26.9775 15.8411 26.9809 10.826 25.5546 5.87996C25.2735 4.90809 24.4486 4.13534 23.4517 3.91184ZM23.9454 20.3238C23.8337 20.7078 23.5059 21.0201 23.1103 21.1189C16.6066 22.7417 10.0101 22.741 3.50507 21.1169C3.11362 21.0187 2.78921 20.7106 2.67882 20.3313C1.33175 15.69 1.32769 10.9831 2.66731 6.34185C2.78176 5.94497 3.12242 5.62869 3.53487 5.53591C4.20341 5.3859 4.87339 5.26111 5.54362 5.142V6.38045C5.54362 6.84031 5.91611 7.2128 6.37597 7.2128C6.83583 7.2128 7.20832 6.84031 7.20832 6.38045V4.88532C11.27 4.31938 15.3522 4.31938 19.4139 4.88532V6.38045C19.4139 6.84031 19.7864 7.2128 20.2462 7.2128C20.7061 7.2128 21.0786 6.84031 21.0786 6.38045V5.142C21.7488 5.26111 22.4188 5.3859 23.0873 5.53591C23.4998 5.62869 23.8404 5.94497 23.9549 6.34185C25.2931 10.9804 25.2898 15.6846 23.9454 20.3238Z" fill="#DCDCDC"/>
<path d="M21.895 11.1382C16.1518 9.24048 10.3755 9.24183 4.72447 11.1395C4.28831 11.2858 4.05398 11.7578 4.20027 12.1933C4.34724 12.6295 4.82267 12.8597 5.25408 12.7175C10.555 10.935 15.9778 10.935 21.3722 12.7189C21.4588 12.7473 21.5469 12.7609 21.6336 12.7609C21.983 12.7609 22.3081 12.5394 22.4239 12.1899C22.5682 11.7531 22.3312 11.2824 21.895 11.1382Z" fill="#DCDCDC"/>
</svg>
