<svg width="13" height="17" viewBox="0 0 13 17" fill="none" xmlns="http://www.w3.org/2000/svg">
<path d="M12.6548 9.27105L6.8816 16.4829C6.62777 16.8119 6.23282 17 5.8191 17H3.97622C3.49667 17 3.06413 16.7555 2.8103 16.3512C2.56582 15.9469 2.53758 15.4486 2.75388 15.0161L5.12331 10.2865C5.17031 10.1831 5.13272 10.0985 5.1139 10.0608C5.08572 10.0138 5.0199 9.94802 4.90707 9.94802H1.37166C0.788705 9.94802 0.280982 9.59071 0.0835062 9.0454C-0.11397 8.50003 0.0459163 7.89825 0.487813 7.53153L9.14767 0.319715C9.39215 0.112885 9.7024 0 10.0221 0H10.9247C11.4231 0 11.8838 0.272713 12.1189 0.705198C12.3634 1.13774 12.3539 1.6737 12.0907 2.08742L9.2135 6.68532C9.14767 6.78874 9.18526 6.88274 9.20409 6.9298C9.23226 6.9768 9.28868 7.05198 9.41092 7.05198H11.5923C12.1189 7.05198 12.589 7.35288 12.8147 7.82301C13.0497 8.30255 12.9839 8.85733 12.6548 9.27105Z" fill="#A2FF00"/>
</svg>
