<svg width="30" height="35" viewBox="0 0 30 35" fill="none" xmlns="http://www.w3.org/2000/svg">
<path d="M27.8587 34.3819C27.8323 34.388 27.8121 34.4189 27.7892 34.4374H2.2454C2.2137 34.3449 2.11774 34.3625 2.05259 34.3361C1.27696 34.0183 0.864939 33.2946 1.01108 32.4926C1.16075 31.6747 1.73829 31.2063 2.62573 31.2054C10.9129 31.2037 19.2 31.2037 27.4872 31.2054C28.3764 31.2054 29.086 31.8085 29.1837 32.6334C29.2867 33.498 28.7911 34.1503 27.8587 34.3819Z" fill="#292929"/>
<path d="M27.7583 3.78559C27.3894 3.3947 27.0126 3.00909 26.6464 2.61467C25.4508 1.32489 23.9576 0.728864 22.2136 0.696289C20.5355 0.724462 19.0882 1.28968 17.8926 2.48789C13.0478 7.33975 8.19944 12.1872 3.35023 17.0338C2.77445 17.6096 2.40821 18.2936 2.24093 19.0851C1.89406 20.7244 1.54806 22.3646 1.20471 24.0047C1.02951 24.8411 0.828779 25.6696 1.05328 26.5376C1.50228 28.2791 3.26571 29.3875 5.01946 29.0265C6.88942 28.6409 8.7629 28.272 10.6364 27.9066C11.5273 27.7332 12.3426 27.4251 12.9994 26.7692C17.8891 21.8847 22.7885 17.01 27.6694 12.1168C29.9408 9.84095 29.9637 6.1248 27.7583 3.78559ZM25.2659 9.9642C20.4167 14.8389 15.5578 19.7049 10.7024 24.5744C10.6073 24.6703 10.5096 24.7337 10.3679 24.7575C8.42923 25.0771 6.49148 25.4046 4.55373 25.7294C4.48066 25.7418 4.40494 25.7382 4.30634 25.7435C4.60039 24.238 4.88916 22.7581 5.17881 21.2782C5.22723 21.0308 5.30735 20.786 5.32407 20.5369C5.37162 19.829 5.7273 19.3272 6.2256 18.8324C10.8714 14.2192 15.4944 9.58299 20.1235 4.953C21.2786 3.79704 22.9276 3.78824 24.0818 4.93627C24.4788 5.33069 24.8812 5.72158 25.2694 6.1248C26.3998 7.29837 26.4113 8.81265 25.2659 9.9642Z" fill="#292929"/>
</svg>
