<svg width="14" height="22" viewBox="0 0 14 22" fill="none" xmlns="http://www.w3.org/2000/svg">
<path d="M13.2416 7.79019C12.6337 8.44754 12.0235 9.10227 11.4139 9.75805C7.91185 13.5281 4.40977 17.2982 0.907111 21.0672C0.823246 21.1579 0.740537 21.2517 0.642792 21.3288C0.501089 21.4405 0.336251 21.4599 0.177197 21.3571C0.0245048 21.2586 -0.0396952 21.1196 0.0250832 20.954C0.0915967 20.7842 0.171413 20.618 0.248916 20.4518C1.61678 17.5058 2.9858 14.5603 4.35425 11.6143C4.38027 11.5587 4.40572 11.5016 4.43985 11.4255L4.19519 11.4245C2.9644 11.4245 1.73361 11.425 0.502245 11.424C0.0545805 11.4234 -0.109101 11.1855 0.0915967 10.8211C2.02801 7.30897 3.96615 3.79786 5.90025 0.284643C5.9685 0.160406 6.06451 0.0723401 6.18828 0H12.743C13.0455 0.221738 13.0693 0.360128 12.8529 0.669408C11.3948 2.75679 9.93618 4.84364 8.47751 6.93102C8.43702 6.98921 8.39827 7.04844 8.35316 7.11554C8.43586 7.16796 8.52204 7.14228 8.59954 7.1428C10.0229 7.14437 11.4463 7.14437 12.8697 7.14385C13.0259 7.14332 13.1791 7.14437 13.2931 7.26389C13.4359 7.41381 13.4232 7.59414 13.2416 7.79019Z" fill="#A2FF00"/>
</svg>
