<svg width="12" height="20" viewBox="0 0 12 20" fill="none" xmlns="http://www.w3.org/2000/svg">
<path d="M11.8668 7.55767C11.3221 8.12893 10.7752 8.6979 10.2289 9.26778C7.09042 12.5441 3.95193 15.8203 0.812931 19.0957C0.737773 19.1745 0.663652 19.256 0.576055 19.323C0.449064 19.42 0.30134 19.4369 0.1588 19.3476C0.0219606 19.262 -0.0355739 19.1412 0.022479 18.9973C0.0820868 18.8497 0.153616 18.7053 0.223072 18.5609C1.44892 16.0007 2.67581 13.441 3.90217 10.8809C3.9255 10.8326 3.94831 10.7829 3.97889 10.7169L3.9794 10.716H3.97837H3.75963C2.65663 10.716 1.55362 10.7164 0.450101 10.7155C0.0489138 10.715 -0.0977734 10.5082 0.0820868 10.1916C1.81745 7.13948 3.55438 4.08825 5.28767 1.0352C5.34883 0.927238 5.43487 0.850707 5.5458 0.787842H11.42C11.6911 0.980537 11.7124 1.1008 11.5185 1.36957C10.2118 3.18355 8.90457 4.99706 7.59734 6.81104C7.56106 6.8616 7.52633 6.91308 7.4859 6.97139C7.56002 7.01694 7.63725 6.99462 7.70671 6.99508C8.98232 6.99644 10.2579 6.99644 11.5335 6.99599C11.6735 6.99553 11.8108 6.99644 11.913 7.10031C12.041 7.23059 12.0296 7.3873 11.8668 7.55767Z" fill="#A2FF00"/>
</svg>
