<svg width="18" height="23" viewBox="0 0 18 23" fill="none" xmlns="http://www.w3.org/2000/svg">
<path d="M17.1213 12.5432L9.3104 22.3003C8.96698 22.7456 8.43263 23 7.8729 23H5.37959C4.73079 23 4.14559 22.6692 3.80217 22.1222C3.4714 21.5752 3.4332 20.901 3.72584 20.3158L6.93154 13.917C6.99513 13.7771 6.94427 13.6627 6.9188 13.6117C6.88068 13.5481 6.79162 13.4591 6.63897 13.4591H1.85578C1.06707 13.4591 0.380153 12.9757 0.112979 12.2379C-0.154195 11.5 0.062122 10.6859 0.659982 10.1897L12.3763 0.432556C12.707 0.152726 13.1268 0 13.5593 0H14.7805C15.4548 0 16.0781 0.368965 16.3961 0.954092C16.7269 1.5393 16.7142 2.26442 16.358 2.82415L12.4653 9.04485C12.3763 9.18477 12.4271 9.31195 12.4526 9.37562C12.4907 9.43921 12.567 9.54092 12.7324 9.54092H15.6837C16.3961 9.54092 17.0322 9.94801 17.3375 10.5841C17.6555 11.2329 17.5665 11.9835 17.1213 12.5432Z" fill="#A2FF00"/>
</svg>
