<svg width="28" height="25" viewBox="0 0 28 25" fill="none" xmlns="http://www.w3.org/2000/svg">
<path d="M26.9758 7.02307C26.8612 6.66173 26.5398 6.39544 26.1566 6.34565C24.1923 6.08993 23.6476 4.31643 23.6235 4.23496C22.6262 0.876563 19.6963 0 18.2343 0H18.177L17.6505 0.00829793L14.2112 9.21447H11.5583C10.8431 9.21447 10.1642 9.5132 9.64221 10.0563C5.9021 13.9624 1.57209 14.0077 1.52985 14.0077H0.97464L0.795103 14.5304C-0.268541 17.6505 -0.265524 20.6173 0.807172 23.3496L1.02141 23.892L1.60227 23.8362C1.6264 23.8347 4.08259 23.6136 8.29643 24.5415C9.47474 24.801 11.1026 24.9594 12.7305 24.9594C15.5141 24.9587 18.2992 24.4978 18.8393 23.2923C18.948 23.0494 19.0385 22.6549 18.8152 22.1992C19.2331 21.8907 19.6495 21.4373 19.7521 20.8195C19.8502 20.2394 19.6586 19.6684 19.1833 19.1154C19.4805 18.7035 19.7627 18.1234 19.6872 17.4694C19.6495 17.1548 19.5198 16.7588 19.1652 16.3718C19.5152 16.0195 19.8366 15.5443 19.8698 14.9672C19.879 14.7983 19.844 14.5952 19.777 14.3806L26.7073 8.00373C26.9834 7.75178 27.086 7.37611 26.9758 7.02307ZM8.62835 23.0328C5.34991 22.3109 3.09589 22.2445 2.0579 22.2686C1.35031 20.1504 1.36389 17.9333 2.09863 15.5209C3.52889 15.3881 7.3384 14.6964 10.7571 11.1253C10.9835 10.8891 11.2686 10.7594 11.5583 10.7594H13.634L13.3238 11.5896C13.0703 11.4626 12.7575 11.4742 12.5163 11.6548C12.1738 11.9113 12.1059 12.3956 12.3624 12.7366C13.334 14.0318 14.4384 14.0454 14.6466 14.0424C16.5823 13.8161 17.8285 14.3479 17.8526 14.3486C18.2102 14.5908 18.3309 14.7862 18.3264 14.8805C18.3158 15.077 17.9871 15.3947 17.6551 15.6054H14.5425C14.1155 15.6054 13.77 15.9509 13.77 16.3779C13.77 16.8048 14.1155 17.1503 14.5425 17.1503H17.6532C17.9383 17.3164 18.1333 17.4918 18.1514 17.6467C18.1772 17.856 17.9973 18.1489 17.806 18.3686H14.888C14.461 18.3686 14.1155 18.7141 14.1155 19.1411C14.1155 19.568 14.461 19.9135 14.888 19.9135H17.7978C18.1291 20.219 18.2476 20.4521 18.2283 20.5638C18.2073 20.6942 18.0491 20.8472 17.8559 20.9825H15.7631C15.3361 20.9825 14.9906 21.3279 14.9906 21.7549C14.9906 22.1819 15.3361 22.5274 15.7631 22.5274H17.0256L17.1466 22.6149C17.216 22.6647 17.2688 22.7084 17.308 22.7446C16.3847 23.321 12.1286 23.8022 8.62835 23.0328ZM18.8119 13.1678C18.7429 13.1158 18.7017 13.0647 18.6236 13.0127C18.5579 12.9805 16.9999 12.2344 14.6344 12.4981L18.7081 1.59169C19.6088 1.73427 21.4419 2.31512 22.1389 4.66268C22.1676 4.76301 22.7635 6.80204 24.8591 7.60392L18.8119 13.1678Z" fill="#DCDCDC"/>
</svg>
