<svg width="26" height="24" viewBox="0 0 26 24" fill="none" xmlns="http://www.w3.org/2000/svg">
<path d="M24.8947 1.5749C24.4328 0.524442 23.5836 0.00393135 22.4494 0.00314508C15.8542 -0.00157254 9.25901 0.00157254 2.6638 0C2.34087 0 2.02803 0.0471762 1.72374 0.158826C-0.0702291 0.816147 -0.574029 3.03421 0.73787 4.49117C3.52469 7.58671 6.30917 10.6854 9.0991 13.7786C9.24581 13.9413 9.30791 14.1041 9.30636 14.325C9.29704 15.756 9.3017 17.1878 9.3017 18.6196C9.3017 20.0514 9.30093 21.4824 9.30325 22.9142C9.30325 23.0408 9.30248 23.1721 9.33353 23.2924C9.51207 23.9851 10.2759 24.2257 10.8589 23.7587C12.3858 22.536 13.9034 21.3008 15.4257 20.0719C15.7028 19.8478 15.8232 19.56 15.8224 19.2007C15.8162 17.5928 15.8263 15.9841 15.8131 14.3761C15.8107 14.1096 15.8922 13.9233 16.0669 13.7298C18.8452 10.6524 21.6188 7.5702 24.3878 4.48409C25.1563 3.62785 25.362 2.63951 24.8947 1.5749ZM22.9664 3.25358C20.0779 6.46785 17.1933 9.68605 14.3024 12.898C14.0587 13.1692 13.9508 13.4625 13.9531 13.8273C13.9624 15.4156 13.957 17.0039 13.9578 18.5929C13.9578 18.7195 13.9632 18.8304 13.8413 18.9294C12.9618 19.6363 12.0901 20.3518 11.164 21.1074V20.7607C11.164 18.4561 11.1593 16.1523 11.1686 13.8478C11.1702 13.4704 11.0522 13.1724 10.803 12.8956C7.9114 9.68369 5.026 6.46628 2.13671 3.25201C1.89607 2.98468 1.76488 2.6969 1.91858 2.34465C2.07616 1.98454 2.37503 1.88076 2.74841 1.88076C9.28462 1.88469 15.8216 1.88469 22.3578 1.88076C22.718 1.88076 23.0122 1.97511 23.1745 2.32028C23.3429 2.68039 23.2156 2.97682 22.9664 3.25358Z" fill="url(#paint0_linear_1225_1029)"/>
<defs>
<linearGradient id="paint0_linear_1225_1029" x1="12.5714" y1="0" x2="12.5714" y2="24" gradientUnits="userSpaceOnUse">
<stop stop-color="#A2FF00"/>
<stop offset="1" stop-color="#00FF7F"/>
</linearGradient>
</defs>
</svg>
