<svg width="22" height="21" viewBox="0 0 22 21" fill="none" xmlns="http://www.w3.org/2000/svg">
<path d="M21.7828 1.37803C21.3787 0.458886 20.6356 0.00343993 19.6432 0.00275194C13.8724 -0.00137597 8.10163 0.00137597 2.33083 0C2.04826 0 1.77453 0.0412791 1.50827 0.138973C-0.0614505 0.714129 -0.502276 2.65494 0.645636 3.92977C3.0841 6.63837 5.52053 9.34972 7.96171 12.0563C8.09008 12.1987 8.14442 12.3411 8.14306 12.5344C8.13491 13.7865 8.13899 15.0394 8.13899 16.2922C8.13899 17.545 8.13831 18.7971 8.14035 20.05C8.14035 20.1607 8.13967 20.2756 8.16684 20.3809C8.32306 20.987 8.99143 21.1975 9.50154 20.7889C10.8376 19.719 12.1655 18.6382 13.4975 17.5629C13.74 17.3668 13.8453 17.115 13.8446 16.8006C13.8392 15.3937 13.848 13.9861 13.8364 12.5791C13.8344 12.3459 13.9057 12.1828 14.0585 12.0136C16.4895 9.32083 18.9165 6.62392 21.3393 3.92358C22.0117 3.17437 22.1917 2.30957 21.7828 1.37803ZM20.0956 2.84688C17.5682 5.65937 15.0441 8.47529 12.5146 11.2857C12.3014 11.5231 12.2069 11.7797 12.209 12.0989C12.2171 13.4886 12.2124 14.8784 12.2131 16.2688C12.2131 16.3796 12.2178 16.4766 12.1112 16.5633C11.3416 17.1817 10.5788 17.8078 9.76848 18.469V18.1656C9.76848 16.1491 9.76441 14.1333 9.77256 12.1168C9.77391 11.7866 9.67067 11.5258 9.45263 11.2836C6.92247 8.47323 4.39775 5.65799 1.86962 2.84551C1.65906 2.61159 1.54427 2.35979 1.67876 2.05157C1.81664 1.73648 2.07815 1.64566 2.40486 1.64566C8.12405 1.6491 13.8439 1.6491 19.5631 1.64566C19.8783 1.64566 20.1357 1.72822 20.2777 2.03025C20.425 2.34534 20.3136 2.60471 20.0956 2.84688Z" fill="#A2FF00"/>
</svg>
