<svg width="36" height="36" viewBox="0 0 36 36" fill="none" xmlns="http://www.w3.org/2000/svg">
<path d="M4.596 11.265C5.84456 8.7803 7.75923 6.69158 10.1262 5.2321C12.4932 3.77261 15.2192 2.99981 18 3C22.0425 3 25.4385 4.4865 28.035 6.9075L23.7345 11.2095C22.179 9.723 20.202 8.9655 18 8.9655C14.0925 8.9655 10.785 11.6055 9.6075 15.15C9.3075 16.05 9.1365 17.01 9.1365 18C9.1365 18.99 9.3075 19.95 9.6075 20.85C10.7865 24.396 14.0925 27.0345 18 27.0345C20.0175 27.0345 21.735 26.502 23.079 25.602C23.8582 25.089 24.5252 24.4233 25.0398 23.6452C25.5544 22.8671 25.9059 21.9928 26.073 21.075H18V15.273H32.127C32.304 16.254 32.4 17.277 32.4 18.3405C32.4 22.9095 30.765 26.7555 27.927 29.3655C25.446 31.6575 22.05 33 18 33C16.03 33.0008 14.0791 32.6133 12.2588 31.8598C10.4386 31.1063 8.78468 30.0014 7.39164 28.6084C5.9986 27.2153 4.89374 25.5614 4.1402 23.7412C3.38666 21.9209 2.99921 19.97 3 18C3 15.579 3.579 13.29 4.596 11.265Z" fill="#007AFF"/>
</svg>
