<svg width="34" height="34" viewBox="0 0 34 34" fill="none" xmlns="http://www.w3.org/2000/svg">
<g clip-path="url(#clip0_302_703)">
<path d="M34 15.2733C33.9221 14.1564 33.504 13.1706 32.7821 12.3274C32.2506 11.7047 31.62 11.1751 31.0114 10.6286C29.9503 9.67645 28.8945 8.71899 27.8386 7.76065C27.0042 7.00336 26.1743 6.23987 25.339 5.48259C23.9386 4.21424 22.5356 2.94766 21.1423 1.67135C20.5098 1.09209 19.8207 0.604059 19.0129 0.286972C18.555 0.107172 18.0775 0.053143 17.5974 0H16.2688C15.213 0.0930002 14.2918 0.516373 13.4654 1.1594C13.1084 1.43663 12.7851 1.75726 12.4476 2.06018C11.5521 2.86441 10.6646 3.67927 9.77262 4.48881C8.97898 5.2089 8.18356 5.9281 7.39169 6.64996C6.5263 7.44002 5.65825 8.22565 4.78666 9.00774C4.17017 9.56131 3.55899 10.122 2.94428 10.6773C2.36233 11.2034 1.7547 11.7065 1.24184 12.3026C0.523486 13.1361 0.105406 14.1068 0 15.2069V15.4062C0.0540315 15.539 0.0540315 15.6719 0 15.8047V29.086C0.067318 29.9292 0.36582 30.6972 0.823759 31.3942C1.79367 32.8689 3.11788 33.8105 4.91333 34H29.0194C29.4374 33.9212 29.867 33.9291 30.2763 33.7679C31.1567 33.4207 31.9362 32.9292 32.55 32.2091C33.3782 31.2383 33.938 30.1427 33.9655 28.831V28.8274C33.9672 28.8186 33.9681 28.8088 33.9681 28.7991C33.9734 28.6954 33.9362 28.5865 34 28.4882V15.8047C33.9451 15.6719 33.9451 15.539 34 15.4062V15.2733ZM28.084 30.7397C24.3549 30.7432 20.625 30.7414 16.895 30.7414C13.2209 30.7414 9.54675 30.7414 5.87261 30.7406C4.34289 30.7406 3.39513 29.7902 3.39513 28.2552C3.39424 24.2607 3.39513 20.2652 3.39247 16.2697C3.39247 15.9695 3.41019 15.6719 3.4651 15.3778C3.55191 14.9128 3.81764 14.5718 4.17017 14.2547C6.7938 11.8934 9.40326 9.51702 12.018 7.14507C13.1323 6.13359 14.2404 5.11501 15.3653 4.11592C16.1501 3.41798 17.5381 3.23287 18.5009 4.11947C22.1653 7.4905 25.8705 10.8181 29.5473 14.1759C30.092 14.6737 30.418 15.3256 30.4197 16.0828C30.4277 20.2218 30.4295 24.3607 30.4197 28.4997C30.4162 29.7928 29.4135 30.7388 28.084 30.7397Z" fill="#848484"/>
</g>
<defs>
<clipPath id="clip0_302_703">
<rect width="34" height="34" fill="white"/>
</clipPath>
</defs>
</svg>
