<svg width="35" height="34" viewBox="0 0 35 34" fill="none" xmlns="http://www.w3.org/2000/svg">
<path d="M31.4287 7.78372L20.1569 0.739156C18.5802 -0.247559 16.6147 -0.246677 15.0311 0.743565L3.76805 7.78284C2.75136 8.41772 2.0133 9.37798 1.68969 10.4873C-0.165581 16.8405 -0.207907 23.2828 1.56359 29.6343C1.97362 31.1042 3.21517 32.2682 4.72743 32.5988C8.99791 33.5335 13.2975 34 17.5971 34C21.8975 34 26.1971 33.5335 30.4676 32.5988C31.9789 32.2682 33.2205 31.1042 33.6305 29.6343C35.402 23.2828 35.3597 16.8405 33.5044 10.4873C33.1808 9.37886 32.4436 8.4186 31.4287 7.78372ZM31.5424 29.0523C31.3458 29.7595 30.7418 30.3203 30.0037 30.4826C21.7732 32.2832 13.4236 32.2832 5.19125 30.4826C4.45231 30.3203 3.84829 29.7595 3.65166 29.0523C1.99038 23.0959 2.03006 17.0539 3.7707 11.0939C3.94441 10.497 4.35179 9.97318 4.91613 9.62047L16.1791 2.5812C16.6183 2.30697 17.1094 2.17029 17.5997 2.17029C18.0873 2.17029 18.5749 2.3052 19.0088 2.57679L30.2797 9.62135C30.8432 9.97318 31.2497 10.497 31.4234 11.0939C33.164 17.0539 33.2037 23.0959 31.5424 29.0523Z" fill="#848484"/>
</svg>
