<svg width="14" height="16" viewBox="0 0 14 16" fill="none" xmlns="http://www.w3.org/2000/svg">
<path d="M12.3647 7.71961C12.233 7.00225 11.7516 6.43411 11.108 6.23634C10.4975 6.04914 9.88482 5.91031 9.27128 5.80738C9.8987 5.2107 10.2949 4.37349 10.2949 3.4415C10.2949 1.63641 8.82641 0.167969 7.02132 0.167969C5.21622 0.167969 3.74778 1.63641 3.74778 3.4415C3.74778 4.37343 4.14394 5.21058 4.7713 5.80732C4.15765 5.91025 3.54485 6.04908 2.93423 6.23634C2.29103 6.43411 1.80964 7.0027 1.68109 7.70523L0.521446 13.1695L0.5183 13.1848C0.32907 14.2181 0.950696 15.2295 1.90358 15.4385C3.6017 15.812 5.31196 15.999 7.02222 15.999C8.73157 15.999 10.4414 15.812 12.1391 15.4389C13.0919 15.229 13.7136 14.2177 13.5212 13.1695L12.3647 7.71961ZM7.02132 1.27278C8.21737 1.27278 9.19004 2.24545 9.19004 3.4415C9.19004 4.63711 8.21737 5.60977 7.02132 5.60977C5.82526 5.60977 4.8526 4.63711 4.8526 3.4415C4.8526 2.24545 5.82526 1.27278 7.02132 1.27278ZM11.9017 14.3602C8.6637 15.0721 5.37938 15.0717 2.14046 14.3597C1.77009 14.2784 1.52558 13.8356 1.60378 13.3902L2.76478 7.91963C2.82097 7.61354 3.01469 7.36723 3.25831 7.29261C5.75469 6.52715 8.28659 6.52626 10.7839 7.29261C11.0279 7.36723 11.2221 7.61354 11.281 7.93401L12.4375 13.3835C12.5198 13.8311 12.2743 14.2784 11.9017 14.3602Z" fill="#DCDCDC"/>
<path d="M7.82028 10.0462L7.02279 7.5918L6.22531 10.0462H3.64453L5.7324 11.5631L4.93492 14.0176L7.02279 12.5007L9.11066 14.0176L8.31318 11.5631L10.4011 10.0462H7.82028Z" fill="#DCDCDC"/>
</svg>
