<svg width="24" height="20" viewBox="0 0 24 20" fill="none" xmlns="http://www.w3.org/2000/svg">
<path d="M23.3398 3.98518C23.0124 2.52302 21.9431 1.38826 20.6228 1.10455C14.9053 -0.128439 9.1004 -0.128439 3.38284 1.10455C2.05168 1.39918 1.00416 2.52302 0.654988 4.03972C-0.228832 8.01149 -0.21791 12.0378 0.66591 15.9986C0.993239 17.4498 2.05168 18.5846 3.39376 18.8901C6.26346 19.5012 9.14409 19.8176 12.0138 19.8176C14.8835 19.8176 17.7532 19.5012 20.5901 18.8901C21.9213 18.6064 22.9907 17.4607 23.318 15.9877C24.2236 11.8959 24.2236 7.84779 23.3398 3.98518ZM22.5432 5.91645L21.5613 6.40748L14.698 9.84459C13.8469 10.2701 12.9194 10.4883 11.9919 10.4883C11.0645 10.4883 10.137 10.2701 9.28594 9.83367L2.4554 6.35293L1.60427 5.91645C1.06963 5.64367 0.851385 4.97809 1.12417 4.44344C1.40788 3.90879 2.0626 3.70147 2.59725 3.97426L2.91366 4.13789L10.2788 7.89141C11.3481 8.4479 12.6357 8.4479 13.705 7.89141L21.1248 4.18158L21.5613 3.96334C22.1068 3.70147 22.7615 3.91971 23.0234 4.45436C23.2961 4.98901 23.0779 5.64367 22.5432 5.91645Z" fill="white"/>
</svg>
