<svg version="1.2" xmlns="http://www.w3.org/2000/svg" viewBox="0 0 50 50" width="50" height="50"><style>.a{fill:#fff}</style><path class="a" d="m47.6 12.6c-0.6-2.9-2.8-5.2-5.4-5.8-11.4-2.4-23-2.4-34.4 0-2.7 0.6-4.8 2.9-5.5 5.9-1.8 7.9-1.7 16 0 23.9 0.7 2.9 2.8 5.2 5.5 5.8q8.6 1.8 17.2 1.8c5.7 0 11.5-0.6 17.1-1.8 2.7-0.6 4.8-2.9 5.5-5.8 1.8-8.2 1.8-16.3 0-24zm-1.6 3.9l-1.9 0.9-13.7 6.9c-1.7 0.9-3.6 1.3-5.4 1.3-1.9 0-3.7-0.4-5.4-1.3l-13.7-7-1.7-0.8c-1.1-0.6-1.5-1.9-1-3 0.6-1.1 1.9-1.5 3-0.9l0.6 0.3 14.7 7.5c2.2 1.1 4.7 1.1 6.9 0l14.8-7.4 0.9-0.4c1.1-0.6 2.4-0.1 2.9 0.9 0.5 1.1 0.1 2.4-1 3z"/></svg>