<svg width="16" height="22" viewBox="0 0 16 22" fill="none" xmlns="http://www.w3.org/2000/svg">
<path d="M15.2238 5.80891C14.0212 1.23966 9.16708 -1.19199 4.78965 0.582648C1.97206 1.72496 0.0492526 4.53279 0.00101016 7.56804C-0.0173679 8.72012 0.216378 9.82625 0.591406 10.9077C1.21339 12.703 2.15527 14.3329 3.17869 15.9203C4.41175 17.8316 5.7924 19.6407 7.06623 21.5239C7.20005 21.7215 7.34248 21.8983 7.56244 22H7.90646C8.12584 21.8978 8.27172 21.7232 8.40324 21.525C8.65594 21.1437 8.91955 20.7692 9.18258 20.3948C10.461 18.5765 11.7882 16.791 12.9386 14.8848C13.8121 13.4387 14.5869 11.9455 15.0682 10.3173C15.5075 8.82924 15.6235 7.3274 15.2238 5.80891ZM7.66065 20.1094C6.05199 17.7989 4.33192 15.5619 2.97941 13.0815C2.29999 11.8363 1.72395 10.5482 1.43852 9.14856C1.34376 8.68508 1.28862 8.21644 1.28862 7.74206C1.28633 4.50407 3.69845 1.7554 6.9083 1.3373C10.4294 0.87842 13.703 3.41287 14.1315 6.92538C14.2946 8.26066 14.0206 9.52933 13.5594 10.7693C13.011 12.243 12.2379 13.6006 11.3983 14.9227C10.2744 16.6922 9.02063 18.3721 7.82031 20.0893C7.77207 20.1582 7.7422 20.2277 7.66065 20.1094Z" fill="url(#paint0_linear_770_274)"/>
<path d="M7.75016 3.86452C5.61887 3.8582 3.87468 5.58689 3.86721 7.71071C3.85975 9.84371 5.58326 11.5891 7.70823 11.6C9.84928 11.6103 11.5975 9.87817 11.6015 7.74229C11.605 5.61044 9.87684 3.87026 7.75016 3.86452ZM7.72316 10.3106C6.31609 10.3066 5.1577 9.14534 5.15655 7.73655C5.15483 6.31684 6.31609 5.15328 7.73465 5.15386C9.15436 5.15386 10.3145 6.31742 10.3122 7.7377C10.3105 9.15568 9.14402 10.3146 7.72316 10.3106Z" fill="url(#paint1_linear_770_274)"/>
<defs>
<linearGradient id="paint0_linear_770_274" x1="7.73439" y1="0" x2="7.73439" y2="22" gradientUnits="userSpaceOnUse">
<stop stop-color="#A2FF00"/>
<stop offset="1" stop-color="#00FF7F"/>
</linearGradient>
<linearGradient id="paint1_linear_770_274" x1="7.73435" y1="3.8645" x2="7.73435" y2="11.6" gradientUnits="userSpaceOnUse">
<stop stop-color="#A2FF00"/>
<stop offset="1" stop-color="#00FF7F"/>
</linearGradient>
</defs>
</svg>
