<svg width="15" height="19" viewBox="0 0 15 19" fill="none" xmlns="http://www.w3.org/2000/svg">
<path d="M11.6164 5.57119C11.5268 5.79688 11.4438 6.02355 11.3466 6.24378C11.1694 6.64406 10.9586 7.0255 10.5717 7.27449C10.1135 7.57012 9.60695 7.36973 9.4868 6.8504C9.43589 6.63166 9.43334 6.40945 9.46033 6.18674C9.51124 5.76612 9.64819 5.37031 9.80906 4.97945C10.1237 4.21212 10.1069 3.44628 9.75968 2.69334C9.32134 1.74199 8.58313 1.05154 7.70492 0.487579C7.44782 0.322903 7.17341 0.18402 6.92904 0H6.89085C6.90155 0.469226 6.95755 0.938948 6.88984 1.40718C6.75187 2.36548 6.35527 3.13628 5.41698 3.6184C3.72674 4.48691 3.27975 6.36134 4.13098 7.78142C4.19156 7.8826 4.23534 7.99123 4.26844 8.10531C4.34735 8.37712 4.25673 8.59091 4.04086 8.76253C3.69467 9.03781 3.25327 9.06608 2.87195 8.83842C2.50743 8.62067 2.26917 8.29677 2.08487 7.93121C1.93825 7.63956 1.79926 7.34443 1.65467 7.04682C-1.00084 10.4728 -0.381253 14.9761 2.94781 17.4953C6.34611 20.0661 11.3644 19.2512 13.7363 15.7493C16.0477 12.3383 15.0997 7.85929 11.6164 5.57119ZM10.9062 16.9219C10.839 16.967 10.7662 17.0047 10.6618 17.0667C10.7901 16.7453 10.8991 16.4547 10.9428 16.1456C11.064 15.3019 10.9403 14.5113 10.4256 13.7985C10.1746 13.4503 9.94143 13.0892 9.69859 12.7351C9.22257 12.0402 9.05813 11.254 8.98787 10.4395C8.97667 10.3106 8.9614 10.1816 8.94613 10.0373C8.3021 10.2332 7.7039 10.4911 7.18359 10.9068C6.49528 11.4564 6.01773 12.1369 5.80696 12.9841C5.77896 13.0952 5.74536 13.119 5.63132 13.0823C5.37931 13.0004 5.12068 12.9384 4.86715 12.8616C4.78671 12.8368 4.747 12.8397 4.70678 12.9246C4.328 13.7261 4.03679 14.5495 4.01439 15.4443C4.00777 15.7176 4.02355 15.9884 4.0765 16.2563C4.12945 16.5226 4.21447 16.7795 4.33717 17.0345C1.84712 15.7602 0.289752 12.4166 1.65365 9.2873C1.85679 9.48769 2.06654 9.67221 2.31142 9.81506C3.25633 10.3676 4.50772 10.1151 5.13443 9.23274C5.55241 8.64398 5.51626 8.02446 5.21385 7.40445C5.06163 7.09246 4.88344 6.79435 4.86409 6.43574C4.82082 5.63716 5.16803 5.01169 5.86907 4.65605C6.95093 4.10697 7.6143 3.27863 7.91314 2.14624C7.91722 2.13086 7.9274 2.11697 7.94165 2.08771C8.48436 2.64473 8.92831 3.23151 8.87536 4.04646C8.86059 4.27164 8.78372 4.47947 8.6987 4.68631C8.40749 5.39412 8.22574 6.12077 8.33723 6.89108C8.43651 7.5726 8.76488 8.1063 9.4364 8.3801C10.114 8.65638 10.7509 8.54577 11.3338 8.11821C11.5741 7.94163 11.7773 7.72785 11.9422 7.48431C12.0186 7.37171 12.0578 7.38014 12.1443 7.47141C13.0302 8.40441 13.6096 9.49464 13.774 10.7525C14.1161 13.37 13.1335 15.4264 10.9062 16.9219ZM5.15479 15.5891C5.15174 15.1472 5.23829 14.7181 5.37066 14.2965C5.40171 14.1963 5.44702 14.1844 5.54375 14.2132C5.96071 14.3367 6.38022 14.4533 6.82263 14.5787C6.82874 13.8571 6.81398 13.1607 7.20956 12.5396C7.4188 12.2103 7.67946 11.9291 8.01089 11.6915C8.07962 11.9038 8.14173 12.1061 8.21097 12.3065C8.41767 12.9042 8.7827 13.4176 9.135 13.9374C9.23632 14.0867 9.32999 14.2429 9.44709 14.3798C10.2505 15.3233 9.89816 17.349 8.09133 17.8098C6.58844 18.1927 5.16548 17.1044 5.15479 15.5891Z" fill="#D7D7D7"/>
</svg>
