<svg width="20" height="23" viewBox="0 0 20 23" fill="none" xmlns="http://www.w3.org/2000/svg">
<path d="M13.9862 22.9506H3.09468C1.47441 22.6702 0.221516 21.4276 0.00745157 19.7853L0 3.29448C0.145476 1.55347 1.55125 0.14353 3.29425 0L13.8745 0.00184247C15.0812 0.196456 15.1482 1.85172 13.953 2.14271C10.3775 2.20491 6.78552 2.07161 3.21888 2.21051C2.52968 2.42883 2.20461 2.94738 2.15168 3.65331C2.19893 9.00803 2.06536 14.3809 2.21921 19.7249C2.3836 20.3632 2.92143 20.7392 3.56602 20.7985L13.953 20.81C15.0977 21.0983 15.0991 22.6025 13.9862 22.9506Z" fill="url(#paint0_linear_810_744)"/>
<path d="M16.2726 12.5524H7.59965C7.57898 12.5524 7.36758 12.45 7.32242 12.4263C6.5889 12.0414 6.57298 10.9551 7.2945 10.5441C7.34389 10.5159 7.57181 10.401 7.59965 10.401H16.2726L12.9996 7.1077C12.0652 5.97427 13.5404 4.63161 14.5928 5.60408L19.68 10.6913C20.098 11.1345 20.1088 11.7836 19.7019 12.2392L14.5928 17.3493C13.5203 18.2829 12.1318 17.0201 12.9771 15.8681L16.2726 12.5524Z" fill="url(#paint1_linear_810_744)"/>
<defs>
<linearGradient id="paint0_linear_810_744" x1="7.40813" y1="0" x2="7.40813" y2="22.9506" gradientUnits="userSpaceOnUse">
<stop stop-color="#A2FF00"/>
<stop offset="1" stop-color="#00FF7F"/>
</linearGradient>
<linearGradient id="paint1_linear_810_744" x1="13.3816" y1="5.26904" x2="13.3816" y2="17.6739" gradientUnits="userSpaceOnUse">
<stop stop-color="#A2FF00"/>
<stop offset="1" stop-color="#00FF7F"/>
</linearGradient>
</defs>
</svg>
