<svg width="25" height="24" viewBox="0 0 25 24" fill="none" xmlns="http://www.w3.org/2000/svg">
<path d="M18.3266 11.2C18.0966 10.9 17.8166 10.64 17.5566 10.38C16.8866 9.78 16.1266 9.35 15.4866 8.72C13.9966 7.26 13.6666 4.85 14.6166 3C13.6666 3.23 12.8366 3.75 12.1266 4.32C9.53655 6.4 8.51655 10.07 9.73655 13.22C9.77655 13.32 9.81655 13.42 9.81655 13.55C9.81655 13.77 9.66655 13.97 9.46655 14.05C9.23655 14.15 8.99655 14.09 8.80655 13.93C8.7498 13.8825 8.70233 13.8248 8.66655 13.76C7.53655 12.33 7.35655 10.28 8.11655 8.64C6.44655 10 5.53655 12.3 5.66655 14.47C5.72655 14.97 5.78655 15.47 5.95655 15.97C6.09655 16.57 6.36655 17.17 6.66655 17.7C7.74655 19.43 9.61655 20.67 11.6266 20.92C13.7666 21.19 16.0566 20.8 17.6966 19.32C19.5266 17.66 20.1666 15 19.2266 12.72L19.0966 12.46C18.8866 12 18.3266 11.2 18.3266 11.2ZM15.1666 17.5C14.8866 17.74 14.4266 18 14.0666 18.1C12.9466 18.5 11.8266 17.94 11.1666 17.28C12.3566 17 13.0666 16.12 13.2766 15.23C13.4466 14.43 13.1266 13.77 12.9966 13C12.8766 12.26 12.8966 11.63 13.1666 10.94C13.3566 11.32 13.5566 11.7 13.7966 12C14.5666 13 15.7766 13.44 16.0366 14.8C16.0766 14.94 16.0966 15.08 16.0966 15.23C16.1266 16.05 15.7666 16.95 15.1666 17.5Z" fill="#007AFF"/>
</svg>
