<svg width="20" height="20" viewBox="0 0 20 20" fill="none" xmlns="http://www.w3.org/2000/svg">
<path d="M18.44 2.57377C18.24 1.66373 17.53 0.953771 16.62 0.753758C11.96 -0.246242 7.23004 -0.256251 2.57001 0.753758C1.66003 0.953771 0.950012 1.66373 0.75 2.57377C-0.25 7.23374 -0.25 11.9638 0.75 16.6238C0.950012 17.5337 1.66003 18.2437 2.57001 18.4438C4.90002 18.9438 7.25 19.1938 9.60004 19.1938C11.94 19.1938 14.29 18.9438 16.62 18.4438C17.53 18.2437 18.24 17.5337 18.44 16.6238C19.44 11.9538 19.44 7.23374 18.44 2.57377ZM12.74 10.4937L7.33002 14.0938C7.23004 14.1637 7.12 14.1938 7 14.1938C6.81 14.1938 6.62 14.1037 6.5 13.9338C6.32001 13.6538 6.39001 13.2837 6.67004 13.0938L11.92 9.59379L6.67004 6.09379C6.39001 5.91373 6.32001 5.54374 6.5 5.26377C6.67999 4.99375 7.06 4.91373 7.33002 5.09379L12.74 8.70377C13.04 8.90378 13.22 9.23374 13.22 9.59379C13.22 9.95377 13.04 10.2937 12.74 10.4937Z" fill="#A2FF00"/>
</svg>
