<svg width="22" height="25" viewBox="0 0 22 25" fill="none" xmlns="http://www.w3.org/2000/svg">
<path d="M20.2081 9.46454C19.2569 6.48187 16.9554 4.23907 14.0902 3.25266L12.5754 0.98634C12.1644 0.364018 11.4833 0 10.7318 0C9.99199 0 9.31097 0.364018 8.89994 0.98634L7.39692 3.2409C4.51997 4.22731 2.23014 6.48187 1.27899 9.47623C0.116487 13.1165 -0.259285 16.4279 0.175186 19.0582C0.18694 19.7628 0.468751 21.0545 6.11695 21.5124C6.39876 23.2504 7.49081 24.9531 10.767 25C14.0432 24.9178 15.1235 23.2386 15.3701 21.5124C21.0183 21.0545 21.2884 19.751 21.3001 19.0465C21.7346 16.4044 21.3588 13.0812 20.2081 9.46454ZM10.7318 2.45417L10.8962 2.68903H10.5791L10.7318 2.45417ZM10.7553 22.6515C9.40486 22.628 8.80598 22.2875 8.55943 21.6299C9.22877 21.6534 9.9333 21.6651 10.72 21.6651H10.7788C11.5655 21.6651 12.2701 21.6534 12.9394 21.6299C12.7045 22.2757 12.1057 22.6162 10.7553 22.6515Z" fill="white"/>
</svg>
