<svg width="209" height="199" viewBox="0 0 209 199" fill="none" xmlns="http://www.w3.org/2000/svg">
<path d="M201.592 169.105C187.746 155.403 174.002 141.554 160.173 127.809C159.048 126.684 158.859 125.953 159.695 124.475C173.604 99.7186 174.897 74.3579 162.571 48.6828C153.876 30.5385 139.901 17.6082 121.341 10.0565C114.669 7.33873 108 5.50694 101.346 4.5671C99.1855 4.2618 97.0214 4.05228 94.8634 3.93555L85.9468 17.5543L88.7185 29.9368C89.4787 29.9039 90.245 29.889 91.0142 29.892C93.5434 29.8949 96.0337 30.0745 98.4701 30.4158C124.741 34.0943 145.049 56.7104 145.031 83.867C145.01 112.861 121.903 136.657 93.1573 137.779C92.4389 137.809 91.7176 137.821 90.9933 137.821C89.4937 137.821 88.0091 137.758 86.5395 137.633L83.6631 163.481C85.6535 163.688 87.635 163.813 89.6134 163.861C105.001 164.233 119.991 159.812 134.459 150.731C136.294 149.584 137.126 149.857 138.524 151.251C152.583 165.394 166.68 179.491 180.799 193.589C187.62 200.369 196.609 200.806 203.637 194.738C206.642 192.152 208.019 188.668 208.83 184.894V181.036C207.935 176.133 205.034 172.526 201.592 169.105Z" fill="#5C5C5C"/>
<path d="M26.378 84.6307C28.8054 112.748 52.6188 134.035 80.401 133.913L79.7784 159.914C72.1399 159.788 64.3099 158.522 56.3033 156.092C37.2071 150.3 22.3223 138.492 11.9691 121.329C-0.287768 101.021 -2.99954 79.2969 3.84574 56.6779C9.72724 37.2195 21.595 22.0534 39.1078 11.5894C51.3168 4.28616 64.0106 0.428017 77.0876 0L69.3863 14.3401L73.2235 26.4353C44.8067 30.072 23.8847 55.771 26.378 84.6307Z" fill="#5C5C5C"/>
<path d="M81.5437 86.0706L71.5736 109.884L80.6428 123.757L80.4003 133.916C52.6181 134.038 28.8048 112.751 26.3774 84.6339C23.8841 55.7741 44.8061 30.0751 73.2228 26.4385L82.289 55.0049L81.5437 86.0706Z" fill="#303030"/>
<path d="M145.031 83.8671C145.01 112.861 121.903 136.657 93.1574 137.779C92.4391 137.809 91.7177 137.821 90.9934 137.821C89.4938 137.821 88.0093 137.758 86.5396 137.633L87.6621 127.534L79.832 112.927L91.8315 90.0688L95.2706 59.1827L88.7186 29.9369C89.4789 29.9039 90.2451 29.889 91.0144 29.892C93.5435 29.895 96.0338 30.0746 98.4702 30.4158C124.741 34.0943 145.049 56.7104 145.031 83.8671Z" fill="#303030"/>
</svg>
