<svg width="19" height="21" viewBox="0 0 19 21" fill="none" xmlns="http://www.w3.org/2000/svg">
<path d="M8.74603 0.0247334C12.1656 -0.242454 15.2967 1.6733 16.4922 4.88993C17.3796 7.27769 16.7569 10.2472 16.9458 12.7689C17.0626 14.3295 19.7694 15.8222 18.6054 17.3741C18.3532 17.7103 17.9587 17.953 17.5344 17.9884L13.153 18.0073C12.533 20.6564 9.50259 21.8959 7.24267 20.2719C6.47055 19.717 6.00244 18.9186 5.76223 18.0073L1.38081 17.9884C0.65192 17.9296 0.00880717 17.2432 7.35531e-05 16.5098C-0.013534 15.3671 1.86536 14.0807 1.96931 12.7688C2.18481 10.049 1.46273 7.09514 2.56805 4.51999C3.61346 2.08442 6.07646 0.233319 8.74603 0.0247334ZM17.3689 16.4887C16.7571 15.4734 15.5449 14.3203 15.4479 13.0965C15.2203 10.2232 16.117 6.69289 14.439 4.18118C12.0744 0.641662 6.83926 0.644077 4.47623 4.18118C2.79828 6.69283 3.69494 10.2232 3.46731 13.0965C3.37012 14.3232 2.16021 15.4729 1.54631 16.4887H17.3689ZM11.5642 17.9867H7.35105C8.08128 19.952 10.834 19.952 11.5642 17.9867Z" fill="url(#paint0_linear_810_643)"/>
<defs>
<linearGradient id="paint0_linear_810_643" x1="9.44776" y1="0" x2="9.44776" y2="21" gradientUnits="userSpaceOnUse">
<stop stop-color="#A2FF00"/>
<stop offset="1" stop-color="#00FF7F"/>
</linearGradient>
</defs>
</svg>
