<svg width="172" height="187" viewBox="0 0 172 187" fill="none" xmlns="http://www.w3.org/2000/svg">
<path d="M151.857 147C144.098 147 137.379 151.451 134.112 157.935C133.199 159.748 132.557 161.72 132.234 163.796C132.081 164.795 132 165.817 132 166.857C132 177.824 140.891 186.715 151.857 186.715C154.201 186.715 156.449 186.309 158.532 185.565C160.676 184.801 162.645 183.679 164.374 182.275C168.854 178.633 171.715 173.08 171.715 166.857C171.715 155.891 162.827 147 151.857 147ZM161.747 175.049C161.674 175.233 161.56 175.392 161.422 175.532C161.12 175.839 160.819 176.149 160.509 176.445C160.244 176.698 159.942 176.872 159.56 176.864C159.557 176.867 159.554 176.864 159.549 176.864C159.547 176.867 159.544 176.867 159.541 176.867C159.479 176.872 159.417 176.846 159.359 176.885H159.006C158.834 176.869 158.678 176.825 158.535 176.76C158.298 176.654 158.09 176.49 157.897 176.295C155.954 174.346 154.009 172.403 152.063 170.458C152.021 170.416 151.98 170.377 151.938 170.335C151.876 170.27 151.816 170.273 151.753 170.335L151.629 170.46C149.693 172.395 147.753 174.331 145.823 176.271C145.49 176.602 145.133 176.859 144.647 176.885H144.335C144.278 176.846 144.213 176.872 144.15 176.867C144.148 176.867 144.142 176.867 144.14 176.864H144.132C143.76 176.875 143.458 176.706 143.201 176.461C142.876 176.154 142.561 175.834 142.249 175.512C141.996 175.254 141.864 174.937 141.83 174.578V174.029C141.882 173.582 142.106 173.233 142.42 172.918C144.369 170.978 146.312 169.029 148.257 167.086C148.299 167.045 148.341 167.001 148.382 166.962C148.447 166.897 148.445 166.839 148.38 166.777C148.338 166.735 148.299 166.694 148.255 166.652C147.298 165.692 146.34 164.735 145.381 163.775C144.395 162.789 143.409 161.803 142.42 160.818C142.108 160.505 141.874 160.159 141.83 159.709V159.161C141.864 158.7 142.103 158.346 142.431 158.039C142.467 158.006 142.504 157.969 142.54 157.935C142.73 157.753 142.915 157.569 143.094 157.376C143.518 156.924 144.044 156.788 144.639 156.84C145.071 156.877 145.42 157.069 145.719 157.368L146.286 157.935C148.06 159.709 149.836 161.486 151.61 163.26C151.652 163.302 151.696 163.343 151.735 163.385C151.805 163.46 151.876 163.471 151.951 163.39C151.99 163.348 152.034 163.307 152.076 163.265C153.254 162.087 154.433 160.911 155.614 159.73C156.397 158.945 157.182 158.159 157.965 157.371C158.535 156.799 159.378 156.71 160.004 156.963C160.21 157.046 160.395 157.171 160.553 157.332C160.813 157.597 161.071 157.865 161.341 158.12C161.794 158.544 161.927 159.07 161.875 159.668C161.838 160.107 161.63 160.456 161.328 160.76L155.437 166.652C155.395 166.694 155.356 166.733 155.32 166.774C155.312 166.779 155.307 166.787 155.301 166.792C155.252 166.844 155.252 166.894 155.301 166.946C155.343 166.995 155.393 167.04 155.437 167.086C155.736 167.386 156.032 167.682 156.329 167.981C158.002 169.651 159.669 171.324 161.344 172.991C161.916 173.558 162.01 174.375 161.747 175.049Z" fill="#5C5C5C"/>
<path d="M110.365 38.2148C111.317 39.783 112.971 40.0887 115.141 38.9714C119.636 36.6516 124.116 34.3619 129.277 33.8409C130.846 33.6856 132.174 33.7156 132.941 35.2788C133.692 36.8019 133.061 37.9593 131.928 39.0866C121.52 49.4428 111.147 59.8341 100.763 70.2204C99.0796 71.9038 99.2901 71.7435 100.733 73.5321C102.061 75.1805 103.119 75.0502 104.993 74.5342C106.982 73.9831 108.411 73.0461 109.784 71.6533C114.214 67.1591 118.684 62.705 123.169 58.2659C124.998 56.4572 127.418 56.858 128.14 59.0375C128.591 60.4103 127.949 61.4374 127.007 62.3693C122.928 66.4226 118.874 70.4959 114.795 74.5442C114.309 75.0302 113.727 75.421 113.171 75.8669C114.384 77.0994 115.351 78.1416 115.942 79.4843C116.744 81.303 118.047 81.5335 119.626 80.1607C119.951 79.8751 120.242 79.5444 120.553 79.2338C124.482 75.3008 128.41 71.3677 132.349 67.4397C133.402 66.3925 134.614 65.7913 136.037 66.6631C137.225 67.3946 137.621 68.5319 137.325 69.9047C137.155 70.6963 136.564 71.1773 136.037 71.6984C132.575 75.1104 129.107 78.5173 125.584 81.9794C127.749 83.6779 129.162 85.6019 129.628 88.1721C130.355 88.0168 130.645 87.5057 131.011 87.14C134.514 83.6579 137.992 80.1557 141.495 76.6786C142.968 75.2206 144.557 75.1003 145.774 76.2677C147.062 77.5003 146.957 79.1336 145.418 80.6818C140.703 85.4215 135.942 90.1211 131.252 94.8808C129.027 97.1355 129.839 100.517 132.715 101.259C134.359 101.685 135.601 100.953 136.724 99.821C141.174 95.3468 145.644 90.8927 150.109 86.4335C150.465 86.0778 161.655 74.8298 162.041 74.5192C163.294 73.5071 164.907 73.5572 165.914 74.6945C166.982 75.892 166.927 77.1846 166.005 78.4422C165.714 78.843 165.313 79.1637 164.962 79.5144C160.718 83.7581 145.619 98.864 141.374 103.103C137.461 107.021 135.181 107.667 129.788 106.324V108.544C129.788 119.04 129.743 129.537 129.809 140.033C129.844 145.169 128.646 149.914 125.935 154.267C123.86 157.589 122.913 161.187 122.953 165.105C123.013 171.102 122.968 177.104 122.963 183.101C122.963 183.783 123.008 184.464 122.748 185.136C122.221 186.473 121.239 187.105 119.831 186.969C118.418 186.829 117.391 185.997 117.406 184.574C117.486 176.398 116.844 168.211 117.777 160.054C118.117 157.048 119.305 154.277 120.914 151.722C123.209 148.075 124.206 144.142 124.191 139.828C124.126 123.399 124.171 106.966 124.161 90.5319C124.161 87.3605 121.926 85.4616 119.28 86.3985C117.346 87.0799 116.769 88.6481 116.769 90.552C116.779 97.1756 116.774 103.799 116.769 110.423C116.769 111.044 116.789 111.675 116.719 112.291C116.539 113.84 115.526 114.651 114.083 114.721C112.715 114.787 111.673 114.065 111.332 112.662C111.177 112.006 111.157 111.304 111.157 110.623C111.147 101.625 111.162 92.6262 111.137 83.6328C111.127 81.4684 109.959 80.0555 108.105 79.7098C106.466 79.3991 104.577 80.4313 104.076 82.0496C103.84 82.8061 103.85 83.6529 103.845 84.4595C103.83 93.0772 103.835 101.7 103.835 110.322C103.835 110.823 103.865 111.325 103.825 111.821C103.685 113.554 102.527 114.752 101.009 114.762C99.4004 114.772 98.2378 113.544 98.2277 111.665C98.1926 106.54 98.2127 101.419 98.2127 96.2937C98.2127 91.2334 98.2277 86.173 98.2077 81.1127C98.1977 78.367 96.7494 76.6485 94.5044 76.6435C92.2293 76.6385 90.8111 78.327 90.8011 81.0876C90.7911 84.9605 90.8111 88.8335 90.7961 92.7064C90.786 94.7456 89.7136 96.0182 88.0549 96.0633C86.3411 96.1034 85.1985 94.7656 85.1785 92.6363C85.1584 90.1411 85.2035 87.641 85.1634 85.1409C85.1334 82.8462 83.5949 81.2079 81.5403 81.1828C79.5559 81.1527 78.0124 82.6708 77.817 84.8754C77.7669 85.4365 77.7919 86.0027 77.7919 86.5638V130.233C77.7919 130.799 77.7869 131.361 77.7819 131.922C77.7819 133.239 77.2657 134.282 75.9628 134.667C74.5847 135.078 73.382 134.742 72.5351 133.46C70.3803 130.188 67.985 127.057 67.108 123.099C66.7873 121.646 66.1909 120.253 65.6748 118.855C64.9782 116.966 63.5801 116.154 61.9464 116.62C60.2827 117.096 59.4458 118.544 59.7866 120.423C60.5232 124.476 61.4804 128.495 61.9665 132.578C62.5528 137.503 64.4921 141.591 68.0301 145.069C70.0696 147.073 71.8035 149.397 73.6927 151.557C76.3437 154.588 77.7869 158.075 77.7869 162.129C77.7869 169.313 77.8019 176.498 77.7819 183.683C77.7769 185.812 76.7746 186.964 75.0558 186.999C73.2868 187.03 72.1894 185.802 72.1793 183.607C72.1543 176.799 72.1042 169.985 72.1994 163.176C72.2445 159.864 71.2172 157.108 68.9822 154.678C66.8624 152.384 65.0133 149.838 62.8234 147.624C59.3005 144.052 57.3762 139.848 56.6896 134.903C56.0532 130.338 55.086 125.819 54.2542 121.28C53.4373 116.841 55.9329 112.557 60.1173 111.249C64.3518 109.922 68.9772 112.121 70.7461 116.325C71.142 117.277 71.4477 118.269 72.1693 119.211V112.286C72.1693 110.042 72.1743 107.792 72.1643 105.543C72.1593 105.002 72.3447 104.32 71.6131 104.11C69.4883 103.504 67.9549 102.051 66.3262 100.352C65.4894 101.965 64.5272 103.288 63.1591 104.275C59.3155 107.041 54.5248 106.86 51.1723 103.534C39.3809 91.8246 27.6345 80.0655 15.9283 68.2714C13.0218 65.3454 11.0524 61.7881 10.1353 57.7448C9.07794 53.0853 6.83291 49.1723 3.28997 45.9807C2.36289 45.144 1.44584 44.2722 0.674109 43.3002C-0.318114 42.0477 -0.202856 40.7099 0.939704 39.5977C2.01712 38.5405 3.40022 38.3802 4.50269 39.3722C9.16814 43.5858 13.573 48.05 15.0213 54.4781C16.0736 59.1477 18.3888 62.9505 21.7814 66.2973C32.6708 77.0544 43.46 87.9166 54.2742 98.7488C55.3216 99.8009 56.419 100.728 58.0076 100.522C59.4759 100.332 60.6034 99.5354 61.0644 98.1024C61.5656 96.5543 61.1697 95.1765 59.982 93.999C56.6546 90.7073 53.3471 87.3805 50.0347 84.0687C48.9774 83.0065 47.91 81.9494 46.8576 80.8872C45.1738 79.1837 44.9634 77.6355 46.2262 76.3379C47.489 75.0352 49.1076 75.2106 50.7764 76.874C57.3662 83.4474 63.9509 90.0309 70.5206 96.6244C70.9466 97.0553 71.2523 97.6064 71.6131 98.1024C71.7935 98.0073 71.9739 97.9171 72.1543 97.8219C72.1543 94.6203 72.1593 91.4188 72.1493 88.2172C72.1443 87.4957 71.5078 87.1751 71.0869 86.7492C66.0606 81.7039 61.0294 76.6635 55.968 71.6483C54.9658 70.6512 54.3193 69.5991 54.7854 68.1611C55.4469 66.117 57.9224 65.6811 59.6362 67.3695C63.5099 71.1873 67.3335 75.0452 71.1771 78.8931C71.7484 79.4693 72.2946 80.0705 72.9811 80.797C74.3943 78.6727 75.9929 76.904 78.3833 76.1224C78.4484 75.3859 77.837 75.1404 77.4712 74.7697C73.377 70.6462 69.2578 66.5478 65.1536 62.4344C63.4999 60.776 63.3496 59.1527 64.6825 57.8851C65.9404 56.6876 67.5139 56.868 69.0974 58.4463C74.4945 63.8273 79.8967 69.2033 85.2537 74.6294C86.0955 75.4761 86.5165 75.6515 87.2782 74.5242C88.4207 72.8257 90.2248 71.9239 92.3596 71.1723C89.1925 68.0409 86.1206 65.0247 83.0738 61.9835C75.3815 54.3028 67.6993 46.612 60.0221 38.9163C58.4937 37.3831 58.3834 35.7849 59.6663 34.5072C60.2677 33.911 60.9943 33.4952 61.8512 33.6856C65.3641 34.4621 69.0122 34.7277 72.2345 36.6065C73.9533 37.6086 75.7824 38.4403 77.6015 39.272C79.2953 40.0486 80.8638 39.6027 81.7057 38.2198C82.5526 36.827 82.2369 35.1987 80.7085 34.1265C75.8526 30.7295 70.9817 27.3526 66.0456 24.0659C63.1792 22.1569 59.7665 22.7181 56.5794 22.3473C53.5426 21.9866 50.4757 21.8864 47.4289 21.6008C43.8709 21.2701 40.8541 19.7169 38.3385 17.2319C34.2894 13.2387 30.2805 9.20543 26.2765 5.17217C24.8333 3.7242 24.6779 2.07082 25.7904 0.873367C26.973 -0.389218 28.7069 -0.289013 30.2203 1.21406C34.0389 4.99681 37.8825 8.74949 41.6159 12.6174C43.926 15.0173 46.6872 16.0745 49.9495 16.2649C54.4346 16.5304 58.9196 16.9062 63.3997 17.292C65.7499 17.4924 67.8547 18.4243 69.789 19.747C74.4194 22.9235 79.0648 26.08 83.6601 29.3016C87.8044 32.2025 88.9569 37.0875 86.5315 41.1258C84.1512 45.0889 79.3705 46.3615 74.8954 44.2572C74.1387 43.9015 73.4773 43.2451 72.3948 43.3554C80.067 51.0311 87.659 58.6166 95.241 66.2121C95.7371 66.7082 96.0528 67.0138 96.7193 66.3424C104.161 58.8521 111.633 51.3918 119.089 43.9115C119.19 43.8113 119.185 43.6059 119.29 43.2301C118.187 43.7562 117.275 44.2372 116.328 44.628C112.279 46.3114 107.609 44.7332 105.449 40.9705C103.304 37.2478 104.136 32.433 107.659 29.8878C112.765 26.2052 118.007 22.6981 123.234 19.1758C125.298 17.783 127.689 17.2719 130.144 17.0916C134.253 16.7859 138.368 16.4803 142.482 16.2348C145.614 16.0494 148.235 14.9071 150.445 12.6274C154.143 8.81463 157.937 5.09701 161.7 1.34934C163.319 -0.258952 165.057 -0.4293 166.27 0.863346C167.413 2.08585 167.212 3.7693 165.679 5.31246C161.8 9.21044 157.896 13.0784 154.023 16.9813C151.071 19.9524 147.493 21.4956 143.354 21.7962C139.305 22.0968 135.256 22.4125 131.202 22.648C128.967 22.7782 126.922 23.3494 125.068 24.642C120.718 27.6732 116.333 30.6594 111.969 33.6755C109.939 35.0784 109.398 36.6266 110.365 38.2148Z" fill="#5C5C5C"/>
</svg>
