<svg width="30" height="30" viewBox="0 0 30 30" fill="none" xmlns="http://www.w3.org/2000/svg">
<circle cx="15" cy="15" r="15" fill="#A2FF00"/>
<path d="M17.3328 7.68787L15.9817 5.66113C15.7058 5.24707 15.2444 5 14.7473 5C14.2503 5 13.7884 5.24707 13.5125 5.66064L12.1627 7.68524C9.77267 8.45923 7.8547 10.319 7.07059 12.7876C6.09793 15.8491 5.78006 18.6201 6.14969 20.8042C6.22623 21.7371 7.91824 22.3193 11.184 22.5451C11.3573 24.4563 12.5435 25.4547 14.7615 25.4902C16.994 25.4359 18.1799 24.4373 18.3196 22.543C21.58 22.3157 23.2693 21.7339 23.344 20.8027C23.7117 18.5996 23.3943 15.8262 22.4265 12.7788C21.645 10.318 19.7267 8.46277 17.3328 7.68787ZM13.8679 7.29053L14.5105 6.32666C14.5843 6.21631 14.6902 6.2002 14.7469 6.2002C14.8035 6.2002 14.9095 6.21631 14.9832 6.32666L15.6258 7.29053H13.8679ZM14.7566 24.2905C13.2431 24.2658 12.5371 23.7837 12.3825 22.6083C13.1054 22.6368 13.8831 22.6528 14.7307 22.6528H14.7942C15.6342 22.6521 16.4053 22.6356 17.1225 22.6069C17.0174 23.6016 16.4778 24.248 14.7566 24.2905ZM22.1604 20.605C21.7005 20.9595 19.1263 21.4526 14.7483 21.4526H14.7434C10.366 21.4521 7.79178 20.9585 7.33279 20.6045C6.9949 18.6079 7.2991 16.0317 8.21414 13.1509C9.09988 10.3633 11.6961 8.49072 14.6746 8.49072H14.7996C17.7937 8.49072 20.3992 10.3599 21.283 13.1421C22.1936 16.0093 22.4969 18.5889 22.1604 20.605Z" fill="#231F20"/>
</svg>
