<svg version="1.2" xmlns="http://www.w3.org/2000/svg" viewBox="0 0 50 50" width="50" height="50"><style>.a{fill:#fff}</style><path class="a" d="m43.1 19.3c-1.8-5.8-6.3-10.1-11.8-12l-3-4.4c-0.8-1.2-2.1-1.9-3.5-1.9-1.5 0-2.8 0.7-3.6 1.9l-2.9 4.4c-5.6 1.9-10 6.2-11.8 12-2.3 7.1-3 13.5-2.2 18.6 0.1 1.3 0.6 3.8 11.5 4.7 0.6 3.4 2.7 6.7 9 6.8 6.4-0.2 8.5-3.4 8.9-6.8 11-0.9 11.5-3.4 11.5-4.7 0.9-5.2 0.1-11.6-2.1-18.6zm-18.3-13.6l0.3 0.5h-0.6zm0 39.1c-2.6-0.1-3.8-0.7-4.2-2 1.3 0.1 2.6 0.1 4.1 0.1h0.2c1.5 0 2.8 0 4.1-0.1-0.4 1.3-1.6 1.9-4.2 2z"/></svg>