<svg width="75" height="71" viewBox="0 0 75 71" fill="none" xmlns="http://www.w3.org/2000/svg">
<path d="M74.3279 29.9593C73.4467 19.8923 68.7838 12.0259 60.3809 6.43776C54.982 2.84797 48.9532 0.997353 42.5356 0.313091C36.2295 -0.360804 29.9882 -0.00312143 23.9491 1.93821C9.96059 6.42998 1.42545 15.595 0.13468 30.6254C-0.619564 39.3809 1.78831 47.2291 7.50605 53.9785C7.92335 54.4709 8.08923 54.9115 7.9389 55.5362C6.86067 59.9424 4.64459 63.6359 1.1196 66.5155C0.342032 67.1505 -0.197084 67.8581 0.142455 68.926C0.4483 69.8798 1.15848 70.31 2.41815 70.3437C5.13965 70.4111 7.84559 70.2504 10.5204 69.745C14.8411 68.9286 18.8327 67.389 22.0103 64.2009C22.438 63.7707 22.8035 63.9469 23.2311 64.0817C27.7851 65.5461 32.4635 66.2122 37.2404 66.2278C42.5719 66.1734 47.7868 65.4295 52.8099 63.5737C59.7251 61.0207 65.474 56.9332 69.5199 50.679C73.6074 44.3599 74.9785 37.3799 74.3279 29.9593ZM50.4643 44.8705C49.8837 46.068 48.8728 46.5889 47.6728 46.6589C46.6775 46.576 45.9362 46.1924 45.2908 45.5418C42.8363 43.0614 40.3481 40.6146 37.9039 38.1212C37.4218 37.6313 37.1756 37.5406 36.6391 38.0927C34.2078 40.5965 31.7248 43.0458 29.2469 45.5055C28.3527 46.3946 27.2901 46.7082 26.0563 46.322C24.8977 45.9591 24.2161 45.1453 23.9646 43.9944C23.708 42.8255 24.1305 41.8535 24.9677 41.0215C27.3989 38.6085 29.7938 36.1591 32.251 33.7746C32.8212 33.2199 32.7382 32.9452 32.2225 32.4423C29.755 30.0215 27.3186 27.567 24.8822 25.115C24.0217 24.2493 23.6821 23.2281 24.0268 22.0203C24.369 20.8176 25.1751 20.0919 26.3673 19.8249C27.5389 19.5632 28.5134 19.9779 29.3454 20.815C31.7844 23.2644 34.2493 25.6904 36.6676 28.1605C37.1445 28.6504 37.3881 28.64 37.8598 28.1579C40.3014 25.6645 42.7793 23.2074 45.2519 20.7451C46.1462 19.8535 47.2011 19.5217 48.4374 19.9079C49.6297 20.2811 50.3399 21.1079 50.5705 22.308C50.7857 23.4381 50.3787 24.3919 49.5701 25.198C47.1207 27.6369 44.6921 30.0992 42.222 32.5175C41.7425 32.9866 41.7244 33.2303 42.2142 33.7098C44.7776 36.2213 47.3073 38.7614 49.8293 41.3118C50.8531 42.3486 51.0604 43.6419 50.4643 44.8705Z" fill="#5C5C5C"/>
</svg>
