<svg width="20" height="27" viewBox="0 0 20 27" fill="none" xmlns="http://www.w3.org/2000/svg">
<path d="M19.1874 13.6417C18.8682 13.9984 18.471 14.0747 18.0182 13.9884C16.0432 13.6104 14.36 12.6962 12.9608 11.2543C12.9165 11.2085 12.886 11.1413 12.7943 11.1352C12.5629 12.2869 12.3323 13.4393 12.0986 14.591C12.0749 14.7063 12.107 14.7842 12.1941 14.8652C12.7684 15.3937 13.3259 15.9412 13.9124 16.456C14.3729 16.8615 14.6059 17.3625 14.6135 17.9582C14.6303 19.2619 14.6242 20.5663 14.6257 21.8707C14.6265 22.9185 14.6334 23.9656 14.6204 25.0127C14.6135 25.6152 14.1713 26.1086 13.6108 26.1834C12.9715 26.2697 12.4293 25.9268 12.2437 25.3227C12.1925 25.1547 12.1979 24.9844 12.1979 24.8133C12.1971 22.9376 12.1941 21.062 12.2017 19.1863C12.2025 18.9808 12.1505 18.8357 11.9963 18.6921C11.2157 17.9659 10.4474 17.2273 9.66235 16.4812C9.55619 16.6003 9.56307 16.7493 9.53099 16.8783C9.32097 17.726 9.08116 18.5692 8.92384 19.4276C8.71229 20.5831 7.43154 21.608 5.98277 21.314C4.38966 20.9917 2.79044 20.7022 1.19428 20.3968C0.525261 20.2685 -0.0246135 19.5849 0.000589092 18.9197C0.0257917 18.2752 0.774233 17.7764 1.50053 17.9208C3.01039 18.2217 4.52255 18.5142 6.02859 18.8304C6.29284 18.8861 6.35546 18.835 6.40587 18.5745C7.01608 15.441 7.64156 12.3105 8.2617 9.17854C8.26857 9.14265 8.26704 9.10446 8.27162 9.02427C7.57741 9.29463 6.91756 9.55964 6.25007 9.80403C6.08587 9.8636 6.0958 9.96364 6.09656 10.0874C6.09733 10.9725 6.10038 11.8584 6.0958 12.7436C6.09122 13.6745 5.36645 14.2137 4.47672 13.9556C4.00093 13.8166 3.68017 13.4531 3.66871 12.9009C3.64427 11.779 3.59616 10.6525 3.69162 9.53291C3.76494 8.67067 4.24379 8.11927 5.07548 7.79622C6.48911 7.24711 7.87908 6.63308 9.2698 6.02516C9.754 5.81438 10.2489 5.6624 10.7697 5.61657C11.6893 5.53638 12.4071 5.93657 12.9204 6.66592C13.4061 7.35632 13.8605 8.07345 14.2752 8.8089C15.0771 10.2287 16.3372 10.9992 17.8494 11.4368C18.077 11.5033 18.3122 11.5438 18.5398 11.6102C19.4868 11.889 19.8182 12.9353 19.1874 13.6417Z" fill="#A2FF00"/>
<path d="M15.2398 2.44161C15.236 3.77506 14.137 4.86794 12.8005 4.86794C11.4617 4.86794 10.3727 3.77811 10.3704 2.43703C10.3673 1.09213 11.4472 0.00536034 12.7906 1.43372e-05C14.1454 -0.00456795 15.2436 1.08984 15.2398 2.44161Z" fill="#A2FF00"/>
</svg>
