<svg width="23" height="23" viewBox="0 0 23 23" fill="none" xmlns="http://www.w3.org/2000/svg">
<path d="M15.4427 2.11493L21.6947 3.35612C22.5101 3.61088 22.9894 4.33239 22.9942 5.18075C22.4557 7.23805 22.3215 9.6272 21.7398 11.6466C21.5306 12.3726 20.7589 12.128 20.7621 11.618L21.9968 5.28173C22.0794 4.79032 21.8561 4.35553 21.3571 4.24143L15.6305 3.12227L16.28 6.60466L18.9768 7.0698C19.5079 7.16382 19.5119 7.97496 18.9741 8.02328L16.5267 7.60336L16.9005 9.74355C17.0189 9.93535 18.0657 9.87225 18.1587 10.2776C18.3206 10.9841 17.592 11.0056 17.1243 10.7899L17.3955 12.236C17.4667 12.3351 18.1815 12.3194 18.3374 12.3398C20.0509 12.5639 22.6029 13.4584 22.752 15.4933C22.8823 17.2707 20.4271 21.6774 18.8816 22.5804C16.6609 23.878 15.1166 21.9035 14.0358 20.2262C13.3839 19.2144 12.2227 16.9223 12.1938 15.742C12.1424 13.6445 14.7608 12.6151 16.4773 12.3576L14.3615 1.62743C14.2602 1.16938 13.8337 0.884753 13.3711 0.936965L4.52789 2.67608C4.62296 3.50876 4.95584 4.41449 5.02397 5.23903C5.22505 7.67243 2.69091 7.41279 1.04136 7.85242L3.72042 21.3304C3.87965 21.6937 4.24822 21.9007 4.64357 21.8893L12.4765 20.3677C13.0275 20.3585 13.18 21.0914 12.6543 21.2824C10.1718 21.6837 7.7171 22.3429 5.23318 22.7239C3.95869 22.9194 3.07044 22.6259 2.71825 21.2869L0 7.57074L0.0348522 7.31822L3.65973 2.08069C3.75314 1.97365 3.84493 1.85242 3.98724 1.81072C6.97956 1.34733 9.99751 0.491531 12.982 0.0507354C13.5738 -0.0366719 13.9768 -0.0426201 14.5018 0.292115C15.1675 0.716505 15.2894 1.39331 15.4427 2.11493ZM3.77978 3.66983L1.58948 6.75655C2.22687 6.58399 3.5614 6.63167 3.95092 6.05638C4.38261 5.4188 3.76778 4.39062 3.77978 3.66983ZM17.064 13.2443C15.8952 13.3281 13.549 13.9762 13.2124 15.2681C13.0253 15.9864 13.5746 17.308 13.8787 17.9934C14.3169 18.9809 15.708 21.3819 16.6655 21.8288C18.3297 22.6056 19.4777 20.7894 20.2316 19.5986C20.802 18.6975 21.9039 16.5328 21.8037 15.4955C21.6355 13.7545 18.4587 13.1444 17.064 13.2443Z" fill="url(#paint0_linear_810_727)"/>
<path d="M10.5403 13.4923C11.3385 13.4158 11.3986 14.245 10.7115 14.4101L4.74441 15.6159C4.25919 15.5693 4.11622 14.8503 4.61487 14.6866L10.5403 13.4923Z" fill="url(#paint1_linear_810_727)"/>
<path d="M13.8265 10.2058C14.3964 10.1523 14.664 10.6293 14.2539 11.0319C10.9906 11.7871 7.6788 12.3835 4.39632 13.0738C3.7944 13.2336 3.49523 12.3641 4.10588 12.1864L13.8265 10.2058Z" fill="url(#paint2_linear_810_727)"/>
<path d="M13.3796 7.6639C13.9684 7.62677 14.1118 8.3939 13.5506 8.58582L3.79134 10.5783C3.2139 10.5414 3.06948 9.81464 3.65775 9.64691L13.3796 7.6639Z" fill="url(#paint3_linear_810_727)"/>
<path d="M19.3499 15.58C19.7848 15.4811 20.1122 15.8857 19.9055 16.2854C19.1338 16.9951 18.4076 18.0111 17.5979 18.658C17.2743 18.9166 16.8938 18.9452 16.5389 18.7186C16.389 18.6229 15.29 17.5274 15.2537 17.4146C15.1478 17.0857 15.4756 16.7208 15.7913 16.7729C16.1107 16.8257 16.9637 17.9089 17.0489 17.9089L19.0144 15.8423C19.116 15.7522 19.2085 15.6122 19.3499 15.58Z" fill="url(#paint4_linear_810_727)"/>
<defs>
<linearGradient id="paint0_linear_810_727" x1="11.4971" y1="0" x2="11.4971" y2="23" gradientUnits="userSpaceOnUse">
<stop stop-color="#A2FF00"/>
<stop offset="1" stop-color="#00FF7F"/>
</linearGradient>
<linearGradient id="paint1_linear_810_727" x1="7.745" y1="13.4873" x2="7.745" y2="15.6159" gradientUnits="userSpaceOnUse">
<stop stop-color="#A2FF00"/>
<stop offset="1" stop-color="#00FF7F"/>
</linearGradient>
<linearGradient id="paint2_linear_810_727" x1="9.11126" y1="10.2017" x2="9.11126" y2="13.0933" gradientUnits="userSpaceOnUse">
<stop stop-color="#A2FF00"/>
<stop offset="1" stop-color="#00FF7F"/>
</linearGradient>
<linearGradient id="paint3_linear_810_727" x1="8.5928" y1="7.6626" x2="8.5928" y2="10.5783" gradientUnits="userSpaceOnUse">
<stop stop-color="#A2FF00"/>
<stop offset="1" stop-color="#00FF7F"/>
</linearGradient>
<linearGradient id="paint4_linear_810_727" x1="17.6012" y1="15.5649" x2="17.6012" y2="18.8718" gradientUnits="userSpaceOnUse">
<stop stop-color="#A2FF00"/>
<stop offset="1" stop-color="#00FF7F"/>
</linearGradient>
</defs>
</svg>
