<svg width="29" height="34" viewBox="0 0 29 34" fill="none" xmlns="http://www.w3.org/2000/svg">
<path d="M25.4248 16.2446C25.1552 14.7789 24.1359 13.5722 22.8264 13.1703C21.3767 12.7253 19.9215 12.3922 18.4639 12.1678C19.9575 10.8976 20.9267 9.02876 20.9267 6.91886C20.9267 3.10391 17.8228 0 14.0071 0C10.1921 0 7.0882 3.10391 7.0882 6.91886C7.0882 9.02886 8.05745 10.8977 9.55105 12.1679C8.09342 12.3923 6.63846 12.7254 5.18853 13.1703C3.87825 13.5722 2.85896 14.7789 2.59509 16.2174L0.0764495 28.0848L0.0706954 28.1128C-0.322226 30.2574 0.962577 32.3552 2.93458 32.7884C6.60897 33.5964 10.308 34 14.0079 34C17.7069 34 21.4068 33.5964 25.0804 32.7884C27.0524 32.3552 28.3372 30.2574 27.9385 28.0848L25.4248 16.2446ZM9.1087 6.91886C9.1087 4.21774 11.3059 2.0205 14.0071 2.0205C16.7082 2.0205 18.9062 4.21774 18.9062 6.91886C18.9062 9.61999 16.7082 11.818 14.0071 11.818C11.3059 11.818 9.1087 9.61999 9.1087 6.91886ZM24.6463 30.8155C17.5869 32.3675 10.428 32.3675 3.3686 30.8155C2.46603 30.6174 1.86679 29.5537 2.05585 28.4892L4.57696 16.6095C4.71095 15.8763 5.1836 15.2845 5.78038 15.102C11.2402 13.4267 16.7748 13.4267 22.2346 15.102C22.8305 15.2845 23.3032 15.8763 23.4429 16.6367L25.9566 28.4761C26.1523 29.5455 25.553 30.6166 24.6463 30.8155Z" fill="#848484"/>
</svg>
