<svg width="28" height="33" viewBox="0 0 28 33" fill="none" xmlns="http://www.w3.org/2000/svg">
<path d="M27.7478 25.8101C26.9544 21.7913 24.8087 18.6856 21.344 16.4841C20.6169 16.0223 19.8404 15.6623 19.0105 15.3151C19.0032 15.3119 18.9951 15.3087 18.9878 15.3054C18.9943 15.3006 19.0008 15.2958 19.0065 15.2901C21.0525 13.6989 22.2476 11.658 22.4387 9.09402C22.6306 6.51952 21.7942 4.28247 19.9595 2.47249C16.6252 -0.818095 11.4529 -0.822939 8.04894 2.45069C6.52834 3.91272 5.67574 5.73482 5.54538 7.84108C5.35591 10.9161 6.55992 13.3881 8.97198 15.2909C8.93878 15.3192 8.92664 15.3361 8.90963 15.3434C8.80195 15.3902 8.69264 15.4354 8.58414 15.4822C5.57291 16.7739 3.26935 18.8463 1.69288 21.713C0.620044 23.6651 0.0953662 25.7593 0.00468113 27.9842C-0.0941009 30.3867 1.37791 32.3759 3.71791 32.9064C3.82479 32.9314 3.96001 32.8805 4.04098 33H23.8168C23.8338 32.9508 23.8743 32.9483 23.918 32.9435C25.8726 32.7279 27.5381 31.1965 27.8928 29.2638C28.1057 28.1053 27.9721 26.9476 27.7478 25.8101ZM13.9653 14.3827C10.6958 14.3617 8.03193 11.6871 8.05298 8.44656C8.07404 5.19069 10.7703 2.51528 14.005 2.54111C17.294 2.56775 19.9716 5.25931 19.9344 8.50227C19.8971 11.7711 17.2251 14.4037 13.9653 14.3827ZM23.1423 30.4659C20.0955 30.4707 17.0478 30.4675 14.0001 30.4675C10.963 30.4675 7.92667 30.4659 4.88953 30.4683C4.13085 30.4691 3.47177 30.256 2.99 29.6335C2.71228 29.2743 2.5552 28.8706 2.55196 28.4153C2.53739 26.4229 3.01105 24.5467 3.98754 22.8118C5.22555 20.6119 7.00363 18.9755 9.31205 17.9365C11.3322 17.0266 13.4463 16.7465 15.643 17.0589C17.6008 17.3382 19.3627 18.0802 20.9262 19.279C23.0557 20.9106 24.4508 23.0306 25.1075 25.6301C25.3301 26.5084 25.4346 27.4021 25.4378 28.3063C25.4427 29.577 24.5026 30.4642 23.1423 30.4659Z" fill="#848484"/>
</svg>
