<svg width="18" height="24" viewBox="0 0 18 24" fill="none" xmlns="http://www.w3.org/2000/svg">
<path d="M17.5789 12.4983C17.2864 12.825 16.9226 12.895 16.5077 12.8159C14.6983 12.4696 13.1562 11.6321 11.8744 10.3111C11.8338 10.2691 11.8058 10.2075 11.7218 10.2019C11.5098 11.257 11.2985 12.3128 11.0844 13.368C11.0627 13.4736 11.0921 13.545 11.1719 13.6191C11.698 14.1033 12.2088 14.605 12.7462 15.0766C13.1681 15.4481 13.3815 15.9071 13.3885 16.4529C13.4039 17.6472 13.3983 18.8423 13.3997 20.0373C13.4004 20.9973 13.4067 21.9566 13.3948 22.9158C13.3885 23.4679 12.9834 23.9199 12.4698 23.9884C11.8842 24.0675 11.3874 23.7533 11.2174 23.1999C11.1705 23.046 11.1754 22.8899 11.1754 22.7332C11.1747 21.0148 11.1719 19.2964 11.1789 17.5779C11.1796 17.3897 11.132 17.2568 10.9907 17.1253C10.2756 16.4599 9.57171 15.7833 8.85244 15.0997C8.75518 15.2088 8.76148 15.3453 8.73209 15.4635C8.53968 16.2402 8.31998 17.0126 8.17585 17.799C7.98203 18.8577 6.80867 19.7966 5.48137 19.5273C4.02183 19.232 2.5567 18.9668 1.09437 18.6869C0.481445 18.5694 -0.0223261 17.9432 0.000763371 17.3338C0.0238529 16.7432 0.709541 16.2863 1.37494 16.4186C2.75821 16.6942 4.14358 16.9622 5.52335 17.2519C5.76544 17.303 5.82281 17.2561 5.86899 17.0175C6.42804 14.1467 7.00108 11.2787 7.56922 8.40932C7.57552 8.37643 7.57412 8.34145 7.57832 8.26798C6.94231 8.51567 6.33778 8.75846 5.72626 8.98235C5.57583 9.03693 5.58492 9.12859 5.58562 9.24194C5.58632 10.0529 5.58912 10.8645 5.58492 11.6754C5.58073 12.5283 4.91673 13.0223 4.1016 12.7858C3.6657 12.6585 3.37183 12.3254 3.36134 11.8196C3.33895 10.7917 3.29487 9.7597 3.38233 8.73397C3.4495 7.94403 3.8882 7.43886 4.65015 7.14289C5.94526 6.63982 7.21868 6.07728 8.4928 5.52033C8.9364 5.32722 9.38979 5.18798 9.86698 5.146C10.7094 5.07253 11.3671 5.43917 11.8373 6.10736C12.2823 6.73987 12.6986 7.39688 13.0785 8.07067C13.8132 9.37138 14.9677 10.0774 16.353 10.4783C16.5615 10.5391 16.777 10.5762 16.9855 10.6371C17.8531 10.8925 18.1568 11.851 17.5789 12.4983Z" fill="#DCDCDC"/>
<path d="M13.9631 2.2369C13.9596 3.45854 12.9528 4.45978 11.7283 4.45978C10.5018 4.45978 9.50406 3.46134 9.50196 2.2327C9.49916 1.00056 10.4885 0.00491091 11.7193 1.31351e-05C12.9605 -0.00418496 13.9666 0.998459 13.9631 2.2369Z" fill="#DCDCDC"/>
</svg>
