<svg width="35" height="34" viewBox="0 0 35 34" fill="none" xmlns="http://www.w3.org/2000/svg">
<path d="M31.1881 16.4165L19.6699 16.4173C20.4355 12.21 20.4852 7.69375 19.7422 2.62373C19.5236 1.12793 18.2074 0 16.6803 0L3.60509 0.000867635C2.13618 0.000867635 0.864229 1.02121 0.582247 2.42677C-0.214241 6.40488 -0.193418 10.8376 0.643849 15.9784C0.886787 17.469 2.16915 18.55 3.69359 18.55H17.1345C16.2155 23.2417 16.1372 27.5279 16.984 31.5715C17.2781 32.9788 18.5622 34 20.0364 34H31.2471C32.7385 34 34.027 32.964 34.3115 31.5368C35.0733 27.707 35.0594 23.4817 34.2716 18.9786C34.0122 17.4941 32.716 16.4165 31.1881 16.4165ZM2.74873 15.6356C1.95311 10.7526 1.92795 6.56886 2.67325 2.84671C2.7548 2.43979 3.15565 2.13351 3.60509 2.13351L16.6803 2.13265C17.1567 2.13265 17.5653 2.47623 17.6321 2.93261C18.3627 7.91803 18.3349 12.3395 17.5436 16.4174H3.69359C3.22767 16.4174 2.82074 16.0816 2.74873 15.6356ZM32.2205 31.1203C32.1355 31.5463 31.7173 31.8674 31.2471 31.8674H20.0364C19.5661 31.8674 19.16 31.5593 19.0715 31.1342C18.2586 27.2533 18.3228 23.1285 19.2694 18.55L31.1881 18.5492C31.6696 18.5492 32.0913 18.891 32.1711 19.3456C32.9138 23.5884 32.9303 27.55 32.2205 31.1203Z" fill="#848484"/>
</svg>
