<svg width="21" height="17" viewBox="0 0 21 17" fill="none" xmlns="http://www.w3.org/2000/svg">
<path d="M20.1937 5.08666C18.6626 3.60434 17.1303 2.12309 15.5992 0.640772C15.4057 0.453097 15.2024 0.278145 14.9569 0.155149C14.6741 0.013597 14.3782 -0.0447201 14.0664 0.0379842C13.5896 0.163631 13.2636 0.586166 13.2027 1.15396C13.1413 1.72759 13.177 2.30334 13.1781 2.87803C13.1786 3.04609 13.1244 3.08956 12.9632 3.09327C12.4985 3.10388 12.0371 3.15848 11.579 3.23218C8.79012 3.68281 6.35476 4.8359 4.30793 6.72484C1.95257 8.89742 0.551301 11.5493 0.113987 14.6745C0.0800098 14.9173 0.102478 15.1692 0 15.4019V15.6002C0.0345248 15.6346 0.0164404 15.6781 0.0208245 15.7179V15.7979C0.0153444 15.8382 0.0356208 15.8822 0 15.9178V16.0763C0.0334288 16.1558 0.0334288 16.2353 0 16.3143V16.5523C0.0959022 16.7273 0.195641 16.8948 0.409365 16.9643C0.688304 17.0555 0.938198 16.9738 1.15576 16.6992C2.92584 14.4635 5.14419 12.7935 7.84645 11.7343C9.49268 11.0896 11.2058 10.7402 12.9769 10.6427C13.1408 10.6337 13.1808 10.6761 13.1764 10.8309C13.1655 11.2603 13.1704 11.6898 13.1737 12.1197C13.1759 12.4182 13.2044 12.713 13.3255 12.9929C13.5874 13.5983 14.1952 13.8427 14.8226 13.5962C15.1202 13.479 15.3586 13.2839 15.5822 13.0682C15.9066 12.7554 16.2294 12.4415 16.5533 12.1287C17.771 10.9507 18.9914 9.77536 20.2058 8.5947C21.2706 7.55878 21.2629 6.12153 20.1937 5.08666ZM19.649 7.34566C19.5827 7.48562 19.4879 7.6049 19.3761 7.71306C17.8104 9.22718 16.2453 10.7418 14.6791 12.2549C14.6128 12.3191 14.5514 12.3912 14.4423 12.4362C14.4012 12.3191 14.4034 12.204 14.4029 12.089C14.4029 11.4279 14.4045 10.7673 14.4023 10.1062C14.4007 9.66509 14.1601 9.43606 13.7031 9.44189C8.93863 9.50339 4.89211 11.1957 1.53444 14.4545C1.49607 14.4916 1.45717 14.5287 1.41661 14.5637C1.40894 14.5701 1.3914 14.5659 1.33003 14.569C2.3729 9.71598 5.21105 6.3988 10.0917 4.79773C11.2491 4.41813 12.4541 4.26492 13.6768 4.25485C14.1733 4.25114 14.4018 4.03165 14.4029 3.55292C14.4034 2.9056 14.4029 2.25775 14.4029 1.6099C14.4029 1.49167 14.4029 1.37345 14.4401 1.25416C14.5437 1.29339 14.6117 1.36921 14.6829 1.43813C16.2486 2.95119 17.8153 4.46479 19.3777 5.98156C19.7789 6.3707 19.8715 6.87753 19.649 7.34566Z" fill="#A2FF00"/>
</svg>
