<svg width="138" height="117" viewBox="0 0 138 117" fill="none" xmlns="http://www.w3.org/2000/svg">
<path d="M54.9313 66.903C53.5241 66.9066 52.2824 68.1319 52.25 69.5482C52.214 71.051 53.4269 72.2764 54.9493 72.2728C56.4213 72.2691 57.5909 71.1267 57.6233 69.6635C57.6521 68.1824 56.3997 66.8958 54.9313 66.903ZM54.9313 66.903C53.5241 66.9066 52.2824 68.1319 52.25 69.5482C52.214 71.051 53.4269 72.2764 54.9493 72.2728C56.4213 72.2691 57.5909 71.1267 57.6233 69.6635C57.6521 68.1824 56.3997 66.8958 54.9313 66.903ZM54.9313 66.903C53.5241 66.9066 52.2824 68.1319 52.25 69.5482C52.214 71.051 53.4269 72.2764 54.9493 72.2728C56.4213 72.2691 57.5909 71.1267 57.6233 69.6635C57.6521 68.1824 56.3997 66.8958 54.9313 66.903ZM54.9313 66.903C53.5241 66.9066 52.2824 68.1319 52.25 69.5482C52.214 71.051 53.4269 72.2764 54.9493 72.2728C56.4213 72.2691 57.5909 71.1267 57.6233 69.6635C57.6521 68.1824 56.3997 66.8958 54.9313 66.903ZM137.87 100.026C137.669 99.9469 137.661 99.7739 137.64 99.5938C136.65 92.022 132.911 86.1729 126.62 81.9167C123.215 79.6139 119.285 78.6336 115.438 77.484C109.658 75.7541 105.796 72.1034 103.64 66.4597C98.5007 52.992 93.2749 39.5567 88.0924 26.1035C87.5741 24.7556 86.9731 23.4546 86.0446 22.3446C82.2584 17.8109 77.4862 16.7154 71.8753 18.0993C64.537 19.912 57.0943 16.1207 54.0747 9.19767C53.139 7.04976 52.7251 4.74328 52.0413 2.51608C51.4439 0.56278 50.6989 -0.0210484 48.6582 0.000574916C32.8227 0.14473 18.8334 11.7817 15.6591 27.4801C15.5331 28.0892 15.3748 28.5036 14.7809 28.8424C3.84358 35.0267 2.3428 48.6998 11.657 57.1617C19.5352 64.3154 27.4098 71.4691 35.2844 78.6264C35.6119 78.9219 35.9142 79.2391 36.3497 79.6751C36.4181 79.7436 36.49 79.8157 36.5656 79.8913H34.8525C26.9527 79.8913 19.0565 79.8877 11.1567 79.895C10.5773 79.8986 9.98346 79.9094 9.42202 80.0355C8.15878 80.3202 7.3562 81.423 7.39939 82.6952C7.44617 84.0178 8.39631 85.0737 9.73153 85.2323C10.2174 85.2936 10.7141 85.2828 11.2071 85.2828C21.2627 85.2828 31.3147 85.29 41.3667 85.2683C42.2268 85.2683 42.8782 85.4774 43.5297 86.072C50.2238 92.1914 56.9539 98.2747 63.6588 104.376C66.3905 106.863 69.3416 109.043 72.5519 110.867C72.8075 111.014 73.3113 111.004 73.225 111.551C62.8491 111.551 52.484 111.551 42.1189 111.555C41.5826 111.555 41.0392 111.537 40.5065 111.598C39.1101 111.757 38.1672 112.856 38.178 114.258C38.1924 115.963 39.3872 116.939 41.4962 116.943C49.6192 116.957 57.7421 116.968 65.865 116.972C85.0728 116.986 104.281 117.018 123.488 116.986C128.433 116.979 132.36 114.831 135.293 110.834C136.61 109.04 137.15 106.924 137.87 104.877V102.181C137.65 101.644 137.65 101.104 137.87 100.563V100.026ZM131.266 99.9541C123.96 99.8388 116.643 100.199 109.344 99.7451C99.5876 99.1433 90.5145 96.2313 81.9597 91.2183C84.4106 90.0291 86.7536 88.9407 89.0533 87.7694C94.3294 85.0845 99.368 82.0068 104.173 78.5471C104.799 78.0966 105.195 78.0029 105.864 78.5651C108.844 81.077 112.45 82.2843 116.125 83.3295C119.677 84.3349 123.103 85.5747 125.929 88.1082C129.178 91.0201 131.212 94.6024 132.13 98.8586C132.302 99.6586 132.187 99.9686 131.266 99.9541ZM72.7931 23.7754C76.3741 21.7896 80.826 23.2348 82.6003 26.9432C83.2193 28.2334 83.644 29.61 84.2055 30.9291C84.4718 31.5561 84.2127 31.8048 83.68 32.0282C82.6939 32.4499 81.7042 32.8752 80.754 33.3725C79.3396 34.1113 78.843 35.5312 79.4512 36.8899C80.0414 38.2053 81.4954 38.7783 82.9566 38.2557C83.2481 38.1476 83.5289 38.0071 83.8168 37.8773C86.4117 36.6953 86.4153 36.6953 87.4158 39.2901C88.0096 40.8361 88.5171 42.4218 89.2045 43.9246C89.6615 44.9157 89.3916 45.3157 88.4523 45.6437C87.5705 45.9536 86.732 46.3933 85.8898 46.8078C84.3386 47.5718 83.7376 49.0566 84.3854 50.4729C85.0008 51.8207 86.5088 52.3613 88.0348 51.7342C88.9849 51.345 89.9063 50.8837 90.842 50.4549C91.2631 50.2567 91.5906 50.0729 91.8425 50.754C92.7495 53.2335 93.7248 55.6877 94.6893 58.1456C94.8729 58.6141 94.8081 58.8807 94.3078 59.0826C93.5629 59.3817 92.8215 59.7132 92.1269 60.1133C90.8708 60.8377 90.4425 62.1855 90.9932 63.4721C91.5402 64.7515 92.8071 65.3497 94.2035 64.9857C94.3726 64.9425 94.5382 64.874 94.7037 64.8055C96.9099 63.937 96.9027 63.937 97.7485 66.1281C98.7022 68.5896 99.5372 71.1123 101.063 73.3035C101.434 73.8368 101.214 74.0783 100.793 74.3702C98.2164 76.1613 95.5819 77.8624 92.9078 79.5057C92.0189 80.0535 91.9577 79.2967 91.7058 78.8679C87.3438 71.3466 82.9926 63.8217 78.6414 56.2968C75.3627 50.6351 72.1021 44.9626 68.809 39.3117C67.7257 37.4521 67.0527 35.4916 67.0455 32.8139C67.2398 29.0983 69.0645 25.8404 72.7931 23.7754ZM21.1871 27.4225C22.4612 22.4023 24.9049 18.0488 28.4607 14.3044C28.8782 13.8647 29.1661 13.6449 29.7815 14.0701C35.6839 18.1497 38.5739 23.7934 38.6674 29.592C38.5199 34.9978 37.2386 38.6558 34.8885 41.9605C34.435 42.5948 34.1651 42.912 33.4525 42.1119C29.5368 37.7332 25.5599 33.4085 21.5794 29.0875C21.0936 28.5613 21.0108 28.118 21.1871 27.4225ZM15.5907 53.4929C12.4668 50.6675 10.6385 47.3736 11.0236 43.0885C11.3835 39.0666 13.3161 35.9997 16.7676 33.8698C17.6637 33.3184 18.2108 33.322 18.9989 34.1942C27.255 43.3156 35.5651 52.3866 43.8608 61.4719C44.1955 61.8359 44.5122 62.2179 44.8793 62.5495C46.013 63.5694 47.4562 63.5946 48.5287 62.6396C49.6264 61.6629 49.7811 60.088 48.759 58.9024C47.1467 57.0283 45.4551 55.23 43.7924 53.4028C42.1009 51.5432 40.4453 49.6476 38.6926 47.8493C37.9836 47.1213 38.0052 46.6924 38.6278 45.8996C46.0058 36.5223 45.8222 23.6672 38.2284 14.4774C36.8787 12.8448 35.3096 11.4429 33.5641 10.1022C37.5841 7.51106 41.8705 5.99382 46.542 5.52892C47.2474 5.46045 47.359 5.76678 47.503 6.29295C47.8593 7.58674 48.1904 8.89495 48.6654 10.1491C51.3431 17.2307 56.4356 21.5986 63.7344 23.4258C64.5118 23.6204 64.8069 23.6925 64.2743 24.5646C60.812 30.2335 60.7185 36.0141 64.0295 41.7659C71.627 54.9705 79.2677 68.1535 86.9299 81.3185C87.5057 82.306 87.3798 82.6303 86.3613 83.1204C83.4209 84.5404 80.4697 85.9314 77.4574 87.1964C76.752 87.4919 76.2877 87.4343 75.6723 86.9586C71.9509 84.0971 68.6974 80.7599 65.5843 77.2749C65.1632 76.8028 64.7385 76.3307 64.1447 76.0821C63.0506 75.6244 61.7118 75.9884 60.992 76.9218C60.1714 77.9849 60.2182 79.3508 61.2331 80.4896C64.0979 83.7115 67.0311 86.8685 70.3745 89.6146C83.0898 100.051 97.6729 105.27 114.102 105.324C119.67 105.346 125.234 105.356 130.798 105.306C131.946 105.295 132.115 105.558 131.59 106.542C129.931 109.645 127.379 111.555 123.874 111.562C113.465 111.591 103.046 111.908 92.6523 111.35C82.9962 110.831 74.6142 107.021 67.463 100.545C50.159 84.8755 32.9054 69.1518 15.5907 53.4929ZM54.9313 66.903C53.5241 66.9066 52.2824 68.1319 52.25 69.5482C52.214 71.051 53.4269 72.2764 54.9493 72.2728C56.4213 72.2691 57.5909 71.1267 57.6233 69.6635C57.6521 68.1824 56.3997 66.8958 54.9313 66.903ZM54.9313 66.903C53.5241 66.9066 52.2824 68.1319 52.25 69.5482C52.214 71.051 53.4269 72.2764 54.9493 72.2728C56.4213 72.2691 57.5909 71.1267 57.6233 69.6635C57.6521 68.1824 56.3997 66.8958 54.9313 66.903ZM54.9313 66.903C53.5241 66.9066 52.2824 68.1319 52.25 69.5482C52.214 71.051 53.4269 72.2764 54.9493 72.2728C56.4213 72.2691 57.5909 71.1267 57.6233 69.6635C57.6521 68.1824 56.3997 66.8958 54.9313 66.903Z" fill="#333333"/>
<path d="M29.7997 114.189C29.8285 115.844 28.5508 116.939 26.521 116.943C20.5611 116.954 14.6011 116.954 8.63759 116.939C7.10802 116.936 5.99593 116.244 5.69002 115.08C5.38051 113.905 5.63244 112.863 6.64375 112.074C7.25558 111.598 7.95739 111.551 8.68078 111.551H17.6891C20.6474 111.551 23.6058 111.544 26.5606 111.555C28.5472 111.566 29.7709 112.579 29.7997 114.189Z" fill="#333333"/>
<path d="M42.7163 98.372C42.7487 99.983 41.4855 101.1 39.578 101.111C36.8392 101.122 34.1039 101.115 31.3687 101.115C28.6299 101.115 25.8946 101.129 23.1594 101.107C21.2915 101.097 20.1507 100.041 20.1615 98.3973C20.1722 96.7647 21.3239 95.7268 23.199 95.7232C28.6731 95.7124 34.1471 95.7124 39.6176 95.7232C41.4531 95.7268 42.6875 96.8008 42.7163 98.372Z" fill="#333333"/>
<path d="M12.7332 98.419C12.7332 99.9542 11.6427 101.05 9.998 101.104C8.79234 101.14 7.58667 101.111 6.37741 101.111C5.17175 101.107 3.96249 101.14 2.75683 101.1C1.13368 101.05 0.00359899 99.9218 0 98.419C0 96.9342 1.15168 95.7593 2.75683 95.7341C5.17175 95.6908 7.58667 95.6908 9.998 95.7305C11.6427 95.7593 12.7368 96.8837 12.7332 98.419Z" fill="#333333"/>
</svg>
