<svg width="28" height="26" viewBox="0 0 28 26" fill="none" xmlns="http://www.w3.org/2000/svg">
<path d="M27.7656 9.79339C27.7569 10.5275 27.1974 11.0892 26.4575 11.1022C26.1865 11.1066 25.9154 11.1051 25.6444 11.1022C24.8638 11.0957 24.321 10.563 24.2949 9.78035C24.2543 8.57151 23.5122 7.61342 22.3664 7.29092C22.1396 7.22715 21.9077 7.19816 21.6714 7.19816C16.602 7.19888 11.5325 7.19816 6.46236 7.19816H6.25364C6.26669 7.2112 6.27901 7.22352 6.29205 7.23657C6.64717 7.59096 6.96605 7.90766 7.28203 8.22581C7.74585 8.69254 7.74585 9.17448 7.28275 9.6412C6.95807 9.96805 6.6334 10.2956 6.30437 10.6181C5.88331 11.0305 5.3876 11.0283 4.96726 10.6094C3.38156 9.02591 1.79732 7.44021 0.213069 5.85524C0.139147 5.78132 0.071023 5.70233 0 5.62551V5.3001C0.888512 4.40507 1.7763 3.50931 2.66626 2.61573C3.41925 1.86056 4.17369 1.10758 4.92885 0.354588C5.39919 -0.115033 5.87751 -0.117932 6.34278 0.344442C6.66963 0.669843 6.99721 0.99452 7.31971 1.32282C7.73425 1.74533 7.73498 2.23887 7.32044 2.66066C6.99286 2.99331 6.65876 3.32088 6.2877 3.68904L6.24929 3.72745H6.59789C11.6043 3.72745 16.6107 3.72528 21.6171 3.72818C24.5631 3.73035 26.9735 5.65739 27.6294 8.5302C27.7243 8.94474 27.77 9.36726 27.7656 9.79339Z" fill="url(#paint0_linear_618_528)"/>
<path d="M27.5837 20.5761C25.9821 22.182 24.379 23.7866 22.7723 25.3868C22.378 25.7796 21.8743 25.7723 21.4743 25.381C21.1257 25.0396 20.7815 24.6932 20.4394 24.3461C20.0343 23.9359 20.0314 23.4373 20.4329 23.03C20.7728 22.685 21.1192 22.3466 21.4743 21.9943C21.4765 21.9922 21.4794 21.9893 21.4815 21.9871C21.4786 21.9849 21.4757 21.9835 21.4728 21.982C21.375 21.9211 21.2772 21.9516 21.1888 21.9516C16.165 21.9494 11.1405 21.953 6.11667 21.948C3.29242 21.9451 0.902281 20.0934 0.186254 17.38C0.115956 17.1148 0.11813 16.8336 0 16.5807V15.6045C0.18408 15.1203 0.460924 14.7159 1.00737 14.6181C1.48786 14.5311 1.98212 14.5253 2.46044 14.6188C3.05036 14.7341 3.44099 15.2348 3.46925 15.8342C3.54462 17.4453 4.61794 18.478 6.22176 18.4787C11.2187 18.4794 16.2157 18.4787 21.2119 18.4787H21.5359C21.5134 18.4562 21.491 18.4345 21.4685 18.4128C21.1148 18.0671 20.801 17.7649 20.493 17.4576C20.0118 16.9793 20.014 16.5067 20.4937 16.0262C20.8199 15.7001 21.1431 15.3718 21.4721 15.0493C21.8714 14.6572 22.3759 14.6471 22.7694 15.0392C24.3761 16.6394 25.9792 18.2439 27.5815 19.8492C27.8359 20.1043 27.8374 20.3217 27.5837 20.5761Z" fill="url(#paint1_linear_618_528)"/>
<defs>
<linearGradient id="paint0_linear_618_528" x1="13.883" y1="0" x2="13.883" y2="11.105" gradientUnits="userSpaceOnUse">
<stop stop-color="#A2FF00"/>
<stop offset="1" stop-color="#00FF7F"/>
</linearGradient>
<linearGradient id="paint1_linear_618_528" x1="13.8866" y1="14.5508" x2="13.8866" y2="25.678" gradientUnits="userSpaceOnUse">
<stop stop-color="#A2FF00"/>
<stop offset="1" stop-color="#00FF7F"/>
</linearGradient>
</defs>
</svg>
