<svg width="30" height="25" viewBox="0 0 30 25" fill="none" xmlns="http://www.w3.org/2000/svg">
<path d="M12.0879 13.8263C11.7971 13.8271 11.5405 14.0803 11.5338 14.373C11.5264 14.6836 11.777 14.9368 12.0916 14.936C12.3958 14.9353 12.6376 14.6992 12.6443 14.3968C12.6502 14.0907 12.3914 13.8248 12.0879 13.8263ZM12.0879 13.8263C11.7971 13.8271 11.5405 14.0803 11.5338 14.373C11.5264 14.6836 11.777 14.9368 12.0916 14.936C12.3958 14.9353 12.6376 14.6992 12.6443 14.3968C12.6502 14.0907 12.3914 13.8248 12.0879 13.8263ZM12.0879 13.8263C11.7971 13.8271 11.5405 14.0803 11.5338 14.373C11.5264 14.6836 11.777 14.9368 12.0916 14.936C12.3958 14.9353 12.6376 14.6992 12.6443 14.3968C12.6502 14.0907 12.3914 13.8248 12.0879 13.8263ZM12.0879 13.8263C11.7971 13.8271 11.5405 14.0803 11.5338 14.373C11.5264 14.6836 11.777 14.9368 12.0916 14.936C12.3958 14.9353 12.6376 14.6992 12.6443 14.3968C12.6502 14.0907 12.3914 13.8248 12.0879 13.8263ZM29.2282 20.6716C29.1866 20.6553 29.1851 20.6195 29.1806 20.5823C28.9761 19.0175 28.2033 17.8087 26.9032 16.9291C26.1996 16.4532 25.3874 16.2506 24.5923 16.013C23.3978 15.6555 22.5997 14.901 22.1542 13.7347C21.0921 10.9514 20.0121 8.17488 18.9411 5.3946C18.834 5.11605 18.7097 4.84718 18.5179 4.61779C17.7354 3.68085 16.7492 3.45443 15.5896 3.74043C14.073 4.11506 12.5349 3.33154 11.9109 1.90081C11.7175 1.45692 11.632 0.980256 11.4907 0.519979C11.3672 0.116305 11.2132 -0.0043499 10.7915 0.000118813C7.5189 0.0299102 4.62784 2.43482 3.97183 5.67911C3.9458 5.80498 3.91308 5.89063 3.79035 5.96064C1.53002 7.23869 1.21986 10.0644 3.14476 11.8132C4.77288 13.2916 6.40026 14.77 8.02764 16.2491C8.09532 16.3102 8.1578 16.3757 8.2478 16.4658C8.26193 16.48 8.27681 16.4949 8.29243 16.5105H7.93839C6.3058 16.5105 4.67396 16.5098 3.04137 16.5113C2.92162 16.512 2.7989 16.5142 2.68287 16.5403C2.42181 16.5991 2.25594 16.8271 2.26487 17.09C2.27454 17.3633 2.47089 17.5815 2.74684 17.6143C2.84725 17.627 2.94989 17.6247 3.05178 17.6247C5.12989 17.6247 7.20726 17.6262 9.28462 17.6217C9.46238 17.6217 9.59701 17.6649 9.73163 17.7878C11.1151 19.0525 12.5059 20.3097 13.8916 21.5706C14.4561 22.0845 15.066 22.5351 15.7294 22.912C15.7822 22.9425 15.8864 22.9403 15.8685 23.0535C13.7242 23.0535 11.5821 23.0535 9.44007 23.0542C9.32925 23.0542 9.21694 23.0505 9.10686 23.0631C8.81827 23.0959 8.62341 23.3231 8.62564 23.6128C8.62861 23.9651 8.87555 24.1669 9.3114 24.1677C10.9901 24.1706 12.6688 24.1729 14.3475 24.1736C18.317 24.1766 22.2866 24.1833 26.2561 24.1766C27.278 24.1751 28.0895 23.7312 28.6957 22.9052C28.9679 22.5343 29.0795 22.0972 29.2282 21.6741V21.117C29.1828 21.006 29.1828 20.8943 29.2282 20.7826V20.6716ZM27.8634 20.6567C26.3535 20.6329 24.8414 20.7074 23.3331 20.6135C21.3167 20.4892 19.4416 19.8874 17.6737 18.8514C18.1802 18.6056 18.6644 18.3807 19.1396 18.1386C20.23 17.5838 21.2713 16.9477 22.2642 16.2327C22.3937 16.1396 22.4755 16.1203 22.6138 16.2364C23.2297 16.7556 23.9749 17.0051 24.7343 17.221C25.4684 17.4288 26.1765 17.685 26.7604 18.2086C27.432 18.8104 27.8522 19.5507 28.0419 20.4303C28.0776 20.5957 28.0538 20.6597 27.8634 20.6567ZM15.7793 4.91347C16.5193 4.50309 17.4394 4.80175 17.8061 5.56813C17.934 5.83477 18.0218 6.11928 18.1378 6.39187C18.1928 6.52146 18.1393 6.57285 18.0292 6.61903C17.8254 6.70617 17.6209 6.79405 17.4245 6.89683C17.1322 7.04951 17.0296 7.34296 17.1553 7.62374C17.2772 7.89559 17.5777 8.01401 17.8797 7.90602C17.9399 7.88367 17.998 7.85462 18.0575 7.82781C18.5937 7.58352 18.5945 7.58352 18.8012 8.11977C18.924 8.43928 19.0288 8.76699 19.1709 9.07756C19.2653 9.28238 19.2096 9.36505 19.0154 9.43283C18.8332 9.49688 18.6599 9.58774 18.4859 9.67339C18.1653 9.83129 18.0411 10.1381 18.175 10.4308C18.3022 10.7094 18.6138 10.8211 18.9292 10.6915C19.1255 10.6111 19.3159 10.5157 19.5093 10.4271C19.5963 10.3862 19.664 10.3482 19.7161 10.4889C19.9035 11.0013 20.1051 11.5085 20.3044 12.0165C20.3423 12.1133 20.3289 12.1684 20.2256 12.2101C20.0716 12.2719 19.9184 12.3405 19.7748 12.4231C19.5153 12.5728 19.4267 12.8514 19.5405 13.1173C19.6536 13.3817 19.9154 13.5053 20.204 13.4301C20.2389 13.4212 20.2732 13.407 20.3074 13.3928C20.7633 13.2134 20.7618 13.2134 20.9366 13.6662C21.1337 14.1749 21.3063 14.6962 21.6216 15.1491C21.6982 15.2593 21.6529 15.3092 21.5658 15.3695C21.0333 15.7397 20.4889 16.0912 19.9362 16.4308C19.7525 16.544 19.7399 16.3876 19.6878 16.299C18.7864 14.7446 17.8871 13.1895 16.9879 11.6344C16.3103 10.4644 15.6365 9.29206 14.9559 8.12424C14.732 7.73993 14.5929 7.33476 14.5915 6.78139C14.6316 6.01352 15.0087 5.34023 15.7793 4.91347ZM5.11427 5.66719C5.37757 4.6297 5.88259 3.73 6.61744 2.95617C6.70372 2.86531 6.76322 2.81988 6.89041 2.90776C8.1102 3.75086 8.70745 4.91719 8.72679 6.11555C8.6963 7.23273 8.43151 7.98869 7.94583 8.67165C7.85211 8.80274 7.79633 8.86828 7.64906 8.70294C6.83983 7.79802 6.01796 6.90428 5.19534 6.01128C5.09493 5.90254 5.07783 5.81093 5.11427 5.66719ZM3.9577 11.055C3.3121 10.4711 2.93427 9.79032 3.01385 8.90477C3.08823 8.07359 3.48764 7.43978 4.20092 6.99961C4.38612 6.88566 4.49917 6.8864 4.66206 7.06664C6.36828 8.95169 8.08566 10.8263 9.80006 12.7039C9.86923 12.7791 9.93468 12.8581 10.0105 12.9266C10.2448 13.1374 10.5431 13.1426 10.7647 12.9452C10.9916 12.7434 11.0236 12.4179 10.8123 12.1729C10.4791 11.7856 10.1296 11.414 9.78593 11.0363C9.43635 10.652 9.09422 10.2603 8.732 9.88863C8.58547 9.73819 8.58994 9.64956 8.71861 9.4857C10.2433 7.54777 10.2054 4.89112 8.63605 2.99192C8.35713 2.65453 8.03285 2.36481 7.67212 2.08775C8.50291 1.55225 9.38875 1.2387 10.3542 1.14262C10.5 1.12847 10.523 1.19178 10.5528 1.30051C10.6264 1.56789 10.6948 1.83825 10.793 2.09743C11.3464 3.56094 12.3988 4.46362 13.9072 4.84122C14.0678 4.88144 14.1288 4.89634 14.0188 5.07658C13.3032 6.24812 13.2839 7.44276 13.9682 8.63144C15.5383 11.3603 17.1173 14.0848 18.7008 16.8055C18.8198 17.0095 18.7938 17.0766 18.5833 17.1778C17.9756 17.4713 17.3657 17.7588 16.7432 18.0202C16.5974 18.0813 16.5015 18.0694 16.3743 17.971C15.6052 17.3797 14.9329 16.69 14.2895 15.9698C14.2025 15.8722 14.1147 15.7747 13.992 15.7233C13.7659 15.6287 13.4892 15.7039 13.3404 15.8968C13.1708 16.1165 13.1805 16.3988 13.3903 16.6342C13.9823 17.3 14.5885 17.9524 15.2795 18.52C17.9072 20.6768 20.921 21.7553 24.3163 21.7665C25.4669 21.7709 26.6168 21.7732 27.7667 21.7627C28.004 21.7605 28.0389 21.8149 27.9303 22.0182C27.5875 22.6595 27.0601 23.0542 26.3357 23.0557C24.1847 23.0617 22.0314 23.1272 19.8834 23.0118C17.8879 22.9045 16.1556 22.1173 14.6777 20.7789C11.1017 17.5406 7.53601 14.2911 3.9577 11.055ZM12.0879 13.8263C11.7971 13.8271 11.5405 14.0803 11.5338 14.373C11.5264 14.6836 11.777 14.9368 12.0916 14.936C12.3958 14.9353 12.6376 14.6992 12.6443 14.3968C12.6502 14.0907 12.3914 13.8248 12.0879 13.8263ZM12.0879 13.8263C11.7971 13.8271 11.5405 14.0803 11.5338 14.373C11.5264 14.6836 11.777 14.9368 12.0916 14.936C12.3958 14.9353 12.6376 14.6992 12.6443 14.3968C12.6502 14.0907 12.3914 13.8248 12.0879 13.8263ZM12.0879 13.8263C11.7971 13.8271 11.5405 14.0803 11.5338 14.373C11.5264 14.6836 11.777 14.9368 12.0916 14.936C12.3958 14.9353 12.6376 14.6992 12.6443 14.3968C12.6502 14.0907 12.3914 13.8248 12.0879 13.8263Z" fill="#A5A5A5"/>
<path d="M6.89467 23.5989C6.90063 23.9407 6.63658 24.1672 6.21709 24.1679C4.9854 24.1701 3.75371 24.1701 2.52127 24.1672C2.20517 24.1664 1.97534 24.0234 1.91212 23.7829C1.84816 23.5401 1.90022 23.3248 2.10922 23.1617C2.23566 23.0634 2.3807 23.0537 2.5302 23.0537H4.39187C5.00325 23.0537 5.61464 23.0522 6.22528 23.0545C6.63584 23.0567 6.88872 23.266 6.89467 23.5989Z" fill="#A5A5A5"/>
<path d="M9.5636 20.3299C9.57029 20.6628 9.30923 20.8937 8.91503 20.8959C8.34901 20.8981 7.78375 20.8966 7.21848 20.8966C6.65246 20.8966 6.08719 20.8996 5.52192 20.8951C5.1359 20.8929 4.90013 20.6747 4.90236 20.3351C4.90459 19.9977 5.1426 19.7832 5.53011 19.7824C6.66139 19.7802 7.79267 19.7802 8.92321 19.7824C9.30254 19.7832 9.55765 20.0051 9.5636 20.3299Z" fill="#A5A5A5"/>
<path d="M3.36732 20.3397C3.36732 20.657 3.14195 20.8834 2.80205 20.8946C2.55288 20.9021 2.30372 20.8961 2.05381 20.8961C1.80465 20.8953 1.55474 20.9021 1.30557 20.8939C0.970129 20.8834 0.736584 20.6503 0.73584 20.3397C0.73584 20.0329 0.973848 19.7901 1.30557 19.7849C1.80465 19.7759 2.30372 19.7759 2.80205 19.7841C3.14195 19.7901 3.36806 20.0225 3.36732 20.3397Z" fill="#A5A5A5"/>
</svg>
