<svg width="56" height="56" viewBox="0 0 56 56" fill="none" xmlns="http://www.w3.org/2000/svg">
<mask id="mask0_2030_788" style="mask-type:luminance" maskUnits="userSpaceOnUse" x="0" y="0" width="56" height="56">
<path d="M28 56C43.464 56 56 43.464 56 28C56 12.536 43.464 0 28 0C12.536 0 0 12.536 0 28C0 43.464 12.536 56 28 56Z" fill="white"/>
</mask>
<g mask="url(#mask0_2030_788)">
<path d="M26.2536 61.3539C44.7668 61.3539 59.7748 46.3459 59.7748 27.8327C59.7748 9.31946 44.7668 -5.68848 26.2536 -5.68848C7.74036 -5.68848 -7.26758 9.31946 -7.26758 27.8327C-7.26758 46.3459 7.74036 61.3539 26.2536 61.3539Z" fill="#AFAFAF"/>
</g>
<path d="M40.1572 32.1593C37.4952 35.4362 33.4504 38.3804 30.6692 41.6474C29.3584 42.6517 28.0333 42.6517 26.7226 41.6474C23.9387 38.3804 19.8939 35.4362 17.2319 32.1593C14.9116 29.3009 17.4015 26.0987 20.6305 27.507L25.8302 32.6039V16.043C25.8302 15.969 26.1936 15.2056 26.2846 15.0649C27.4061 13.343 29.9824 13.343 31.1039 15.0649C31.1949 15.2056 31.5583 15.969 31.5583 16.043V32.6039L36.758 27.507C39.987 26.098 42.4769 29.3009 40.1566 32.1593H40.1572Z" fill="#FEFEFE"/>
</svg>
