<svg width="31" height="18" viewBox="0 0 31 18" fill="none" xmlns="http://www.w3.org/2000/svg">
<path d="M20.8967 15.5696C21.0705 15.2538 21.23 14.9276 21.3696 14.5954C21.4518 14.4018 21.3345 14.1652 21.1499 14.0878C20.9382 13.9982 20.7552 14.0488 20.5851 14.2548C20.4443 14.5484 20.2694 14.8668 20.1376 15.2022C20.0548 15.4138 20.1551 15.5977 20.362 15.7056C20.5456 15.8015 20.7941 15.7542 20.8967 15.5696ZM23.4651 14.6032C23.5571 14.3848 23.4562 14.1787 23.2498 14.0771C23.0477 13.9777 22.8246 14.0292 22.7053 14.2403C22.5367 14.5397 22.3839 14.8498 22.245 15.165C22.1602 15.3575 22.265 15.5951 22.4402 15.6865C22.6334 15.7878 22.8704 15.7321 23.0338 15.5146C23.1648 15.2415 23.3292 14.9281 23.4651 14.6032ZM23.4651 14.6032C23.5571 14.3848 23.4562 14.1787 23.2498 14.0771C23.0477 13.9777 22.8246 14.0292 22.7053 14.2403C22.5367 14.5397 22.3839 14.8498 22.245 15.165C22.1602 15.3575 22.265 15.5951 22.4402 15.6865C22.6334 15.7878 22.8704 15.7321 23.0338 15.5146C23.1648 15.2415 23.3292 14.9281 23.4651 14.6032ZM21.3696 14.5954C21.4518 14.4018 21.3345 14.1652 21.1499 14.0878C20.9382 13.9982 20.7552 14.0488 20.5851 14.2548C20.4443 14.5484 20.2694 14.8668 20.1376 15.2022C20.0548 15.4138 20.1551 15.5977 20.362 15.7056C20.5456 15.8015 20.7941 15.7542 20.8967 15.5696C21.0705 15.2538 21.23 14.9276 21.3696 14.5954ZM29.9194 14.5383C29.6966 13.8657 29.6548 13.1855 29.7674 12.4869C30.2139 9.7198 30.0175 6.99393 29.1991 4.31526C28.9857 3.6159 28.4967 3.18081 27.7679 3.08061C27.057 2.98248 26.4983 3.26889 26.1083 3.8712C25.8423 4.28355 25.5862 4.6997 25.25 5.06335C24.6103 5.75492 23.8673 6.14799 22.889 6.002C22.298 5.91319 21.7382 5.75052 21.2016 5.49144C21.0228 5.4049 20.9747 5.32116 21.0511 5.10905C21.6965 3.31022 21.2094 1.81217 19.6799 0.82657C19.1082 0.458863 18.4437 0.526337 18.0268 1.01C17.1495 2.02883 16.2863 3.05955 15.4016 4.07129C15.0924 4.42439 14.8464 4.84623 14.4344 5.09843C11.8542 6.67909 9.27003 8.25261 6.68823 9.83207C6.54694 9.91886 6.40229 9.95955 6.2381 9.97175C5.19235 10.0486 4.14714 10.1351 3.10129 10.2144C2.49513 10.2605 1.95146 10.4664 1.46651 10.8325C1.36269 10.9105 1.28653 11.0254 1.15226 11.0611L1.00246 11.2668C0.945891 11.4136 0.856011 11.537 0.733621 11.6359L0.643741 11.7593C0.469018 12.0844 0.313348 12.4134 0.279023 12.7913C0.245003 13.1619 0.275838 13.531 0.261074 13.9005C0.23919 14.478 0.399398 14.975 0.846735 15.3612L1.70843 15.9889C1.76625 15.9798 1.79705 16.0274 1.83919 16.0514C1.84154 16.0539 1.84428 16.0559 1.84757 16.0583L1.86128 16.0683C1.88542 16.0859 1.90955 16.1035 1.91357 16.1383L2.03698 16.2282C2.06808 16.2005 2.09541 16.2137 2.12593 16.2317C3.64381 17.1375 5.29048 17.5496 7.05333 17.5359C11.7855 17.4992 16.5176 17.4717 21.2497 17.4316C22.8294 17.418 24.4117 17.4667 25.9887 17.3613C27.173 17.2821 28.3158 17.0225 29.3184 16.3409C29.9976 15.8787 30.1789 15.3208 29.9194 14.5383ZM28.9499 15.5386C28.5633 15.8354 28.1253 16.0276 27.665 16.1732C26.9109 16.4121 26.135 16.5127 25.3227 16.5329C25.4268 16.095 25.5267 15.6709 25.6286 15.2474C25.7812 14.6173 25.9333 13.9877 26.0899 13.3589C26.2522 12.7074 26.6936 12.3515 27.3582 12.3404C27.872 12.331 28.386 12.3319 28.9162 12.3278C28.7498 13.234 28.8384 14.1035 29.144 14.9564C29.2253 15.1836 29.147 15.3867 28.9499 15.5386ZM15.1784 16.5995C16.0531 15.6418 17.019 14.8873 18.1129 14.3007C20.2799 13.1385 22.5845 12.7211 25.0242 13.0402C25.2314 13.0669 25.2594 13.1242 25.2112 13.3182C24.9562 14.3311 24.7158 15.348 24.4725 16.3644C24.4458 16.4759 24.4239 16.5498 24.2696 16.5507C21.2875 16.566 18.3056 16.5891 15.3239 16.6106C15.2924 16.6112 15.261 16.606 15.1784 16.5995ZM1.35374 12.3612C1.68123 11.6453 2.22746 11.187 3.00941 11.1035C4.17786 10.9792 5.35222 10.9079 6.52484 10.8194C6.62233 10.8123 6.72503 10.8384 6.82319 10.8604C8.10652 11.1455 9.38999 11.4315 10.6736 11.7184C11.6855 11.9451 12.6147 11.7632 13.4687 11.1715C15.8111 9.54858 18.1573 7.93182 20.4971 6.30538C20.6393 6.20582 20.7421 6.21104 20.8802 6.28308C21.6732 6.69955 22.5224 6.89253 23.4143 6.89327C24.3052 6.89417 25.0195 6.48277 25.6431 5.88942C26.0555 5.49729 26.4135 5.05883 26.6921 4.55999C26.7293 4.49392 26.777 4.43299 26.8153 4.36772C27.0072 4.04666 27.2835 3.87941 27.6606 3.93672C28.0427 3.99424 28.2715 4.23562 28.3811 4.59917C28.6175 5.38576 28.8009 6.18502 28.9266 6.99677C29.145 8.40736 29.1893 9.82296 29.0699 11.2444C29.0559 11.4088 29.0181 11.4711 28.8349 11.4678C28.2944 11.4585 27.7533 11.4648 27.2129 11.4841C26.6564 11.5035 26.1816 11.7243 25.8028 12.135C25.7124 12.2337 25.6263 12.2608 25.494 12.2408C22.7914 11.8227 20.2273 12.2449 17.808 13.523C17.6784 13.5914 17.5539 13.5906 17.4181 13.5764C15.7647 13.4029 14.1129 13.3657 12.4652 13.642C11.4293 13.8159 10.4262 14.1362 9.39147 14.3108C7.77382 14.5839 6.15224 14.7022 4.52832 14.3638C3.66014 14.183 2.84493 13.8696 2.03535 13.2799C1.85598 13.1585 1.62914 12.9328 1.406 12.6998C1.29897 12.5874 1.29569 12.4893 1.35374 12.3612ZM7.9923 10.0483C8.34965 9.82509 8.73645 9.64097 9.06588 9.38232C9.4596 9.07228 9.82129 9.07132 10.2626 9.27106C10.7912 9.51003 11.35 9.68452 11.8977 9.88115C12.0985 9.95354 12.2816 9.91991 12.418 9.73968C12.5325 9.58812 12.5356 9.42494 12.4433 9.26459C12.3772 9.15015 12.2638 9.09269 12.1417 9.04824C11.6358 8.86447 11.1315 8.67755 10.5793 8.47433C10.9132 8.26841 11.2085 8.08651 11.5037 7.90366C11.5931 7.84786 11.6682 7.91182 11.7428 7.93847C12.3378 8.15195 12.9309 8.37156 13.5253 8.58709C13.8419 8.70102 14.0824 8.61177 14.1736 8.35168C14.259 8.11 14.1268 7.89374 13.8218 7.77897C13.4045 7.6211 12.986 7.46488 12.5684 7.30756C12.5627 7.30506 12.5603 7.29329 12.5496 7.27118C12.8391 7.09262 13.1314 6.91605 13.4204 6.73369C13.5189 6.67111 13.6018 6.729 13.6836 6.75839C14.1996 6.94447 14.7143 7.1322 15.2274 7.32551C15.389 7.3861 15.544 7.39575 15.6857 7.29334C15.8161 7.19856 15.8862 7.06417 15.8639 6.89769C15.8409 6.72646 15.7567 6.59884 15.5872 6.5366C15.2233 6.40337 14.86 6.26714 14.4474 6.11437C14.7698 5.91607 15.0569 5.74324 15.3401 5.56423C15.435 5.50414 15.516 5.54047 15.6027 5.57251C16.0215 5.72819 16.4405 5.88481 16.86 6.03843C17.1753 6.15307 17.4275 6.06731 17.519 5.81836C17.612 5.56625 17.4778 5.34012 17.1619 5.22169C16.919 5.13116 16.6751 5.04416 16.4253 4.95372C17.1443 4.23852 18.2685 4.23387 19.0364 4.9418C19.3033 5.1874 19.5648 5.43918 19.8801 5.67718C19.4013 6.01174 18.9363 6.33783 18.4689 6.66137C16.6674 7.90846 14.8615 9.1499 13.0651 10.4049C12.357 10.8998 11.606 11.0562 10.7619 10.8527C9.78818 10.6186 8.80663 10.4148 7.82583 10.1973C7.84396 10.0964 7.93391 10.0847 7.9923 10.0483ZM19.2379 1.57985C20.3422 2.36073 20.7647 3.17879 20.2115 4.88106C19.3174 3.88065 18.307 3.25888 16.8686 3.69854C17.2658 3.23157 17.6128 2.82203 17.9616 2.41464C18.1758 2.16438 18.3939 1.91786 18.607 1.66681C18.8173 1.41959 18.9674 1.38872 19.2379 1.57985ZM1.79386 14.9784C1.37984 14.6743 1.08589 14.3275 1.21498 13.7492C1.53571 13.982 1.83995 14.2305 2.18345 14.4227C3.32735 15.0629 4.57002 15.3427 5.86442 15.4108C7.67099 15.5054 9.43933 15.264 11.1828 14.7963C12.7972 14.364 14.4417 14.2213 16.1082 14.3305C16.1971 14.3365 16.2856 14.3498 16.4221 14.3652C15.9922 14.7043 15.5883 15.0052 15.2217 15.3518C14.8588 15.6944 14.5032 16.0431 14.1926 16.4338C14.0916 16.5609 13.9876 16.6253 13.8119 16.6257C11.4806 16.635 9.14885 16.6632 6.81719 16.6672C4.95687 16.6695 3.28961 16.0771 1.79386 14.9784ZM23.2498 14.0771C23.0477 13.9777 22.8246 14.0292 22.7053 14.2403C22.5367 14.5397 22.3839 14.8498 22.245 15.165C22.1602 15.3575 22.265 15.5951 22.4402 15.6865C22.6334 15.7878 22.8704 15.7321 23.0338 15.5146C23.1648 15.2415 23.3292 14.9281 23.4651 14.6032C23.5571 14.3848 23.4562 14.1787 23.2498 14.0771ZM21.3696 14.5954C21.4518 14.4018 21.3345 14.1652 21.1499 14.0878C20.9382 13.9982 20.7552 14.0488 20.5851 14.2548C20.4443 14.5484 20.2694 14.8668 20.1376 15.2022C20.0548 15.4138 20.1551 15.5977 20.362 15.7056C20.5456 15.8015 20.7941 15.7542 20.8967 15.5696C21.0705 15.2538 21.23 14.9276 21.3696 14.5954ZM20.8967 15.5696C21.0705 15.2538 21.23 14.9276 21.3696 14.5954C21.4518 14.4018 21.3345 14.1652 21.1499 14.0878C20.9382 13.9982 20.7552 14.0488 20.5851 14.2548C20.4443 14.5484 20.2694 14.8668 20.1376 15.2022C20.0548 15.4138 20.1551 15.5977 20.362 15.7056C20.5456 15.8015 20.7941 15.7542 20.8967 15.5696ZM23.4651 14.6032C23.5571 14.3848 23.4562 14.1787 23.2498 14.0771C23.0477 13.9777 22.8246 14.0292 22.7053 14.2403C22.5367 14.5397 22.3839 14.8498 22.245 15.165C22.1602 15.3575 22.265 15.5951 22.4402 15.6865C22.6334 15.7878 22.8704 15.7321 23.0338 15.5146C23.1648 15.2415 23.3292 14.9281 23.4651 14.6032ZM23.4651 14.6032C23.5571 14.3848 23.4562 14.1787 23.2498 14.0771C23.0477 13.9777 22.8246 14.0292 22.7053 14.2403C22.5367 14.5397 22.3839 14.8498 22.245 15.165C22.1602 15.3575 22.265 15.5951 22.4402 15.6865C22.6334 15.7878 22.8704 15.7321 23.0338 15.5146C23.1648 15.2415 23.3292 14.9281 23.4651 14.6032ZM20.8967 15.5696C21.0705 15.2538 21.23 14.9276 21.3696 14.5954C21.4518 14.4018 21.3345 14.1652 21.1499 14.0878C20.9382 13.9982 20.7552 14.0488 20.5851 14.2548C20.4443 14.5484 20.2694 14.8668 20.1376 15.2022C20.0548 15.4138 20.1551 15.5977 20.362 15.7056C20.5456 15.8015 20.7941 15.7542 20.8967 15.5696Z" fill="#A5A5A5"/>
</svg>
