<svg width="56" height="56" viewBox="0 0 56 56" fill="none" xmlns="http://www.w3.org/2000/svg">
<mask id="mask0_2030_765" style="mask-type:luminance" maskUnits="userSpaceOnUse" x="0" y="0" width="56" height="56">
<path d="M28 56C43.464 56 56 43.464 56 28C56 12.536 43.464 0 28 0C12.536 0 0 12.536 0 28C0 43.464 12.536 56 28 56Z" fill="white"/>
</mask>
<g mask="url(#mask0_2030_765)">
<path d="M26.2536 61.3539C44.7668 61.3539 59.7748 46.3459 59.7748 27.8327C59.7748 9.31946 44.7668 -5.68848 26.2536 -5.68848C7.74036 -5.68848 -7.26758 9.31946 -7.26758 27.8327C-7.26758 46.3459 7.74036 61.3539 26.2536 61.3539Z" fill="#1DA1F2"/>
</g>
<path fill-rule="evenodd" clip-rule="evenodd" d="M27.9994 12.1982C19.0875 12.1982 12.1816 18.7192 12.1816 27.5263C12.1816 32.1335 14.0718 36.1142 17.1496 38.8646C17.4075 39.097 17.5634 39.4178 17.5758 39.7642L17.6622 42.5748C17.6904 43.4718 18.6168 44.0538 19.4378 43.6944L22.5758 42.311C22.8417 42.1938 23.1395 42.1715 23.4191 42.2475C24.8614 42.6449 26.3987 42.8551 27.9994 42.8551C36.9107 42.8551 43.8173 36.3335 43.8173 27.5263C43.8173 18.7192 36.9107 12.1982 27.9994 12.1982ZM37.496 23.9942L32.8528 31.3544C32.1143 32.525 30.5292 32.817 29.4221 31.9875L25.727 29.2181C25.3878 28.9647 24.9216 28.966 24.5845 29.2214L19.5904 33.0082C18.9252 33.5136 18.0531 32.7156 18.5022 32.0098L23.1487 24.6462C23.8872 23.4756 25.4723 23.1836 26.58 24.0131L30.2746 26.7826C30.6137 27.0359 31.0799 27.0346 31.4177 26.7793L36.4079 22.9957C37.0731 22.4903 37.9451 23.2884 37.496 23.9942Z" fill="white"/>
</svg>
