<svg width="27" height="32" viewBox="0 0 27 32" fill="none" xmlns="http://www.w3.org/2000/svg">
<path d="M22.4385 3.87842C22.2305 5.24361 21.3256 5.77828 18.9957 5.67425C16.6663 5.57023 15.5086 5.4813 14.8705 7.3062C14.7636 7.61131 14.6305 8.0687 14.4823 8.61907C12.7794 8.07741 10.5372 7.82925 9.45102 8.17273C9.25866 8.23375 9.0843 8.30698 8.93262 8.39241L9.39523 6.7721C9.39523 6.7721 9.97408 4.22015 10.0183 3.52274C10.063 2.82533 10.686 1.74202 12.0663 1.68274C13.446 1.62346 14.1731 2.54346 14.1731 2.54346C14.1731 2.54346 14.9745 4.5462 16.9924 4.84317C19.0108 5.14015 21.6516 5.18432 20.4649 3.00317C19.2775 0.822022 18.3575 2.61727 18.3575 2.61727L17.4526 4.42763L16.0427 3.93828C16.0427 3.93828 17.2748 2.38015 17.5567 1.38576C17.8385 0.391369 19.6634 -0.394959 20.6578 0.21353C21.6516 0.822022 22.646 2.51324 22.4385 3.87842Z" fill="url(#paint0_linear_1831_14)"/>
<path d="M22.8896 4.37915C22.892 4.38148 22.8984 4.38849 22.9037 4.40133L22.8896 4.37915Z" fill="url(#paint1_linear_1831_14)"/>
<path d="M24.9531 7.47695L22.9033 4.40137C22.9382 4.47983 22.9591 4.78727 22.0966 5.76306C21.0482 6.9504 17.9819 6.3762 17.9819 6.3762C17.9819 6.3762 16.3 6.04028 15.5282 7.42522C15.3486 7.74719 15.1888 8.22725 15.0365 8.81307C14.8767 9.42505 14.725 10.1527 14.5681 10.9373V10.9378C14.4333 11.612 14.2938 12.328 14.1421 13.0493C14.1276 13.1184 14.113 13.1876 14.0979 13.2567C14.0537 13.4619 14.009 13.6676 13.9619 13.8728C13.905 14.125 13.8463 14.3767 13.7841 14.6248C13.6469 15.1798 13.4749 15.7134 13.3325 16.2289C12.7066 18.4937 10.7381 19.3899 10.7381 19.3899L10.2523 19.6537C10.2523 19.6537 7.98743 18.4583 5.73712 19.4445C5.61217 21.2956 2.37677 23.2779 0.941844 24.8454C-0.497146 26.418 0.140983 28.0354 0.140983 28.0354C1.58521 28.6393 5.61624 28.9456 5.61624 28.9456C11.0299 28.7898 14.2298 25.7776 15.7734 23.819C17.3165 21.8605 17.5536 20.4162 18.523 17.9032C19.493 15.3908 21.1348 13.6891 21.1348 13.6891C21.1348 13.6891 24.4585 10.939 25.0722 9.69297C25.6854 8.44635 24.9531 7.47695 24.9531 7.47695ZM17.1322 12.156C17.0602 12.5489 17.0427 12.9278 17.0712 13.2655L17.0718 13.266L15.577 12.9935C15.5851 12.6413 15.6223 12.2716 15.6909 11.8939C16.0501 9.92311 17.1328 8.46902 18.1092 8.64686C18.7996 8.77297 19.2518 9.68251 19.3297 10.9018C19.2012 10.4601 18.9682 10.1585 18.6613 10.1027C18.0435 9.98995 17.3595 10.9094 17.1322 12.156ZM22.1536 9.52559C21.7944 11.4964 20.7117 12.9505 19.7353 12.7726C19.0449 12.6465 18.5921 11.737 18.5148 10.5177C18.6433 10.9594 18.8763 11.261 19.1832 11.3168C19.801 11.4295 20.485 10.5101 20.7123 9.26348C20.7838 8.87003 20.8018 8.49168 20.7733 8.15402L20.7727 8.15343L22.2675 8.42601C22.2594 8.77762 22.2222 9.14783 22.1536 9.52559Z" fill="url(#paint2_linear_1831_14)"/>
<path d="M12.1602 17.6277C11.9056 18.02 11.4738 18.385 11.0286 18.7413L10.1516 19.3899C10.1516 19.3899 8.1024 18.2095 5.85209 19.1958C5.67134 19.2748 5.48943 19.3678 5.30694 19.4765C5.30694 19.4765 4.595 17.9724 5.8608 17.0628C6.04678 16.9292 6.28099 16.8199 6.55066 16.7345C8.11635 16.2399 10.8653 16.5572 12.1596 17.6277H12.1602Z" fill="url(#paint3_linear_1831_14)"/>
<path d="M13.4601 12.7871C13.2399 13.735 13.0399 14.6184 12.8935 15.2733C12.1868 14.9618 9.49362 13.8936 7.55423 14.7439C7.38511 14.8177 7.21541 14.9037 7.04512 15.0037C7.03292 15.0107 7.02129 15.0176 7.00909 15.0246C7.00909 15.0246 6.29715 13.5205 7.56295 12.611C7.62455 12.5668 7.69197 12.525 7.76404 12.486C7.90875 12.407 8.07264 12.3396 8.2528 12.2826C9.37738 11.9275 11.7393 12.2053 13.4601 12.7871Z" fill="url(#paint4_linear_1831_14)"/>
<path d="M14.4823 8.61902C14.2928 9.32399 14.0789 10.1824 13.8657 11.0669C12.9247 10.6816 10.5239 9.85751 8.75248 10.634C8.57406 10.7118 8.39389 10.8037 8.21373 10.9106V10.9112C8.2114 10.9123 8.20966 10.9135 8.20733 10.9147C8.20733 10.9147 7.49539 9.41058 8.76119 8.50104C8.81466 8.46269 8.87162 8.42665 8.93264 8.39237C9.08433 8.30693 9.25868 8.2337 9.45105 8.17268C10.5373 7.82921 12.7794 8.07737 14.4823 8.61902Z" fill="url(#paint5_linear_1831_14)"/>
<path d="M0.125 28.9459C0.125 28.9459 2.7069 31.1067 7.54426 30.1274C12.3816 29.148 16.0912 26.1803 17.0706 24.2513C18.0499 22.3223 19.7415 18.2269 20.4834 16.9805C21.2254 15.734 23.7182 13.4489 24.4008 12.885C25.0834 12.3212 26.3595 10.3031 26.2111 9.47217C26.2111 9.47217 27.5763 10.5999 26.7156 12.796C25.855 14.9921 21.9673 17.0695 21.9673 17.0695C21.9673 17.0695 20.8989 17.6927 19.7712 20.6011C18.6435 23.5094 18.7919 25.8539 15.7351 28.2281C12.6784 30.6022 9.62165 31.6112 5.25913 31.4629C0.896603 31.3145 0.200789 30.2087 0.125 28.9459Z" fill="url(#paint6_linear_1831_14)"/>
<defs>
<linearGradient id="paint0_linear_1831_14" x1="15.6994" y1="0" x2="15.6994" y2="8.61907" gradientUnits="userSpaceOnUse">
<stop stop-color="#A2FF00"/>
<stop offset="1" stop-color="#00FF7F"/>
</linearGradient>
<linearGradient id="paint1_linear_1831_14" x1="22.8967" y1="4.37915" x2="22.8967" y2="4.40133" gradientUnits="userSpaceOnUse">
<stop stop-color="#A2FF00"/>
<stop offset="1" stop-color="#00FF7F"/>
</linearGradient>
<linearGradient id="paint2_linear_1831_14" x1="12.6585" y1="4.40137" x2="12.6585" y2="28.9456" gradientUnits="userSpaceOnUse">
<stop stop-color="#A2FF00"/>
<stop offset="1" stop-color="#00FF7F"/>
</linearGradient>
<linearGradient id="paint3_linear_1831_14" x1="8.63379" y1="16.5068" x2="8.63379" y2="19.4765" gradientUnits="userSpaceOnUse">
<stop stop-color="#A2FF00"/>
<stop offset="1" stop-color="#00FF7F"/>
</linearGradient>
<linearGradient id="paint4_linear_1831_14" x1="10.1349" y1="12.125" x2="10.1349" y2="15.2733" gradientUnits="userSpaceOnUse">
<stop stop-color="#A2FF00"/>
<stop offset="1" stop-color="#00FF7F"/>
</linearGradient>
<linearGradient id="paint5_linear_1831_14" x1="11.245" y1="8.01489" x2="11.245" y2="11.0669" gradientUnits="userSpaceOnUse">
<stop stop-color="#A2FF00"/>
<stop offset="1" stop-color="#00FF7F"/>
</linearGradient>
<linearGradient id="paint6_linear_1831_14" x1="13.5627" y1="9.47217" x2="13.5627" y2="31.4771" gradientUnits="userSpaceOnUse">
<stop stop-color="#A2FF00"/>
<stop offset="1" stop-color="#00FF7F"/>
</linearGradient>
</defs>
</svg>
