<svg width="34" height="34" viewBox="0 0 34 34" fill="none" xmlns="http://www.w3.org/2000/svg">
<g clip-path="url(#clip0_302_705)">
<path d="M30.3814 15.5799H20.9542V3.97493C20.9542 1.78332 19.1709 0 16.9793 0H3.97493C1.78332 0 0 1.78332 0 3.97493V16.9793C0 19.1717 1.78332 20.955 3.97493 20.955H15.5791V30.3822C15.5791 32.3774 17.2017 34 19.1969 34H30.3814C32.3766 34 34 32.3774 34 30.3822V19.1977C34 17.2025 32.3766 15.5799 30.3814 15.5799ZM3.97493 18.1141C3.34992 18.1141 2.84098 17.6051 2.84098 16.9793V3.97493C2.84098 3.34992 3.34992 2.84098 3.97493 2.84098H16.9793C17.6043 2.84098 18.1133 3.34992 18.1133 3.97493V17.0012C18.1124 17.0369 18.11 17.0718 18.106 17.1067C18.1043 17.1246 18.1019 17.1416 18.0986 17.1587C18.097 17.1709 18.0954 17.183 18.0922 17.1944C18.0597 17.3657 17.9866 17.524 17.8852 17.6587C17.8641 17.6871 17.8413 17.7147 17.817 17.7415C17.7926 17.7683 17.7675 17.7934 17.7407 17.8178C17.7139 17.8421 17.6863 17.8649 17.6579 17.886C17.5231 17.9874 17.3649 18.0605 17.1936 18.093C17.1822 18.0962 17.1701 18.0978 17.1579 18.0995C17.1408 18.1027 17.1238 18.1051 17.1059 18.1068C17.071 18.1108 17.0361 18.1133 17.0004 18.1141H3.97493ZM31.159 30.3822C31.159 30.8108 30.81 31.159 30.3814 31.159H19.1969C18.7683 31.159 18.4201 30.8108 18.4201 30.3822V20.6823C18.429 20.6791 18.4379 20.675 18.4469 20.6718C18.5061 20.6474 18.5646 20.6222 18.6222 20.5955C18.7797 20.5232 18.9323 20.4412 19.0784 20.3487C19.1027 20.3341 19.1271 20.3187 19.1506 20.3024C19.1977 20.2716 19.2432 20.2399 19.2886 20.2075C19.3089 20.1929 19.3292 20.1774 19.3495 20.1628C19.3673 20.1498 19.3844 20.1368 19.4006 20.1239C19.4266 20.1044 19.4518 20.0841 19.4761 20.0638C19.6912 19.8893 19.8885 19.692 20.063 19.4769C20.0833 19.4526 20.1036 19.4274 20.123 19.4014C20.136 19.3852 20.149 19.3682 20.162 19.3503C20.1766 19.33 20.192 19.3097 20.2067 19.2894C20.2391 19.244 20.2708 19.1985 20.3016 19.1514C20.3179 19.1279 20.3333 19.1035 20.3479 19.0792C20.4404 18.9331 20.5224 18.7805 20.5946 18.623C20.6214 18.5654 20.6466 18.5069 20.6709 18.4477C20.6742 18.4388 20.6783 18.4298 20.6815 18.4209H30.3814C30.81 18.4209 31.159 18.7691 31.159 19.1977V30.3822Z" fill="url(#paint0_linear_302_705)"/>
</g>
<defs>
<linearGradient id="paint0_linear_302_705" x1="17" y1="0" x2="17" y2="34" gradientUnits="userSpaceOnUse">
<stop stop-color="#A2FF00"/>
<stop offset="1" stop-color="#00FF7F"/>
</linearGradient>
<clipPath id="clip0_302_705">
<rect width="34" height="34" fill="white"/>
</clipPath>
</defs>
</svg>
