<svg width="27" height="33" viewBox="0 0 27 33" fill="none" xmlns="http://www.w3.org/2000/svg">
<g clip-path="url(#clip0_302_707)">
<path d="M19.2938 20.4578L17.6128 26.2194H7.70583V23.1755L14.1002 17.4305L7.81284 19.9149L8.93318 14.1533H19.2938V17.1972L12.5054 22.9422L19.2938 20.4578Z" fill="#848484"/>
<path d="M26.9359 28.3355C26.7607 24.6403 26.5789 20.945 26.397 17.2498C26.2862 14.9841 26.1982 12.7176 26.0485 10.4547C25.9339 8.71269 24.4859 7.43837 22.6922 7.42091C21.9952 7.41356 21.2982 7.40713 20.6021 7.4255C20.3445 7.43285 20.2868 7.35384 20.2981 7.11956C20.3246 6.59311 20.3066 6.06574 20.2195 5.54388C19.7498 2.74075 17.4324 0.498977 14.5714 0.0772663C11.6451 -0.353632 8.80489 1.04564 7.45347 3.57774C6.86915 4.6729 6.64091 5.83973 6.70531 7.06076C6.72236 7.37681 6.61913 7.43561 6.31797 7.42642C5.59917 7.40529 4.87753 7.40897 4.15778 7.4255C2.5213 7.46501 1.05056 8.78159 0.958694 10.3619C0.770234 13.6207 0.62439 16.8823 0.462447 20.143C0.327968 22.8772 0.191595 25.6114 0.0646918 28.3457C0.0343866 28.9971 -0.0631581 29.654 0.0656388 30.2999C0.385737 31.9086 1.7542 32.9927 3.46266 32.9964C6.80475 33.0038 10.1468 32.9983 13.488 32.9983C16.8301 32.9992 20.1722 33.0028 23.5133 32.9973C25.2473 32.9946 26.6177 31.915 26.9368 30.2897C27.0637 29.6439 26.9671 28.9869 26.9359 28.3355ZM10.5342 3.28374C11.9585 2.11507 13.5884 1.85507 15.2902 2.56802C17.0062 3.28741 17.9116 4.63156 18.0281 6.44978C18.048 6.76308 18.1758 7.18479 17.9694 7.3667C17.7923 7.52289 17.3651 7.41815 17.0498 7.41815C15.8575 7.42091 14.6661 7.41907 13.4747 7.41907C12.0826 7.41907 10.6904 7.40988 9.29829 7.42734C9.0085 7.43102 8.96873 7.34006 8.95736 7.08556C8.89486 5.58431 9.33049 4.27232 10.5342 3.28374ZM23.4953 30.7978C20.1655 30.7997 16.8367 30.7987 13.5069 30.7987H3.6246C2.67283 30.7987 2.24761 30.3688 2.29212 29.4381C2.54971 24.1074 2.8092 18.7768 3.06774 13.4452C3.11131 12.5421 3.14161 11.6371 3.20033 10.7349C3.24768 10.0063 3.68995 9.62685 4.44852 9.62501C8.67514 9.61399 12.9018 9.60572 17.1284 9.5947C18.923 9.58918 20.7167 9.58183 22.5113 9.57356C23.2983 9.56989 23.7614 9.95944 23.8031 10.7211C23.9215 12.9169 24.0219 15.1137 24.1289 17.3095C24.3098 21.0277 24.4916 24.745 24.6715 28.4633C24.6905 28.8409 24.7056 29.2185 24.716 29.5961C24.7359 30.3339 24.269 30.7978 23.4953 30.7978Z" fill="#848484"/>
<path d="M26.9359 28.3355C26.7607 24.6403 26.5789 20.945 26.397 17.2498C26.2862 14.9841 26.1982 12.7176 26.0485 10.4547C25.9339 8.71269 24.4859 7.43837 22.6922 7.42091C21.9952 7.41356 21.2982 7.40713 20.6021 7.4255C20.3445 7.43285 20.2868 7.35384 20.2981 7.11956C20.3246 6.59311 20.3066 6.06574 20.2195 5.54388C19.7498 2.74075 17.4324 0.498977 14.5714 0.0772663C11.6451 -0.353632 8.80489 1.04564 7.45347 3.57774C6.86915 4.6729 6.64091 5.83973 6.70531 7.06076C6.72236 7.37681 6.61913 7.43561 6.31797 7.42642C5.59917 7.40529 4.87753 7.40897 4.15778 7.4255C2.5213 7.46501 1.05056 8.78159 0.958694 10.3619C0.770234 13.6207 0.62439 16.8823 0.462447 20.143C0.327968 22.8772 0.191595 25.6114 0.0646918 28.3457C0.0343866 28.9971 -0.0631581 29.654 0.0656388 30.2999C0.385737 31.9086 1.7542 32.9927 3.46266 32.9964C6.80475 33.0038 10.1468 32.9983 13.488 32.9983C16.8301 32.9992 20.1722 33.0028 23.5133 32.9973C25.2473 32.9946 26.6177 31.915 26.9368 30.2897C27.0637 29.6439 26.9671 28.9869 26.9359 28.3355ZM10.5342 3.28374C11.9585 2.11507 13.5884 1.85507 15.2902 2.56802C17.0062 3.28741 17.9116 4.63156 18.0281 6.44978C18.048 6.76308 18.1758 7.18479 17.9694 7.3667C17.7923 7.52289 17.3651 7.41815 17.0498 7.41815C15.8575 7.42091 14.6661 7.41907 13.4747 7.41907C12.0826 7.41907 10.6904 7.40988 9.29829 7.42734C9.0085 7.43102 8.96873 7.34006 8.95736 7.08556C8.89486 5.58431 9.33049 4.27232 10.5342 3.28374ZM23.4953 30.7978C20.1655 30.7997 16.8367 30.7987 13.5069 30.7987H3.6246C2.67283 30.7987 2.24761 30.3688 2.29212 29.4381C2.54971 24.1074 2.8092 18.7768 3.06774 13.4452C3.11131 12.5421 3.14161 11.6371 3.20033 10.7349C3.24768 10.0063 3.68995 9.62685 4.44852 9.62501C8.67514 9.61399 12.9018 9.60572 17.1284 9.5947C18.923 9.58918 20.7167 9.58183 22.5113 9.57356C23.2983 9.56989 23.7614 9.95944 23.8031 10.7211C23.9215 12.9169 24.0219 15.1137 24.1289 17.3095C24.3098 21.0277 24.4916 24.745 24.6715 28.4633C24.6905 28.8409 24.7056 29.2185 24.716 29.5961C24.7359 30.3339 24.269 30.7978 23.4953 30.7978Z" fill="#848484"/>
</g>
<defs>
<clipPath id="clip0_302_707">
<rect width="27" height="33" fill="white"/>
</clipPath>
</defs>
</svg>
