<svg width="33" height="26" viewBox="0 0 33 26" fill="none" xmlns="http://www.w3.org/2000/svg">
<path d="M30.8845 7.7796C28.5428 5.51253 26.1993 3.24708 23.8576 0.980004C23.5617 0.692971 23.2508 0.425398 22.8753 0.237286C22.4428 0.0207955 21.9902 -0.0683955 21.5133 0.0580935C20.7841 0.25026 20.2854 0.896489 20.1924 1.76488C20.0985 2.6422 20.153 3.52276 20.1547 4.40169C20.1555 4.65873 20.0725 4.72521 19.8261 4.73089C19.1154 4.74711 18.4097 4.83062 17.709 4.94333C13.4437 5.63253 9.71904 7.39608 6.5886 10.2851C2.98628 13.6078 0.843166 17.6636 0.174332 22.4434C0.122368 22.8148 0.156732 23.1999 0 23.5559V23.8591C0.0528026 23.9118 0.0251441 23.9783 0.0318492 24.0391V24.1615C0.0234678 24.2232 0.0544789 24.2905 0 24.3448V24.5872C0.0511264 24.7089 0.0511264 24.8305 0 24.9513V25.3154C0.146674 25.5829 0.299215 25.8391 0.626088 25.9454C1.0527 26.0848 1.43489 25.96 1.76763 25.54C4.47481 22.1207 7.86759 19.5666 12.0004 17.9466C14.5182 16.9606 17.1382 16.4263 19.8471 16.2771C20.0977 16.2633 20.1589 16.3281 20.1522 16.5649C20.1354 17.2217 20.1429 17.8785 20.148 18.536C20.1513 18.9925 20.1949 19.4433 20.3801 19.8715C20.7808 20.7974 21.7103 21.1712 22.6699 20.7942C23.125 20.615 23.4896 20.3166 23.8316 19.9866C24.3278 19.5082 24.8214 19.0282 25.3168 18.5498C27.1791 16.7482 29.0456 14.9506 30.903 13.1448C32.5315 11.5605 32.5197 9.36233 30.8845 7.7796ZM30.0514 11.2345C29.95 11.4486 29.805 11.631 29.634 11.7964C27.2395 14.1122 24.8457 16.4287 22.4503 18.7428C22.3489 18.8409 22.2551 18.9512 22.0883 19.0201C22.0254 18.8409 22.0288 18.665 22.0279 18.489C22.0279 17.4779 22.0304 16.4676 22.0271 15.4565C22.0246 14.7819 21.6566 14.4316 20.9576 14.4405C13.6709 14.5346 7.48205 17.1228 2.34678 22.1069C2.28811 22.1637 2.22861 22.2204 2.16658 22.2739C2.15485 22.2837 2.12803 22.2772 2.03416 22.282C3.62913 14.8597 7.96984 9.7864 15.4343 7.3377C17.2044 6.75715 19.0475 6.52282 20.9174 6.50741C21.6767 6.50174 22.0262 6.16605 22.0279 5.43388C22.0288 4.44386 22.0279 3.45303 22.0279 2.4622C22.0279 2.28138 22.0279 2.10057 22.0849 1.91813C22.2433 1.97813 22.3472 2.09408 22.4562 2.19949C24.8508 4.51359 27.247 6.8285 29.6365 9.14828C30.25 9.74342 30.3917 10.5186 30.0514 11.2345Z" fill="url(#paint0_linear_420_235)"/>
<defs>
<linearGradient id="paint0_linear_420_235" x1="16.0588" y1="0" x2="16.0588" y2="26" gradientUnits="userSpaceOnUse">
<stop stop-color="#A2FF00"/>
<stop offset="1" stop-color="#00FF7F"/>
</linearGradient>
</defs>
</svg>
