<svg width="25" height="25" viewBox="0 0 25 25" fill="none" xmlns="http://www.w3.org/2000/svg">
<path d="M24.9892 12.5934C24.9617 13.4723 24.5049 14.089 23.7264 14.4783C20.4952 16.0939 17.264 17.7113 14.0328 19.326C10.4293 21.1282 6.82398 22.9286 3.22043 24.7299C1.85277 25.4133 0.368699 24.7495 0.046113 23.3045C-0.0329784 22.9535 -0.00365238 22.6007 0.083437 22.2532C0.776597 19.4841 1.47153 16.7168 2.15759 13.9469C2.20913 13.7407 2.28644 13.666 2.51216 13.6465C4.57387 13.467 6.63469 13.2679 8.69551 13.0777C10.3769 12.9222 12.0582 12.772 13.7405 12.6192C13.9955 12.5952 14.2506 12.5677 14.5056 12.5419V12.4868C14.0711 12.4441 13.6365 12.4006 13.2019 12.3606C10.264 12.0878 7.32607 11.8158 4.38814 11.5439C3.74652 11.4853 3.1049 11.4213 2.4624 11.3759C2.28911 11.3635 2.21979 11.3137 2.17625 11.1369C1.55418 8.62197 0.92145 6.10882 0.292274 3.59567C0.21496 3.2873 0.134091 2.98071 0.0665523 2.67146C-0.122734 1.80412 0.107431 1.05853 0.795259 0.500444C1.49286 -0.0656369 2.28467 -0.150949 3.09246 0.241842C4.54899 0.950998 5.99485 1.68504 7.44427 2.4093C12.8385 5.10552 18.2309 7.80529 23.6278 10.4962C24.5049 10.9334 25.0203 11.591 24.9892 12.5934Z" fill="url(#paint0_linear_1219_745)"/>
<defs>
<linearGradient id="paint0_linear_1219_745" x1="12.4953" y1="0" x2="12.4953" y2="25" gradientUnits="userSpaceOnUse">
<stop stop-color="#A2FF00"/>
<stop offset="1" stop-color="#00FF7F"/>
</linearGradient>
</defs>
</svg>
