<svg width="56" height="56" viewBox="0 0 56 56" fill="none" xmlns="http://www.w3.org/2000/svg">
<mask id="mask0_2030_751" style="mask-type:luminance" maskUnits="userSpaceOnUse" x="0" y="0" width="56" height="56">
<path d="M28 56C43.464 56 56 43.464 56 28C56 12.536 43.464 0 28 0C12.536 0 0 12.536 0 28C0 43.464 12.536 56 28 56Z" fill="white"/>
</mask>
<g mask="url(#mask0_2030_751)">
<path d="M28.0003 57.2145C44.2034 57.2145 57.3386 44.0794 57.3386 27.8763C57.3386 11.6733 44.2034 -1.46191 28.0003 -1.46191C11.7973 -1.46191 -1.33789 11.6733 -1.33789 27.8763C-1.33789 44.0794 11.7973 57.2145 28.0003 57.2145Z" fill="url(#paint0_linear_2030_751)"/>
</g>
<path d="M41.7742 18.1653C42.0164 16.5999 40.5282 15.3644 39.1363 15.9759L11.4178 28.1457C10.4201 28.5837 10.4928 30.0954 11.5279 30.4254L17.2441 32.2455C18.3355 32.5932 19.5166 32.4131 20.4692 31.7551L33.3572 22.8511C33.7461 22.5826 34.1697 23.1352 33.8371 23.4776L24.5605 33.0423C23.6603 33.97 23.839 35.5426 24.9219 36.2209L35.3082 42.734C36.473 43.4646 37.9716 42.7307 38.1896 41.3231L41.7742 18.1653Z" fill="white"/>
<defs>
<linearGradient id="paint0_linear_2030_751" x1="28.0069" y1="-1.46191" x2="28.0069" y2="57.2165" gradientUnits="userSpaceOnUse">
<stop stop-color="#37BBFE"/>
<stop offset="1" stop-color="#007DBB"/>
</linearGradient>
</defs>
</svg>
