<svg width="21" height="20" viewBox="0 0 21 20" fill="none" xmlns="http://www.w3.org/2000/svg">
<path d="M15.333 18.3332C14.6386 18.3332 14.0483 18.0901 13.5622 17.604C13.0761 17.1179 12.833 16.5276 12.833 15.8332C12.833 15.7359 12.84 15.6353 12.8538 15.5311C12.8677 15.4269 12.8886 15.3332 12.9163 15.2498L7.04134 11.8332C6.80523 12.0415 6.54134 12.2047 6.24967 12.3228C5.95801 12.4408 5.65245 12.4998 5.33301 12.4998C4.63856 12.4998 4.04829 12.2568 3.56217 11.7707C3.07606 11.2846 2.83301 10.6943 2.83301 9.99984C2.83301 9.30539 3.07606 8.71512 3.56217 8.229C4.04829 7.74289 4.63856 7.49984 5.33301 7.49984C5.65245 7.49984 5.95801 7.55887 6.24967 7.67692C6.54134 7.79498 6.80523 7.95817 7.04134 8.1665L12.9163 4.74984C12.8886 4.6665 12.8677 4.57275 12.8538 4.46859C12.84 4.36442 12.833 4.26373 12.833 4.1665C12.833 3.47206 13.0761 2.88178 13.5622 2.39567C14.0483 1.90956 14.6386 1.6665 15.333 1.6665C16.0275 1.6665 16.6177 1.90956 17.1038 2.39567C17.59 2.88178 17.833 3.47206 17.833 4.1665C17.833 4.86095 17.59 5.45123 17.1038 5.93734C16.6177 6.42345 16.0275 6.6665 15.333 6.6665C15.0136 6.6665 14.708 6.60748 14.4163 6.48942C14.1247 6.37137 13.8608 6.20817 13.6247 5.99984L7.74967 9.4165C7.77745 9.49984 7.79829 9.59359 7.81217 9.69775C7.82606 9.80192 7.83301 9.90262 7.83301 9.99984C7.83301 10.0971 7.82606 10.1978 7.81217 10.3019C7.79829 10.4061 7.77745 10.4998 7.74967 10.5832L13.6247 13.9998C13.8608 13.7915 14.1247 13.6283 14.4163 13.5103C14.708 13.3922 15.0136 13.3332 15.333 13.3332C16.0275 13.3332 16.6177 13.5762 17.1038 14.0623C17.59 14.5484 17.833 15.1387 17.833 15.8332C17.833 16.5276 17.59 17.1179 17.1038 17.604C16.6177 18.0901 16.0275 18.3332 15.333 18.3332ZM15.333 4.99984C15.5691 4.99984 15.767 4.91998 15.9268 4.76025C16.0865 4.60053 16.1663 4.40262 16.1663 4.1665C16.1663 3.93039 16.0865 3.73248 15.9268 3.57275C15.767 3.41303 15.5691 3.33317 15.333 3.33317C15.0969 3.33317 14.899 3.41303 14.7393 3.57275C14.5795 3.73248 14.4997 3.93039 14.4997 4.1665C14.4997 4.40262 14.5795 4.60053 14.7393 4.76025C14.899 4.91998 15.0969 4.99984 15.333 4.99984ZM5.33301 10.8332C5.56912 10.8332 5.76704 10.7533 5.92676 10.5936C6.08648 10.4339 6.16634 10.2359 6.16634 9.99984C6.16634 9.76373 6.08648 9.56581 5.92676 9.40609C5.76704 9.24637 5.56912 9.1665 5.33301 9.1665C5.0969 9.1665 4.89898 9.24637 4.73926 9.40609C4.57954 9.56581 4.49967 9.76373 4.49967 9.99984C4.49967 10.2359 4.57954 10.4339 4.73926 10.5936C4.89898 10.7533 5.0969 10.8332 5.33301 10.8332ZM15.333 16.6665C15.5691 16.6665 15.767 16.5866 15.9268 16.4269C16.0865 16.2672 16.1663 16.0693 16.1663 15.8332C16.1663 15.5971 16.0865 15.3991 15.9268 15.2394C15.767 15.0797 15.5691 14.9998 15.333 14.9998C15.0969 14.9998 14.899 15.0797 14.7393 15.2394C14.5795 15.3991 14.4997 15.5971 14.4997 15.8332C14.4997 16.0693 14.5795 16.2672 14.7393 16.4269C14.899 16.5866 15.0969 16.6665 15.333 16.6665Z" fill="#007AFF"/>
</svg>
