<svg width="57" height="56" viewBox="0 0 57 56" fill="none" xmlns="http://www.w3.org/2000/svg">
<mask id="mask0_2030_729" style="mask-type:luminance" maskUnits="userSpaceOnUse" x="0" y="0" width="57" height="56">
<path d="M28.7188 56C44.1827 56 56.7188 43.464 56.7188 28C56.7188 12.536 44.1827 0 28.7188 0C13.2548 0 0.71875 12.536 0.71875 28C0.71875 43.464 13.2548 56 28.7188 56Z" fill="white"/>
</mask>
<g mask="url(#mask0_2030_729)">
<path d="M47.7784 -0.878906H9.6605C4.2367 -0.878906 -0.160156 3.51795 -0.160156 8.94175V47.0596C-0.160156 52.4834 4.2367 56.8803 9.6605 56.8803H47.7784C53.2022 56.8803 57.599 52.4834 57.599 47.0596V8.94175C57.599 3.51795 53.2022 -0.878906 47.7784 -0.878906Z" fill="url(#paint0_radial_2030_729)"/>
<path d="M47.7784 -0.878906H9.6605C4.2367 -0.878906 -0.160156 3.51795 -0.160156 8.94175V47.0596C-0.160156 52.4834 4.2367 56.8803 9.6605 56.8803H47.7784C53.2022 56.8803 57.599 52.4834 57.599 47.0596V8.94175C57.599 3.51795 53.2022 -0.878906 47.7784 -0.878906Z" fill="url(#paint1_radial_2030_729)"/>
<path d="M47.7784 -0.878906H9.6605C4.2367 -0.878906 -0.160156 3.51795 -0.160156 8.94175V47.0596C-0.160156 52.4834 4.2367 56.8803 9.6605 56.8803H47.7784C53.2022 56.8803 57.599 52.4834 57.599 47.0596V8.94175C57.599 3.51795 53.2022 -0.878906 47.7784 -0.878906Z" fill="url(#paint2_radial_2030_729)"/>
</g>
<path d="M39.3563 19.642C39.3563 20.901 38.3356 21.9217 37.0766 21.9217C35.8176 21.9217 34.7969 20.901 34.7969 19.642C34.7969 18.383 35.8176 17.3623 37.0766 17.3623C38.3356 17.3623 39.3563 18.383 39.3563 19.642Z" fill="white"/>
<path fill-rule="evenodd" clip-rule="evenodd" d="M28.7177 35.5985C32.9144 35.5985 36.3163 32.1966 36.3163 27.9999C36.3163 23.8032 32.9144 20.4014 28.7177 20.4014C24.521 20.4014 21.1191 23.8032 21.1191 27.9999C21.1191 32.1966 24.521 35.5985 28.7177 35.5985ZM28.7177 32.5587C31.2357 32.5587 33.2765 30.518 33.2765 27.9999C33.2765 25.4819 31.2357 23.4412 28.7177 23.4412C26.1997 23.4412 24.159 25.4819 24.159 27.9999C24.159 30.518 26.1997 32.5587 28.7177 32.5587Z" fill="white"/>
<path fill-rule="evenodd" clip-rule="evenodd" d="M13.5215 27.3926C13.5215 22.2859 13.5215 19.7325 14.5153 17.7821C15.3894 16.0668 16.7846 14.6716 18.4999 13.7976C20.4503 12.8037 23.0037 12.8037 28.1104 12.8037H29.3262C34.4329 12.8037 36.9863 12.8037 38.936 13.7976C40.652 14.6716 42.0466 16.0668 42.9206 17.7821C43.9144 19.7325 43.9144 22.2859 43.9144 27.3926V28.6084C43.9144 33.7152 43.9144 36.2685 42.9206 38.2183C42.0466 39.9343 40.6514 41.3288 38.936 42.2028C36.9856 43.1967 34.4323 43.1967 29.3262 43.1967H28.1104C23.0037 43.1967 20.4503 43.1967 18.4999 42.2028C16.7846 41.3288 15.3894 39.9336 14.5153 38.2183C13.5215 36.2679 13.5215 33.7145 13.5215 28.6084V27.3926ZM28.1104 15.8429H29.3262C31.93 15.8429 33.699 15.8455 35.0673 15.9568C36.3997 16.0655 37.0812 16.2632 37.5566 16.5054C38.7003 17.0881 39.63 18.0178 40.2127 19.1616C40.455 19.6369 40.652 20.3185 40.7614 21.6508C40.8733 23.0185 40.8753 24.7882 40.8753 27.392V28.6078C40.8753 31.2115 40.8727 32.9806 40.7614 34.3489C40.6527 35.6813 40.455 36.3628 40.2127 36.8381C39.63 37.9819 38.7003 38.9116 37.5566 39.4943C37.0812 39.7365 36.3997 39.9336 35.0673 40.0429C33.6997 40.1549 31.93 40.1569 29.3262 40.1569H28.1104C25.5066 40.1569 23.7376 40.1542 22.3692 40.0429C21.0369 39.9343 20.3553 39.7365 19.88 39.4943C18.7363 38.9116 17.8066 37.9819 17.2239 36.8381C16.9816 36.3628 16.7846 35.6813 16.6752 34.3489C16.5633 32.9812 16.5613 31.2115 16.5613 28.6078V27.392C16.5613 24.7882 16.5639 23.0192 16.6752 21.6508C16.7839 20.3185 16.9816 19.6369 17.2239 19.1616C17.8066 18.0178 18.7363 17.0881 19.88 16.5054C20.3553 16.2632 21.0369 16.0661 22.3692 15.9568C23.7369 15.8448 25.5066 15.8429 28.1104 15.8429Z" fill="white"/>
<defs>
<radialGradient id="paint0_radial_2030_729" cx="0" cy="0" r="1" gradientUnits="userSpaceOnUse" gradientTransform="translate(18.4745 45.8292) rotate(-55.38) scale(54.3008)">
<stop stop-color="#B13589"/>
<stop offset="0.79" stop-color="#C62F94"/>
<stop offset="1" stop-color="#8A3AC8"/>
</radialGradient>
<radialGradient id="paint1_radial_2030_729" cx="0" cy="0" r="1" gradientUnits="userSpaceOnUse" gradientTransform="translate(17.327 62.5322) rotate(-65.14) scale(47.7059)">
<stop stop-color="#E0E8B7"/>
<stop offset="0.44" stop-color="#FB8A2E"/>
<stop offset="0.71" stop-color="#E2425C"/>
<stop offset="1" stop-color="#E2425C" stop-opacity="0"/>
</radialGradient>
<radialGradient id="paint2_radial_2030_729" cx="0" cy="0" r="1" gradientUnits="userSpaceOnUse" gradientTransform="translate(-3.60467 0.805166) rotate(-8.13) scale(80.8425 17.2915)">
<stop offset="0.16" stop-color="#406ADC"/>
<stop offset="0.47" stop-color="#6A45BE"/>
<stop offset="1" stop-color="#6A45BE" stop-opacity="0"/>
</radialGradient>
</defs>
</svg>
