<svg width="32" height="34" viewBox="0 0 32 34" fill="none" xmlns="http://www.w3.org/2000/svg">
<path d="M24.0291 7.23922H23.3215L22.171 2.80575C21.8451 1.17974 20.4057 0 18.7487 0H12.1724C10.5138 0 9.07433 1.1806 8.76392 2.74813L7.59945 7.23922H6.86104C5.21869 7.23922 3.72252 8.16702 3.05011 9.60213C0.264137 15.5404 -0.618947 22.1115 0.424072 29.1323C0.687191 30.9028 1.99247 32.3413 3.67265 32.7128C7.55753 33.5709 11.5155 34 15.5182 34C19.4994 34 23.5253 33.5752 27.5666 32.7265C29.3732 32.3465 30.706 30.8194 30.884 28.9251C31.5358 21.9971 30.5203 15.5137 27.8641 9.65459C27.1986 8.18765 25.693 7.23922 24.0291 7.23922ZM10.8224 3.21934C10.9506 2.57874 11.5181 2.11355 12.1724 2.11355H18.7487C19.4022 2.11355 19.9706 2.57874 20.1124 3.27781L21.1396 7.23922H9.78125L10.8224 3.21934ZM28.7808 28.7273C28.6913 29.6792 28.0129 30.4728 27.1315 30.6577C19.3231 32.3 11.5834 32.2966 4.12838 30.6491C3.29775 30.4659 2.64941 29.7308 2.51355 28.821C1.51954 22.1261 2.32094 16.1328 4.96245 10.4998C5.28834 9.80334 6.0347 9.35277 6.86104 9.35277H24.0291C24.8658 9.35277 25.6156 9.81366 25.9398 10.5274C28.4764 16.1242 29.4059 22.0771 28.7808 28.7273Z" fill="#848484"/>
</svg>
