<svg width="56" height="56" viewBox="0 0 56 56" fill="none" xmlns="http://www.w3.org/2000/svg">
<mask id="mask0_2030_758" style="mask-type:luminance" maskUnits="userSpaceOnUse" x="0" y="0" width="56" height="56">
<path d="M28 56C43.464 56 56 43.464 56 28C56 12.536 43.464 0 28 0C12.536 0 0 12.536 0 28C0 43.464 12.536 56 28 56Z" fill="white"/>
</mask>
<g mask="url(#mask0_2030_758)">
<path d="M26.2555 61.3539C44.7688 61.3539 59.7767 46.3459 59.7767 27.8327C59.7767 9.31946 44.7688 -5.68848 26.2555 -5.68848C7.74231 -5.68848 -7.26562 9.31946 -7.26562 27.8327C-7.26562 46.3459 7.74231 61.3539 26.2555 61.3539Z" fill="#1DA1F2"/>
</g>
<path fill-rule="evenodd" clip-rule="evenodd" d="M45.7562 18.9208C44.5194 19.4701 43.1884 19.84 41.7932 20.007C43.2179 19.1526 44.3125 17.8006 44.8272 16.1894C43.4955 16.9809 42.0165 17.5538 40.4458 17.8641C39.1868 16.5233 37.3916 15.6846 35.4085 15.6846C31.5974 15.6846 28.5079 18.7748 28.5079 22.5852C28.5079 23.1254 28.5694 23.6524 28.6872 24.1578C22.9513 23.8711 17.8668 21.1226 14.463 16.9475C13.8685 17.9669 13.5287 19.1519 13.5287 20.4162C13.5287 22.8098 14.7452 24.9219 16.5987 26.1599C15.466 26.1239 14.4034 25.8136 13.4718 25.2964V25.3828C13.4718 28.7271 15.8523 31.5155 19.0067 32.1512C18.4279 32.3083 17.8184 32.3934 17.1892 32.3934C16.744 32.3934 16.3112 32.3496 15.8896 32.269C16.7676 35.0103 19.317 37.0059 22.3366 37.0622C19.9757 38.9117 17 40.0162 13.7664 40.0162C13.2079 40.0162 12.6586 39.9835 12.1191 39.9187C15.1734 41.8763 18.7998 43.02 22.6973 43.02C35.3902 43.02 42.3307 32.5047 42.3307 23.3866C42.3307 23.0874 42.3249 22.7888 42.3104 22.4942C43.6605 21.5187 44.8304 20.3036 45.7555 18.9201L45.7562 18.9208Z" fill="white"/>
</svg>
