<svg width="56" height="56" viewBox="0 0 56 56" fill="none" xmlns="http://www.w3.org/2000/svg">
<mask id="mask0_2030_779" style="mask-type:luminance" maskUnits="userSpaceOnUse" x="0" y="0" width="56" height="56">
<path d="M28 56C43.464 56 56 43.464 56 28C56 12.536 43.464 0 28 0C12.536 0 0 12.536 0 28C0 43.464 12.536 56 28 56Z" fill="white"/>
</mask>
<g mask="url(#mask0_2030_779)">
<path d="M26.2536 61.3539C44.7668 61.3539 59.7748 46.3459 59.7748 27.8327C59.7748 9.31946 44.7668 -5.68848 26.2536 -5.68848C7.74036 -5.68848 -7.26758 9.31946 -7.26758 27.8327C-7.26758 46.3459 7.74036 61.3539 26.2536 61.3539Z" fill="#AFAFAF"/>
</g>
<path d="M40.6096 24.8119C39.0586 26.6706 35.7713 29.9468 33.9165 31.5141C31.6256 33.4508 28.5884 33.9032 25.9552 32.3286C25.6265 32.1322 24.3105 31.1691 24.3105 30.8431C24.3119 30.6689 26.1457 28.8266 26.384 28.7801C27.0328 28.6537 27.0538 29.0046 27.4708 29.2502C28.7744 30.0227 29.9103 30.0908 31.2289 29.2737L38.269 22.2474C40.3706 19.2992 36.6558 15.5778 33.7489 17.7273C33.155 18.1666 30.8151 20.8692 30.4877 20.9478C30.3391 20.9838 28.7704 20.3972 28.3593 20.3238C27.7281 20.2138 27.0793 20.1589 26.4364 20.1811C27.9429 18.7316 29.3891 16.9678 30.9532 15.6027C37.5855 9.82032 45.9991 18.3499 40.6096 24.8112V24.8119Z" fill="#FEFEFE"/>
<path d="M31.6868 25.1514C31.6855 25.3256 29.8517 27.1679 29.6134 27.2144C28.939 27.3453 28.5861 26.6756 27.9642 26.4137C26.8269 25.9358 25.8017 26.0831 24.7685 26.7201L17.7284 33.7465C15.6268 36.6946 19.3416 40.416 22.2485 38.2666C22.8424 37.8273 25.1823 35.1246 25.5097 35.0461C25.6825 35.0042 27.2257 35.594 27.6381 35.668C28.2693 35.7826 28.9194 35.833 29.561 35.8127C28.0159 37.2727 26.5349 39.136 24.9309 40.5024C18.4224 46.0498 10.0015 37.6793 15.3878 31.1826C16.9356 29.316 20.2222 26.0654 22.0809 24.479C24.3626 22.5326 27.4181 22.0965 30.0422 23.6665C30.3709 23.8629 31.6868 24.826 31.6868 25.1521V25.1514Z" fill="#FEFEFE"/>
</svg>
