<svg width="56" height="56" viewBox="0 0 56 56" fill="none" xmlns="http://www.w3.org/2000/svg">
<mask id="mask0_2030_742" style="mask-type:luminance" maskUnits="userSpaceOnUse" x="0" y="0" width="56" height="56">
<path d="M28 56C43.464 56 56 43.464 56 28C56 12.536 43.464 0 28 0C12.536 0 0 12.536 0 28C0 43.464 12.536 56 28 56Z" fill="white"/>
</mask>
<g mask="url(#mask0_2030_742)">
<path d="M61.8337 -14.9717H-4.30581C-7.0828 -14.9717 -9.33398 -12.7205 -9.33398 -9.9435V56.196C-9.33398 58.973 -7.0828 61.2242 -4.30581 61.2242H61.8337C64.6107 61.2242 66.8619 58.973 66.8619 56.196V-9.9435C66.8619 -12.7205 64.6107 -14.9717 61.8337 -14.9717Z" fill="#25D366"/>
</g>
<path d="M14.1091 42.8969L15.7963 35.0646C13.9232 31.8683 13.3392 28.1391 14.153 24.5054C15.0054 20.7009 17.2884 17.4555 20.5809 15.3676C27.3788 11.0577 36.4151 13.082 40.7251 19.8799C45.035 26.6778 43.0107 35.7147 36.2128 40.0247C31.8629 42.7823 26.3961 43.0377 21.821 40.7285L14.1085 42.8976L14.1091 42.8969ZM22.1195 38.0331L22.5706 38.2812C26.4327 40.407 31.1447 40.2617 34.868 37.9008C40.4953 34.3333 42.1707 26.8526 38.6032 21.2247C35.0356 15.5974 27.5549 13.9214 21.927 17.4896C19.2008 19.218 17.3113 21.9043 16.6055 25.0541C15.8998 28.2039 16.4635 31.4395 18.1919 34.1657L18.4675 34.6004L17.4449 39.3477L22.1195 38.0331Z" fill="white"/>
<path d="M33.6623 29.5217C33.3723 29.3285 33.0823 29.2316 32.7922 29.6185L31.6321 31.165C31.342 31.3581 31.1489 31.455 30.762 31.2619C29.3118 30.4887 27.2815 29.6185 25.542 26.7182C25.4451 26.3312 25.6389 26.1381 25.832 25.945L26.7021 24.5917C26.8952 24.3985 26.799 24.2047 26.7021 24.0116L25.542 21.2081C25.2519 20.4349 24.9619 20.5312 24.6719 20.5312H23.8986C23.7055 20.5312 23.3186 20.6281 22.9316 21.0143C20.8051 23.1408 21.6752 26.1381 23.2217 28.0715C23.5117 28.4584 25.4451 31.9382 29.6018 33.7753C32.6953 35.1286 33.3716 34.9355 34.2418 34.7423C35.305 34.6454 36.3683 33.7753 36.8521 32.9058C36.949 32.6158 37.4322 31.3594 37.0452 31.1656" fill="white"/>
</svg>
