<svg version="1.2" xmlns="http://www.w3.org/2000/svg" viewBox="0 0 155 33" width="500" height="500">
	<title>image</title>
	<defs>
		<linearGradient id="g1" x2="1" gradientUnits="userSpaceOnUse" gradientTransform="matrix(0,21.203,-19.565,0,9.783,10.994)">
			<stop offset="0" stop-color="#a2ff00"/>
			<stop offset="1" stop-color="#00ff7f"/>
		</linearGradient>
		<linearGradient id="g2" x2="1" gradientUnits="userSpaceOnUse" gradientTransform="matrix(0,21.191,-19.388,0,30.444,11.005)">
			<stop offset="0" stop-color="#a2ff00"/>
			<stop offset="1" stop-color="#00ff7f"/>
		</linearGradient>
		<linearGradient id="g3" x2="1" gradientUnits="userSpaceOnUse" gradientTransform="matrix(0,21.18,-21.158,0,51.505,11.011)">
			<stop offset="0" stop-color="#a2ff00"/>
			<stop offset="1" stop-color="#00ff7f"/>
		</linearGradient>
		<linearGradient id="g4" x2="1" gradientUnits="userSpaceOnUse" gradientTransform="matrix(0,21.186,-20.81,0,71.956,11.005)">
			<stop offset="0" stop-color="#a2ff00"/>
			<stop offset="1" stop-color="#00ff7f"/>
		</linearGradient>
		<linearGradient id="g5" x2="1" gradientUnits="userSpaceOnUse" gradientTransform="matrix(0,14.469,-14.454,0,90.08,0)">
			<stop offset="0" stop-color="#a2ff00"/>
			<stop offset="1" stop-color="#00ff7f"/>
		</linearGradient>
	</defs>
	<style>
		.s0 { fill: url(#g1) } 
		.s1 { fill: url(#g2) } 
		.s2 { fill: url(#g3) } 
		.s3 { fill: url(#g4) } 
		.s4 { fill: url(#g5) } 
		.s5 { fill: #ffffff } 
	</style>
	<path class="s0" d="m18.4 11.4q-0.7-0.4-1.5-0.4h-16.7v5.3h10.8l-10.3 11.5q-0.5 0.5-0.7 1.3-0.1 0.8 0.2 1.5 0.4 0.7 1 1.2 0.7 0.4 1.5 0.4h16.7v-5.3h-10.8l10.3-11.5q0.5-0.5 0.6-1.3 0.2-0.8-0.2-1.5-0.3-0.7-0.9-1.2z"/>
	<path class="s1" d="m22.4 11.2q-0.5 0.2-0.9 0.6-0.4 0.4-0.6 0.8-0.1 0.5-0.1 1.1v12.7q0 1.6 0.5 2.7 0.6 1.1 1.5 1.8 0.9 0.7 1.9 1 1 0.3 1.9 0.3h13.5v-5.3h-13.5q-0.3 0-0.5-0.1c-0.1-0.1-0.1-0.3-0.1-0.4v-2.1h12.6v-5.4h-12.6v-2.6h14.1v-5.3h-16.7q-0.6 0-1 0.2z"/>
	<path class="s2" d="m61 21.8q-0.5-0.8-1.2-1.3-0.6-0.5-1.4-0.9-0.7-0.3-1.4-0.5-0.7-0.1-1.4-0.2h-8.1c-0.7 0-0.9-0.2-1-0.3q-0.3-0.3-0.3-1 0-0.6 0.3-1c0.2-0.1 0.4-0.3 1-0.3h12.8v-5.3h-12.8q-1 0-2.1 0.4-1.2 0.3-2.2 1.1-1 0.8-1.6 2-0.7 1.3-0.7 3.1 0 1.8 0.7 3.1 0.6 1.3 1.6 2.1 1 0.8 2.1 1.1 1.2 0.4 2.1 0.4h8.1q0.4 0 0.6 0.1 0.2 0 0.4 0.2 0.1 0.2 0.2 0.4 0.1 0.3 0.1 0.6 0 0.6-0.3 1c-0.1 0.1-0.3 0.3-1 0.3h-14.4v5.3h14.4q0.7 0 1.4-0.2 0.8-0.1 1.5-0.4 0.7-0.4 1.4-0.9 0.6-0.5 1.2-1.3 0.5-0.7 0.8-1.7 0.3-0.9 0.3-2.1 0-1.2-0.3-2.1-0.3-1-0.8-1.7z"/>
	<path class="s3" d="m61.6 16.3h7.7v15.9h5.3v-15.9h7.8v-5.3h-20.8v5.3z"/>
	<path class="s4" d="m92.5 4.8v-4.8h-4.9v4.8h-4.7v4.9h4.7v4.8h4.9v-4.8h4.8v-4.9z"/>
	<path class="s5" d="m100.3 32.7q-2.5 0-4-1.1-1.6-1.1-1.6-3 0-0.2 0.1-0.6h3.8q0 0.8 0.4 1.3 0.5 0.5 1.4 0.5 0.9 0 1.3-0.4 0.5-0.4 0.5-1 0-0.7-0.6-1.2-0.6-0.4-1.9-1-1.3-0.5-2.1-0.9-0.8-0.5-1.3-1.3-0.6-0.8-0.6-2 0-1.5 0.7-2.6 0.8-1.1 2.1-1.7 1.4-0.6 3.1-0.6 1.6 0 2.8 0.5 1.2 0.5 1.9 1.4 0.7 0.9 0.7 2.2 0 0.3-0.1 0.4h-3.9q0 0 0-0.2 0-0.6-0.4-1-0.5-0.4-1.2-0.4-0.8 0-1.3 0.4-0.5 0.4-0.5 1 0 0.7 0.7 1.1 0.6 0.5 1.8 1.1 1.3 0.5 2.1 1 0.9 0.5 1.4 1.4 0.6 0.8 0.6 2 0 1.4-0.7 2.4-0.7 1.1-2 1.7-1.4 0.6-3.2 0.6zm23.4-15.4l-2.7 15.2h-3.7l1.1-6.3h-5.8l-1.1 6.3h-3.7l2.7-15.2h3.7l-1.1 6h5.8l1-6zm7.3 15.4q-1.9 0-3.4-0.8-1.5-0.8-2.3-2.3-0.8-1.4-0.8-3.3 0-2.7 1.2-4.8 1.1-2.1 3.2-3.2 2-1.2 4.6-1.2 2 0 3.5 0.8 1.4 0.8 2.2 2.2 0.9 1.5 0.9 3.3 0 2.7-1.2 4.8-1.2 2.1-3.2 3.3-2.1 1.2-4.7 1.2zm0.6-3.4q1.4 0 2.5-0.8 1.1-0.7 1.6-1.9 0.7-1.3 0.7-2.8 0-1.5-0.9-2.4-0.9-0.9-2.4-0.9-1.5 0-2.6 0.7-1.1 0.8-1.7 2-0.6 1.2-0.6 2.7 0 1.6 0.9 2.5 0.9 0.9 2.5 0.9zm22.7-7.1q-0.3 1.3-1.1 2.4-0.8 1.1-2.2 1.8-1.3 0.7-3.2 0.7h-2.3l-1 5.4h-3.7l2.7-15.2h6q2.4 0 3.6 1.1 1.3 1 1.3 2.8 0 0.5-0.1 1zm-6.3 2q2.1 0 2.5-2 0-0.3 0-0.5 0-0.7-0.4-1.1-0.5-0.4-1.4-0.4h-2l-0.7 4z"/>
</svg>