<svg width="22" height="22" viewBox="0 0 22 22" fill="none" xmlns="http://www.w3.org/2000/svg">
<path d="M21.9956 4.75824C21.993 3.82456 21.3178 3.15005 20.3874 3.14349C19.9379 3.14021 19.4872 3.13561 19.0377 3.14742C18.8822 3.15136 18.8468 3.10609 18.8514 2.95714C18.8619 2.56412 18.8546 2.17175 18.8546 1.77872C18.8546 0.623917 18.2359 0.000585644 17.089 0.000585644H11.002C8.92333 0.000585644 6.84534 -0.00138277 4.76735 0.00189792C3.82054 0.0032102 3.15063 0.678376 3.14538 1.62781C3.14275 2.05299 3.13685 2.47882 3.14866 2.904C3.15391 3.08444 3.1211 3.15727 2.91638 3.14874C2.48399 3.13037 2.04963 3.14086 1.61592 3.14349C0.684202 3.15005 0.00706697 3.82325 0.00378627 4.75431C-0.000150556 6.0633 -0.00277511 7.37296 0.00509855 8.68195C0.0155968 10.4286 1.20714 11.9633 2.88686 12.4285C3.43277 12.5794 3.98655 12.5742 4.5423 12.5683C4.66171 12.5669 4.74832 12.5866 4.83362 12.6936C6.17542 14.3726 7.91288 15.3634 10.0447 15.6482C10.2067 15.6698 10.2185 15.7335 10.2166 15.8627C10.2107 16.2715 10.2054 16.6809 10.2185 17.0897C10.2245 17.2577 10.1674 17.2879 10.0138 17.2865C9.26977 17.2793 8.52505 17.2728 7.78034 17.2879C6.67606 17.3095 5.72072 18.1395 5.54553 19.2307C5.44252 19.8717 5.51338 20.5207 5.50419 21.1656C5.49698 21.6656 5.83292 21.995 6.33355 21.9957C9.44299 21.9976 12.5518 21.997 15.6612 21.9957C16.175 21.995 16.4952 21.6669 16.4978 21.1466C16.5004 20.6716 16.4998 20.1972 16.4978 19.7228C16.4925 18.2996 15.4782 17.2872 14.0524 17.2833C13.3654 17.2813 12.6778 17.2761 11.9908 17.2879C11.813 17.2911 11.7756 17.2373 11.7815 17.0707C11.7939 16.6698 11.792 16.2689 11.7821 15.868C11.7782 15.7184 11.8143 15.6672 11.9744 15.6462C13.8791 15.3969 15.5044 14.5767 16.7707 13.1358C17.1559 12.6975 17.5253 12.5512 18.0909 12.5551C20.2457 12.5715 21.9811 10.8177 21.9949 8.66161C22.0035 7.36049 21.9995 6.05937 21.9956 4.75824ZM1.57917 8.71082C1.56277 7.43529 1.57655 6.15976 1.57064 4.88488C1.56999 4.74381 1.61067 4.70772 1.74715 4.711C2.14805 4.71953 2.54895 4.72216 2.94853 4.71035C3.1106 4.7051 3.15063 4.75234 3.14866 4.91112C3.14013 5.60597 3.15916 6.30148 3.1421 6.99568C3.10863 8.35388 3.21427 9.68716 3.80086 10.9706C2.55551 10.8918 1.59492 9.9109 1.57917 8.71082ZM14.1541 18.8573C14.5819 18.858 14.9126 19.1933 14.9244 19.6204C14.9316 19.8803 15.013 20.2142 14.8857 20.3789C14.7662 20.5331 14.4119 20.4222 14.1619 20.4235C13.1069 20.4281 12.0525 20.4255 10.9974 20.4255C9.76319 20.4255 8.52834 20.4209 7.29414 20.4301C7.11108 20.4314 7.05071 20.3901 7.06843 20.2044C7.0868 20.0181 7.06843 19.8284 7.07368 19.6401C7.08549 19.1979 7.41028 18.858 7.84989 18.8567C9.9515 18.8521 12.0525 18.8521 14.1541 18.8573ZM17.2832 7.78042C17.2779 10.9797 15.0576 13.5767 11.9029 14.078C8.60314 14.6029 5.34344 12.2336 4.80934 8.92472C4.74832 8.54416 4.71486 8.16295 4.71552 7.77779C4.71683 5.78969 4.71945 3.80225 4.71027 1.81415C4.70961 1.60419 4.76669 1.56613 4.96485 1.56679C6.97722 1.57532 8.98895 1.57204 11.0013 1.57204C13.0216 1.57204 15.0418 1.57466 17.0621 1.56744C17.2445 1.56679 17.2891 1.60878 17.2884 1.7925C17.2812 3.78847 17.2865 5.78444 17.2832 7.78042ZM20.4208 8.69442C20.4064 9.9109 19.4051 10.9364 18.2169 10.9633C18.3698 10.5565 18.5194 10.155 18.6217 9.73702C18.7779 9.0986 18.8553 8.45296 18.8546 7.79616C18.8546 6.84017 18.8592 5.88352 18.8507 4.92687C18.8494 4.76152 18.8809 4.70247 19.0594 4.70969C19.4517 4.72478 19.8441 4.72019 20.2365 4.711C20.3789 4.70772 20.4313 4.73266 20.43 4.89341C20.4222 6.16041 20.4359 7.42807 20.4208 8.69442Z" fill="#A5A5A5"/>
</svg>
