<svg width="22" height="22" viewBox="0 0 22 22" fill="none" xmlns="http://www.w3.org/2000/svg">
<path d="M17.1377 0.518555C17.1374 0.604021 17.138 0.692275 17.1387 0.794922V0.795898C17.1392 0.856221 17.1392 0.942533 17.1504 1.02148C17.1616 1.10039 17.1935 1.25817 17.3242 1.39355C17.4578 1.53181 17.618 1.5674 17.7021 1.58008C17.7835 1.59229 17.8717 1.59252 17.9307 1.59277H17.9316C18.1749 1.59335 18.4054 1.59113 18.6318 1.58984L19.3086 1.59668C19.7883 1.61308 20.165 1.65414 20.498 1.83105V1.83008C20.8952 2.04172 21.1709 2.35003 21.3496 2.75781L21.4199 2.93848C21.4976 3.16309 21.4838 3.40532 21.4727 3.7959V3.79688C21.4505 4.60992 21.3355 5.41763 21.1553 6.22363C20.7577 7.99991 20.07 9.60563 18.8955 10.9561C17.7867 12.2309 16.4089 13.0745 14.7686 13.502C14.4863 13.5754 14.2092 13.6389 13.9336 13.6855L13.6582 13.7266C13.5434 13.741 13.2722 13.7904 13.1191 14.0508C13.0126 14.2322 13.0245 14.4179 13.0479 14.5361L13.0713 14.6299C13.3446 15.5725 13.6123 16.5452 13.8955 17.4971V17.498C13.9338 17.6279 14.0061 17.7801 14.1514 17.9004C14.294 18.0185 14.4535 18.0614 14.5791 18.0781C15.4007 18.1874 15.9494 18.7629 16.0156 19.5566L16.0225 19.7188C16.0225 20.3069 16.0223 20.8946 16.0215 21.4814H5.9541C5.95259 20.8773 5.94927 20.2787 5.9541 19.6797C5.96171 18.871 6.58651 18.1764 7.38574 18.0859C7.5269 18.0705 7.70159 18.026 7.85352 17.8945C8.00454 17.7637 8.07143 17.5998 8.10645 17.4717L8.10742 17.4727C8.36939 16.5226 8.64521 15.6144 8.91699 14.6504C8.93118 14.6005 8.95358 14.5209 8.96387 14.4443C8.97354 14.3722 8.98981 14.1907 8.87207 14.0137C8.75552 13.8387 8.58423 13.7826 8.51758 13.7637C8.44523 13.7431 8.36442 13.7328 8.31445 13.7256H8.31543C6.59648 13.4758 5.07581 12.8218 3.79199 11.6748C2.91124 10.8863 2.23632 9.94269 1.72266 8.87207L1.51172 8.40527C1.07315 7.37203 0.794014 6.29242 0.62793 5.1748L0.563477 4.69434C0.555199 4.62102 0.554883 4.55245 0.550781 4.43066C0.547805 4.34237 0.539271 4.23104 0.518555 4.11035V4.06934C0.529848 4.02597 0.53805 3.979 0.538086 3.92773C0.538086 3.88354 0.532959 3.84194 0.524414 3.80371C0.548825 3.68946 0.55041 3.57334 0.527344 3.45898C0.538554 3.40231 0.542811 3.35238 0.542969 3.31348C0.543122 3.27496 0.540039 3.23911 0.539062 3.22461V3.20703L0.540039 3.19336C0.564076 2.60464 0.875177 2.19744 1.44531 1.84766L1.44629 1.84863C1.76803 1.65178 2.15047 1.61227 2.66016 1.59668H2.66113C3.13176 1.58146 3.58223 1.59393 4.08398 1.59277H4.08496C4.15055 1.5925 4.24222 1.59162 4.33008 1.57617C4.42066 1.5602 4.5812 1.51737 4.71094 1.37402C4.83971 1.23166 4.8665 1.06893 4.87402 0.978516C4.87769 0.934143 4.87845 0.889076 4.87695 0.84668L4.86914 0.730469C4.86195 0.641861 4.85308 0.574696 4.84668 0.518555H17.1377ZM4.32324 2.83887C3.70061 2.84873 3.07769 2.84634 2.4502 2.84082C2.32346 2.83939 2.07357 2.85365 1.87988 3.0498C1.72848 3.20338 1.68812 3.38825 1.68262 3.53027L1.68555 3.65527C1.74388 4.39828 1.83655 5.14714 1.99805 5.8916L2.07129 6.21094C2.41173 7.59685 2.95687 8.91971 3.90625 10.0576L4.10156 10.2822C4.76245 11.0154 5.54912 11.5775 6.50684 11.9844L8.00098 12.6191L7.15039 11.2363C7.04594 11.0664 6.99499 10.9906 6.94043 10.8945L6.93848 10.8916L6.78418 10.6143C6.0357 9.21675 5.64004 7.68409 5.35938 6.07227C5.2489 5.43676 5.16469 4.79706 5.10254 4.15332L5.04785 3.50781C5.04211 3.42944 5.02433 3.21249 4.85645 3.03906C4.67334 2.8501 4.44012 2.83719 4.32422 2.83887H4.32324ZM17.6465 2.83594C17.5493 2.83446 17.309 2.83974 17.123 3.03418C16.9981 3.16494 16.9598 3.32282 16.9463 3.41797L16.9385 3.48926C16.8399 4.67903 16.6929 5.85288 16.4434 7.00586C16.1435 8.3928 15.7337 9.70575 15.0381 10.8984C14.9848 10.9894 14.9327 11.0714 14.8701 11.1738L14.6318 11.5635L14.9883 11.8486C14.9981 11.8565 15.0072 11.8634 15.0137 11.8682C15.0168 11.8705 15.0199 11.8732 15.0225 11.875H15.0234L15.2725 12.0742L15.5635 11.9404C15.6349 11.9076 15.765 11.8515 15.8691 11.7988C17.4886 10.9866 18.5634 9.68341 19.2686 8.0957V8.09473C19.9083 6.65239 20.1766 5.13965 20.291 3.62402L20.29 3.62305C20.3016 3.47098 20.2849 3.22455 20.085 3.0332C19.9452 2.89951 19.78 2.85649 19.6543 2.84375L19.5439 2.83887C18.9079 2.84329 18.2766 2.84472 17.6465 2.83594Z" stroke="#88CE00" stroke-width="1.03659"/>
</svg>
