<svg width="23" height="17" viewBox="0 0 23 17" fill="none" xmlns="http://www.w3.org/2000/svg">
<path d="M21.5185 6.81495C21.4077 6.21289 20.9995 5.73454 20.4521 5.56546C20.1344 5.46804 19.8151 5.41263 19.4963 5.3462C19.8293 4.91057 20.035 4.37294 20.035 3.78351C20.035 2.35567 18.8737 1.19433 17.4459 1.19433C16.0185 1.19433 14.8572 2.35567 14.8572 3.78351C14.8572 4.37294 15.063 4.91063 15.3961 5.34626C15.077 5.41276 14.7575 5.4683 14.4397 5.56598C14.1914 5.6422 14.025 5.85799 13.9973 6.10097C13.8958 6.08106 13.7943 6.06044 13.6926 6.04272C14.3335 5.40155 14.7304 4.51656 14.7304 3.54072C14.7304 1.58866 13.1423 0 11.1902 0C9.23813 0 7.64947 1.58866 7.64947 3.54072C7.64947 4.51656 8.04651 5.40155 8.68749 6.04272C8.58601 6.06037 8.48465 6.08106 8.38324 6.1009C8.35579 5.85793 8.18904 5.64175 7.9402 5.56546C7.62248 5.46817 7.30315 5.41276 6.9842 5.34646C7.31739 4.91076 7.52319 4.37307 7.52319 3.78351C7.52319 2.35567 6.36185 1.19433 4.93401 1.19433C3.50669 1.19433 2.34535 2.35567 2.34535 3.78351C2.34535 4.37313 2.55128 4.91095 2.88452 5.34665C2.56552 5.41308 2.24612 5.46849 1.92834 5.56598C1.3804 5.73351 0.972154 6.21237 0.865453 6.79794L0.0283392 10.7423C-0.130939 11.6082 0.397411 12.4577 1.20566 12.6356C2.26288 12.8682 3.33304 12.9842 4.39554 13.0184L4.20308 13.9253L4.19947 13.9428C3.99329 15.0696 4.67267 16.1722 5.71339 16.4005C7.53092 16.8 9.3603 17 11.1902 17C13.0201 17 14.85 16.8 16.667 16.4005C17.7082 16.1716 18.3871 15.0691 18.1768 13.9253L17.9843 13.0184C19.0471 12.9842 20.1173 12.8682 21.1742 12.6356C21.9819 12.4582 22.5103 11.6088 22.3484 10.7253L21.5185 6.81495ZM17.4459 2.46134C18.1747 2.46134 18.768 3.05464 18.768 3.78351C18.768 4.51237 18.1747 5.10515 17.4459 5.10515C16.717 5.10515 16.1242 4.51237 16.1242 3.78351C16.1242 3.05464 16.717 2.46134 17.4459 2.46134ZM11.1902 1.26701C12.4438 1.26701 13.4634 2.28711 13.4634 3.54072C13.4634 4.79433 12.4438 5.81443 11.1902 5.81443C9.93659 5.81443 8.91648 4.79433 8.91648 3.54072C8.91648 2.28711 9.93659 1.26701 11.1902 1.26701ZM4.93401 2.46134C5.66288 2.46134 6.25617 3.05464 6.25617 3.78351C6.25617 4.51237 5.66288 5.10515 4.93401 5.10515C4.20514 5.10515 3.61236 4.51237 3.61236 3.78351C3.61236 3.05464 4.20514 2.46134 4.93401 2.46134ZM1.47782 11.3985C1.34999 11.3701 1.23556 11.1814 1.27112 10.9881L2.10824 7.0433C2.13195 6.91392 2.2103 6.80464 2.29999 6.77732C3.74077 6.33505 5.19728 6.27822 6.64445 6.56482C6.03027 6.82352 5.57054 7.38653 5.44226 8.08711L4.66126 11.7668C3.60321 11.7485 2.53382 11.6309 1.47782 11.3985ZM16.3948 15.1634C12.9423 15.9237 9.4402 15.9237 5.98556 15.1634C5.61185 15.0814 5.36545 14.6314 5.44432 14.1784L6.68504 8.33299C6.74174 8.02165 6.93762 7.77217 7.18298 7.69691C9.84071 6.8799 12.5371 6.8799 15.1979 7.69691C15.4428 7.77165 15.6381 8.02113 15.6984 8.34948L16.934 14.1711C17.018 14.6263 16.7706 15.0809 16.3948 15.1634ZM20.9021 11.3985C19.8464 11.6309 18.7769 11.7485 17.7187 11.7668L16.9412 8.10361C16.8097 7.38718 16.3495 6.823 15.7358 6.56495C17.1819 6.27784 18.6392 6.33441 20.0799 6.77629C20.1696 6.80412 20.2484 6.91392 20.2758 7.06082L21.1057 10.9706C21.1443 11.1814 21.0299 11.3701 20.9021 11.3985Z" fill="#DCDCDC"/>
<path d="M11.8765 10.756L11.1904 8.64417L10.5042 10.756H8.28369L10.0801 12.0612L9.39394 14.173L11.1904 12.8678L12.9868 14.173L12.3006 12.0612L14.0971 10.756H11.8765Z" fill="#DCDCDC"/>
</svg>
