<svg width="27" height="27" viewBox="0 0 27 27" fill="none" xmlns="http://www.w3.org/2000/svg">
<path d="M13.8393 8.16157e-05C6.61051 -0.0252342 0.725955 5.84207 0.702881 13.0988C0.734886 20.3264 6.47282 26.1371 13.6614 26.196C20.9996 26.2563 26.8552 20.4307 26.8991 13.1256C26.9422 5.95674 21.0398 0.0253974 13.8393 8.16157e-05ZM18.5121 17.0019C18.2695 17.8678 17.2155 18.1537 16.5486 17.5313C16.134 17.1448 15.7433 16.7331 15.3428 16.3325C14.5799 15.57 13.8222 14.8031 13.0541 14.0466C12.7511 13.748 12.6067 13.407 12.6112 12.9781C12.6231 11.8255 12.6149 10.6729 12.6149 9.52031H12.6164C12.6164 8.33047 12.6052 7.13988 12.6194 5.95078C12.6298 5.08334 13.4902 4.52193 14.2665 4.86667C14.7571 5.08483 14.9885 5.48021 14.987 6.01928C14.9848 7.52483 14.9863 9.03112 14.9863 10.5367C14.9863 11.1413 14.993 11.7459 14.9826 12.3497C14.9789 12.5321 15.0347 12.6602 15.1634 12.7875C16.1601 13.7756 17.1478 14.7718 18.1437 15.7606C18.4965 16.1113 18.6468 16.5201 18.5121 17.0019Z" fill="#A2FF00"/>
</svg>
