<svg width="23" height="23" viewBox="0 0 23 23" fill="none" xmlns="http://www.w3.org/2000/svg">
<path d="M11.5 0C5.1494 0 0 5.16219 0 11.5C0 17.8505 5.1494 23 11.5 23C17.8377 23 23 17.8505 23 11.5C23 5.16219 17.8377 0 11.5 0ZM17.8889 12.7778H10.2222V5.11111C10.2222 4.40827 10.7972 3.83333 11.5 3.83333C12.2028 3.83333 12.7778 4.40827 12.7778 5.11111V10.2222H17.8889C18.5917 10.2222 19.1667 10.7972 19.1667 11.5C19.1667 12.2156 18.5917 12.7778 17.8889 12.7778Z" fill="url(#paint0_linear_1607_2048)"/>
<defs>
<linearGradient id="paint0_linear_1607_2048" x1="11.5" y1="0" x2="11.5" y2="23" gradientUnits="userSpaceOnUse">
<stop stop-color="#A2FF00"/>
<stop offset="1" stop-color="#00FF7F"/>
</linearGradient>
</defs>
</svg>
