<svg width="22" height="23" viewBox="0 0 22 23" fill="none" xmlns="http://www.w3.org/2000/svg">
<path d="M20.9558 0.932379C20.6699 0.357151 20.0914 0 19.4489 0H13.8298C13.1873 0 12.6101 0.357151 12.3228 0.930421L10.6098 4.3569L8.89758 0.931074C8.6103 0.357151 8.03311 0 7.39063 0H1.68666C1.04288 0 0.464382 0.358457 0.177094 0.934991C-0.108888 1.51153 -0.044901 2.18796 0.342937 2.70116L4.34317 7.98562C3.42957 8.91563 2.72008 10.0145 2.2978 11.2212L2.26124 11.3387C1.94391 12.2437 1.7846 13.197 1.7846 14.1744C1.7846 19.0407 5.74264 23 10.6096 23C15.4765 23 19.4345 19.0407 19.4345 14.1744C19.4345 13.1741 19.2674 12.1856 18.9357 11.2356L18.8612 11.0534C18.4191 9.88719 17.7253 8.8372 16.8505 7.95257L20.7952 2.69659C21.1817 2.18273 21.2431 1.50696 20.9558 0.932379ZM1.68666 1.60489L7.46115 1.64799L9.35986 5.44476C9.07322 5.48369 8.79148 5.5449 8.51154 5.61223C8.46641 5.62309 8.41989 5.62749 8.37492 5.63917C7.99051 5.73825 7.61573 5.86957 7.24813 6.02105C7.14137 6.06504 7.0387 6.11825 6.93358 6.16657C6.66931 6.28793 6.41059 6.4208 6.15782 6.56902C6.04348 6.6361 5.93077 6.70466 5.81895 6.77714C5.73407 6.83214 5.64446 6.87736 5.56113 6.93539L1.62267 1.73221L1.68666 1.60489ZM17.4091 11.7559L17.4614 11.8852C17.7069 12.627 17.8309 13.3968 17.8309 14.1744C17.8309 18.1559 14.5911 21.3951 10.6096 21.3951C6.62801 21.3951 3.38819 18.1559 3.38819 14.1744C3.38819 13.3445 3.53053 12.5375 3.80867 11.7755L3.85699 11.6267C4.27617 10.501 4.99047 9.48115 5.92546 8.67609C7.05894 7.71955 8.41442 7.14106 9.90048 6.99611C10.1029 6.96216 10.3406 6.95367 10.6096 6.95367C11.0589 6.95367 11.5034 7.00158 11.9408 7.08377C13.1576 7.31254 14.3083 7.84581 15.2688 8.65128C16.2392 9.47789 16.9802 10.5515 17.4091 11.7559ZM19.5129 1.73156L15.6266 6.90992C15.4872 6.81411 15.3383 6.73527 15.1941 6.64786C15.103 6.5926 15.0146 6.53474 14.9216 6.48283C14.5312 6.26483 14.1274 6.07499 13.71 5.91854C13.6267 5.88728 13.5414 5.86467 13.4573 5.83594C13.0904 5.71082 12.7165 5.61076 12.3358 5.53462C12.239 5.51527 12.1443 5.49169 12.0468 5.47553C11.9886 5.4659 11.9321 5.44867 11.8736 5.44019L13.8298 1.60489L19.5207 1.64864C19.5429 1.69239 19.5233 1.71785 19.5129 1.73156Z" fill="#231F20"/>
</svg>
