<svg width="19" height="20" viewBox="0 0 19 20" fill="none" xmlns="http://www.w3.org/2000/svg">
<path d="M16.3913 14.3103C16.2405 14.1691 16.1617 13.9297 16.1512 13.725L16.1523 3.28187C15.9746 2.17603 15.133 1.50274 14.035 1.42772C10.7933 1.20627 7.30318 1.59888 4.03561 1.42772C2.90649 1.50488 2.06819 2.23697 1.91853 3.3714L1.9162 16.5809C2.04213 17.7357 2.89261 18.4888 4.03561 18.5669C6.37911 18.7271 8.90148 18.441 11.2638 18.5678C11.9483 18.722 12.0528 19.6689 11.4025 19.9505C8.83944 20.0501 6.25129 19.9632 3.67885 19.9946C1.8366 19.7723 0.560036 18.3283 0.443359 16.4919L0.445691 3.46039C0.543441 1.67881 1.89368 0.190838 3.67885 0L14.4341 0.00229544C16.1516 0.201375 17.4855 1.60693 17.6248 3.32663L17.6043 13.9701C17.4373 14.4947 16.8053 14.698 16.3913 14.3103Z" fill="url(#paint0_linear_810_736)"/>
<path d="M4.5827 5.72378L13.4535 5.7124C14.2489 5.89087 14.2593 6.96887 13.4535 7.1424L4.66154 7.14142C3.87027 7.01789 3.80177 5.93692 4.5827 5.72378Z" fill="url(#paint1_linear_810_736)"/>
<path d="M4.5827 9.29361L13.4535 9.28223C14.2489 9.46069 14.2593 10.5387 13.4535 10.7122L4.66154 10.7112C3.87027 10.5877 3.80177 9.50674 4.5827 9.29361Z" fill="url(#paint2_linear_810_736)"/>
<path d="M4.5827 12.8634L13.4535 12.8521C14.2489 13.0305 14.2593 14.1085 13.4535 14.282L4.66154 14.2811C3.87027 14.1575 3.80177 13.0766 4.5827 12.8634Z" fill="url(#paint3_linear_810_736)"/>
<path d="M17.3472 15.8524C17.9345 15.7677 18.3724 16.3982 18.1065 16.9262L15.2477 19.7793C15.0056 19.8754 14.8428 19.8859 14.6058 19.7775C14.3906 19.6791 13.1448 18.4465 12.9613 18.209C12.3687 17.4422 13.212 16.6105 13.8999 17.092C14.0683 17.21 14.8215 18.0883 14.9197 18.0709L16.9111 16.0878C17.0299 15.9936 17.1954 15.8743 17.3472 15.8524Z" fill="url(#paint4_linear_810_736)"/>
<defs>
<linearGradient id="paint0_linear_810_736" x1="9.03407" y1="0" x2="9.03407" y2="20" gradientUnits="userSpaceOnUse">
<stop stop-color="#A2FF00"/>
<stop offset="1" stop-color="#00FF7F"/>
</linearGradient>
<linearGradient id="paint1_linear_810_736" x1="9.0426" y1="5.7124" x2="9.0426" y2="7.1424" gradientUnits="userSpaceOnUse">
<stop stop-color="#A2FF00"/>
<stop offset="1" stop-color="#00FF7F"/>
</linearGradient>
<linearGradient id="paint2_linear_810_736" x1="9.0426" y1="9.28223" x2="9.0426" y2="10.7122" gradientUnits="userSpaceOnUse">
<stop stop-color="#A2FF00"/>
<stop offset="1" stop-color="#00FF7F"/>
</linearGradient>
<linearGradient id="paint3_linear_810_736" x1="9.0426" y1="12.8521" x2="9.0426" y2="14.282" gradientUnits="userSpaceOnUse">
<stop stop-color="#A2FF00"/>
<stop offset="1" stop-color="#00FF7F"/>
</linearGradient>
<linearGradient id="paint4_linear_810_736" x1="15.4734" y1="15.8447" x2="15.4734" y2="19.8551" gradientUnits="userSpaceOnUse">
<stop stop-color="#A2FF00"/>
<stop offset="1" stop-color="#00FF7F"/>
</linearGradient>
</defs>
</svg>
