<svg width="25" height="23" viewBox="0 0 25 23" fill="none" xmlns="http://www.w3.org/2000/svg">
<path d="M24.8171 2.45069C24.2977 0.91937 22.9714 0.00167229 21.2737 0.00106293C15.4234 -0.000765154 9.57363 -0.000155793 3.72328 0.00228165C3.48836 0.00228165 3.24916 0.00959398 3.01852 0.0504211C1.20401 0.368507 0.00249602 1.80111 0.00127248 3.64748C-0.0011746 7.58639 0.000660711 11.5253 0.000660711 15.4642C0.000660711 15.5611 0.00249602 15.6586 0.0067784 15.7555C0.0752966 17.363 1.32147 18.7743 2.91329 19.0533C3.50304 19.1563 4.09768 19.1161 4.69048 19.1155C4.89849 19.1149 4.98291 19.1484 4.97985 19.386C4.96884 20.294 4.98413 21.2013 4.98903 22.1093C4.99025 22.3146 5.01533 22.5139 5.14013 22.6863C5.42032 23.0739 5.89139 23.1056 6.33798 22.7631C7.8515 21.6017 9.36501 20.4402 10.8736 19.2733C11.018 19.1618 11.1599 19.1173 11.3404 19.1173C14.6519 19.1216 17.9634 19.1082 21.2749 19.1252C23.2014 19.135 24.5167 17.8815 24.8917 16.4386C24.9272 16.3021 24.9107 16.1516 25 16.0291V3.14049C24.94 2.91015 24.8936 2.67555 24.8171 2.45069ZM21.2896 17.5915C17.8723 17.5927 14.4549 17.5939 11.0376 17.589C10.7134 17.5884 10.4405 17.6786 10.1848 17.8779C9.03037 18.7743 7.86985 19.6621 6.71116 20.5518C6.65549 20.5944 6.6096 20.6572 6.49153 20.6657C6.49153 19.929 6.49398 19.2081 6.49092 18.4866C6.48847 17.8864 6.19177 17.5939 5.58856 17.5921C4.92907 17.5909 4.2702 17.5988 3.61132 17.5903C2.60252 17.5769 1.86289 17.0071 1.59554 16.0425C1.53865 15.8396 1.5258 15.6281 1.5258 15.4179C1.52519 11.5113 1.52335 7.60467 1.52641 3.69805C1.52703 2.38427 2.39146 1.52934 3.7141 1.52934C9.5724 1.52812 15.4307 1.52812 21.289 1.52934C22.3761 1.52934 23.1243 2.07655 23.4045 3.0759C23.4614 3.27881 23.4742 3.49026 23.4749 3.70049C23.4755 7.6071 23.4767 11.5131 23.4742 15.4197C23.4736 16.7347 22.6098 17.5909 21.2896 17.5915Z" fill="url(#paint0_linear_223_521)"/>
<defs>
<linearGradient id="paint0_linear_223_521" x1="12.5" y1="0" x2="12.5" y2="23" gradientUnits="userSpaceOnUse">
<stop stop-color="#A2FF00"/>
<stop offset="1" stop-color="#00FF7F"/>
</linearGradient>
</defs>
</svg>
