<svg width="18" height="26" viewBox="0 0 18 26" fill="none" xmlns="http://www.w3.org/2000/svg">
<path d="M17.7205 6.62109C16.3497 1.41299 10.8169 -1.35864 5.82748 0.664111C2.61595 1.96614 0.424303 5.16654 0.369315 8.62617C0.348368 9.93932 0.614795 11.2001 1.04226 12.4327C1.7512 14.4791 2.82477 16.3368 3.99129 18.1462C5.39674 20.3247 6.97043 22.3868 8.42236 24.5333C8.57489 24.7584 8.73723 24.9601 8.98795 25.0759H9.38006C9.63012 24.9594 9.7964 24.7604 9.9463 24.5346C10.2343 24.0999 10.5348 23.6731 10.8346 23.2463C12.2918 21.1738 13.8046 19.1386 15.1158 16.9659C16.1114 15.3176 16.9945 13.6156 17.5431 11.7598C18.0439 10.0637 18.1761 8.35188 17.7205 6.62109ZM9.09989 22.9209C7.26632 20.2874 5.30575 17.7377 3.76414 14.9104C2.98973 13.4912 2.33315 12.023 2.00781 10.4277C1.8998 9.89939 1.83696 9.36522 1.83696 8.82451C1.83434 5.13381 4.58371 2.00083 8.24234 1.52427C12.2558 1.00124 15.9871 3.89004 16.4754 7.89365C16.6613 9.41563 16.3491 10.8617 15.8234 12.275C15.1983 13.9547 14.3172 15.5022 13.3601 17.0091C12.079 19.026 10.65 20.9407 9.28187 22.898C9.22688 22.9766 9.19284 23.0558 9.09989 22.9209Z" fill="#DCDCDC"/>
<path d="M9.20223 4.40432C6.77296 4.39712 4.7849 6.3675 4.77639 8.78826C4.76788 11.2195 6.73238 13.2089 9.15445 13.2213C11.5948 13.2331 13.5875 11.2588 13.5921 8.82426C13.596 6.39434 11.6263 4.41086 9.20223 4.40432ZM9.17147 11.7517C7.56766 11.7471 6.24731 10.4235 6.246 8.81772C6.24404 7.19951 7.56766 5.87327 9.18456 5.87392C10.8028 5.87392 12.1251 7.20017 12.1225 8.81903C12.1205 10.4353 10.791 11.7563 9.17147 11.7517Z" fill="#DCDCDC"/>
</svg>
