<svg width="155" height="33" viewBox="0 0 155 33" fill="none" xmlns="http://www.w3.org/2000/svg"> <path d="M18.3669 11.4343C17.9271 11.1428 17.4417 10.9941 16.9221 10.9941H0.155498V16.282H10.983L0.669456 27.778C0.332526 28.1553 0.11552 28.6069 0.03557 29.1099C-0.0500902 29.6359 0.0184395 30.1504 0.246867 30.6191C0.458162 31.0879 0.783674 31.4652 1.21769 31.7567C1.65741 32.0483 2.14282 32.1969 2.66249 32.1969H19.4005V26.9091H8.59018L18.8637 15.4359C19.2235 15.0586 19.4519 14.6013 19.5318 14.0697C19.6118 13.5609 19.549 13.0578 19.3377 12.5719C19.1264 12.1032 18.8009 11.7259 18.3669 11.4343Z" fill="url(#paint0_linear_0_1)"/> <path d="M22.3547 11.205C22.0292 11.3364 21.7379 11.5422 21.5038 11.7881C21.264 12.0281 21.0812 12.314 20.9499 12.6341C20.8185 12.9599 20.75 13.3029 20.75 13.6631V26.3653C20.75 27.4229 20.9499 28.3318 21.3496 29.0864C21.738 29.8181 22.2291 30.4241 22.8116 30.8985C23.394 31.3673 24.0336 31.6988 24.7132 31.9046C25.3757 32.099 25.9924 32.1962 26.5635 32.1962H40.1378V26.9084H26.592C26.3807 26.9084 26.2151 26.8741 26.1409 26.8055C26.0438 26.7083 26.0381 26.4911 26.0381 26.371V24.2559H38.5559V18.9452H26.0381V16.2927H40.1378V11.0049H23.4055C23.0343 11.0049 22.6859 11.0735 22.3661 11.205V11.1935L22.3547 11.205Z" fill="url(#paint1_linear_0_1)"/> <path d="M60.9931 21.7636C60.6505 21.272 60.2564 20.8375 59.8053 20.4888C59.3713 20.1458 58.9144 19.8543 58.4347 19.6256C57.9608 19.4027 57.4753 19.2312 56.9842 19.1225C56.5102 19.0196 56.042 18.9568 55.5565 18.9453H47.4588C46.8363 18.9453 46.6079 18.7052 46.5337 18.6309C46.3224 18.408 46.2196 18.0821 46.2196 17.6362C46.2196 17.1903 46.3224 16.8588 46.5451 16.6244C46.6764 16.4815 46.9049 16.2986 47.4588 16.2986H60.3193V11.0107H47.4588C46.8078 11.0107 46.0939 11.1251 45.3573 11.3537C44.592 11.5938 43.8782 11.9768 43.2272 12.497C42.5647 13.023 42.0222 13.7204 41.5882 14.5493C41.1485 15.3953 40.9258 16.4358 40.9258 17.6305C40.9258 18.8253 41.1485 19.86 41.5882 20.7118C42.0222 21.5464 42.5647 22.2438 43.2272 22.7754C43.8725 23.2956 44.592 23.6729 45.3458 23.913C46.0825 24.1417 46.7907 24.256 47.4474 24.256H55.5451C55.7564 24.256 55.9392 24.2903 56.0991 24.3532C56.2475 24.4161 56.3618 24.4961 56.4588 24.599C56.5616 24.7133 56.6416 24.8448 56.7044 25.0049C56.7672 25.1707 56.8015 25.3765 56.8015 25.5937C56.8015 26.0339 56.6987 26.3597 56.476 26.5884C56.4074 26.6684 56.179 26.9028 55.5451 26.9028H41.0914V32.1906H55.5451C55.9848 32.1906 56.4531 32.1392 56.9385 32.042C57.4297 31.9391 57.9151 31.779 58.3891 31.5561C58.863 31.3331 59.3199 31.0645 59.7596 30.7215C60.2165 30.367 60.6219 29.9383 60.9646 29.4352C61.3015 28.9436 61.5699 28.3719 61.7755 27.7374C61.9754 27.0914 62.0839 26.3826 62.0839 25.5937C62.0839 24.8048 61.9868 24.096 61.7869 23.4614C61.5927 22.8269 61.3129 22.2552 60.976 21.7636H60.9931Z" fill="url(#paint2_linear_0_1)"/> <path d="M61.5508 16.2813H69.323V32.1905H74.6054V16.2813H82.3605V11.0049H61.5565V16.2813H61.5508Z" fill="url(#paint3_linear_0_1)"/> <path d="M92.5445 4.76761V0H87.6334V4.76761H82.8535V9.70101H87.6334V14.4686H92.5445V9.70101H97.3073V4.76761H92.5445Z" fill="url(#paint4_linear_0_1)"/> <path d="M100.301 32.6999C98.6499 32.6999 97.3027 32.3451 96.2597 31.6353C95.2313 30.911 94.717 29.8898 94.717 28.5716C94.717 28.4412 94.7315 28.2457 94.7605 27.9849H98.6281C98.5847 28.5354 98.715 28.9699 99.0192 29.2886C99.3234 29.6073 99.787 29.7666 100.41 29.7666C100.975 29.7666 101.417 29.6435 101.735 29.3973C102.068 29.151 102.235 28.8033 102.235 28.3543C102.235 27.8908 102.025 27.5141 101.605 27.2244C101.199 26.9347 100.562 26.6088 99.6928 26.2467C98.8526 25.899 98.1646 25.5731 97.6286 25.2689C97.1071 24.9502 96.6508 24.5229 96.2597 23.9869C95.8686 23.4509 95.6731 22.7774 95.6731 21.9662C95.6586 20.9667 95.9048 20.0975 96.4118 19.3588C96.9188 18.62 97.6214 18.0551 98.5195 17.664C99.4176 17.2729 100.446 17.0773 101.605 17.0773C102.648 17.0773 103.575 17.2439 104.386 17.5771C105.197 17.8958 105.827 18.3665 106.276 18.9894C106.726 19.5978 106.95 20.3221 106.95 21.1622C106.95 21.3795 106.943 21.5389 106.928 21.6403H102.974C102.988 21.5823 102.996 21.4954 102.996 21.3795C102.996 20.9739 102.851 20.648 102.561 20.4017C102.286 20.141 101.902 20.0106 101.409 20.0106C100.888 20.0106 100.461 20.141 100.127 20.4017C99.8087 20.648 99.6494 20.9884 99.6494 21.423C99.6494 21.8575 99.8521 22.2269 100.258 22.5311C100.663 22.8208 101.293 23.1612 102.148 23.5523C103.003 23.9435 103.698 24.3056 104.234 24.6388C104.784 24.9719 105.255 25.421 105.646 25.9859C106.037 26.5364 106.233 27.2172 106.233 28.0284C106.233 28.9265 105.994 29.7304 105.516 30.4402C105.038 31.15 104.35 31.7077 103.452 32.1133C102.554 32.5044 101.503 32.6999 100.301 32.6999ZM123.661 17.2946L120.966 32.5479H117.251L118.359 26.2249H112.579L111.471 32.5479H107.756L110.45 17.2946H114.165L113.101 23.2916H118.88L119.945 17.2946H123.661ZM130.906 32.6999C129.617 32.6999 128.479 32.432 127.494 31.896C126.524 31.36 125.771 30.6068 125.235 29.6363C124.699 28.6657 124.431 27.5503 124.431 26.2901C124.431 24.5084 124.815 22.9222 125.582 21.5316C126.35 20.1265 127.415 19.0329 128.776 18.2506C130.153 17.4684 131.71 17.0773 133.448 17.0773C134.752 17.0773 135.896 17.3453 136.881 17.8813C137.866 18.4027 138.627 19.1487 139.163 20.1193C139.699 21.0753 139.967 22.1762 139.967 23.422C139.967 25.2037 139.583 26.8043 138.815 28.2239C138.047 29.629 136.975 30.7299 135.599 31.5266C134.223 32.3088 132.659 32.6999 130.906 32.6999ZM131.471 29.2669C132.427 29.2669 133.267 29.0206 133.991 28.5281C134.716 28.0356 135.273 27.3765 135.664 26.5508C136.07 25.7107 136.273 24.8053 136.273 23.8348C136.273 22.7919 135.983 21.9734 135.404 21.3795C134.824 20.7856 134.013 20.4887 132.97 20.4887C132.014 20.4887 131.167 20.7349 130.428 21.2274C129.704 21.7199 129.139 22.379 128.733 23.2047C128.342 24.0159 128.146 24.914 128.146 25.899C128.146 26.942 128.436 27.7676 129.015 28.376C129.595 28.9699 130.413 29.2669 131.471 29.2669ZM154.18 22.2052C154.035 23.0888 153.694 23.9 153.158 24.6388C152.622 25.363 151.891 25.9497 150.964 26.3987C150.051 26.8478 148.972 27.0723 147.726 27.0723H145.423L144.445 32.5479H140.73L143.424 17.2946H149.443C151.036 17.2946 152.239 17.6495 153.05 18.3593C153.861 19.0546 154.267 20.0034 154.267 21.2057C154.267 21.5678 154.238 21.901 154.18 22.2052ZM147.944 24.1607C149.334 24.1607 150.153 23.5089 150.399 22.2052C150.428 21.9734 150.442 21.8068 150.442 21.7054C150.442 21.2419 150.29 20.887 149.986 20.6408C149.696 20.38 149.247 20.2496 148.639 20.2496H146.618L145.945 24.1607H147.944Z" fill="white"/> <defs> <linearGradient id="paint0_linear_0_1" x1="9.78265" y1="10.9941" x2="9.78265" y2="32.1969" gradientUnits="userSpaceOnUse"> <stop stop-color="#A2FF00"/> <stop offset="1" stop-color="#00FF7F"/> </linearGradient> <linearGradient id="paint1_linear_0_1" x1="30.4439" y1="11.0049" x2="30.4439" y2="32.1962" gradientUnits="userSpaceOnUse"> <stop stop-color="#A2FF00"/> <stop offset="1" stop-color="#00FF7F"/> </linearGradient> <linearGradient id="paint2_linear_0_1" x1="51.5048" y1="11.0107" x2="51.5048" y2="32.1906" gradientUnits="userSpaceOnUse"> <stop stop-color="#A2FF00"/> <stop offset="1" stop-color="#00FF7F"/> </linearGradient> <linearGradient id="paint3_linear_0_1" x1="71.9556" y1="11.0049" x2="71.9556" y2="32.1905" gradientUnits="userSpaceOnUse"> <stop stop-color="#A2FF00"/> <stop offset="1" stop-color="#00FF7F"/> </linearGradient> <linearGradient id="paint4_linear_0_1" x1="90.0804" y1="0" x2="90.0804" y2="14.4686" gradientUnits="userSpaceOnUse"> <stop stop-color="#A2FF00"/> <stop offset="1" stop-color="#00FF7F"/> </linearGradient> </defs> </svg>